<?xml version="1.0" encoding="utf-8" standalone="no"?>
<!DOCTYPE svg PUBLIC "-//W3C//DTD SVG 1.1//EN"
  "http://www.w3.org/Graphics/SVG/1.1/DTD/svg11.dtd">
<!-- Created with matplotlib (https://matplotlib.org/) -->
<svg height="259.09pt" version="1.1" viewBox="0 0 398.325 259.09" width="398.325pt" xmlns="http://www.w3.org/2000/svg" xmlns:xlink="http://www.w3.org/1999/xlink">
 <defs>
  <style type="text/css">
*{stroke-linecap:butt;stroke-linejoin:round;}
  </style>
 </defs>
 <g id="figure_1">
  <g id="patch_1">
   <path d="M 0 259.09 
L 398.325 259.09 
L 398.325 0 
L 0 0 
z
" style="fill:#ffffff;"/>
  </g>
  <g id="axes_1">
   <g id="patch_2">
    <path d="M 56.325 224.64 
L 391.125 224.64 
L 391.125 7.2 
L 56.325 7.2 
z
" style="fill:#ffffff;"/>
   </g>
   <g id="matplotlib.axis_1">
    <g id="xtick_1">
     <g id="line2d_1">
      <defs>
       <path d="M 0 0 
L 0 3.5 
" id="md94d440c02" style="stroke:#000000;stroke-width:0.8;"/>
      </defs>
      <g>
       <use style="stroke:#000000;stroke-width:0.8;" x="71.543182" xlink:href="#md94d440c02" y="224.64"/>
      </g>
     </g>
     <g id="text_1">
      <!-- 0 -->
      <defs>
       <path d="M 3.125 29.296875 
Q 3.90625 50 6.4375 56.046875 
Q 8.984375 62.109375 13.671875 66.015625 
Q 18.359375 69.921875 25.1875 69.921875 
Q 32.03125 69.921875 37.109375 64.25 
Q 42.1875 58.59375 43.75 50 
Q 45.3125 41.40625 44.71875 30.265625 
Q 44.140625 19.140625 40.8125 12.109375 
Q 37.5 5.078125 30.859375 2.34375 
Q 24.21875 -0.390625 17.578125 2.921875 
Q 10.9375 6.25 8.203125 11.71875 
Q 5.46875 17.1875 4.296875 23.234375 
Q 3.125 29.296875 3.90625 50 
z
M 12.890625 52.734375 
Q 10.546875 31.25 12.5 22.84375 
Q 14.453125 14.453125 18.9375 10.9375 
Q 23.4375 7.421875 28.125 9.5625 
Q 32.8125 11.71875 34.953125 18.15625 
Q 37.109375 24.609375 37.109375 32.21875 
Q 37.109375 39.84375 36.515625 46.09375 
Q 35.9375 52.34375 33 57.421875 
Q 30.078125 62.5 25.1875 62.6875 
Q 20.3125 62.890625 16.59375 57.8125 
Q 12.890625 52.734375 10.546875 31.25 
z
" id="SimHei-48"/>
      </defs>
      <g transform="translate(69.043182 238.515)scale(0.1 -0.1)">
       <use xlink:href="#SimHei-48"/>
      </g>
     </g>
    </g>
    <g id="xtick_2">
     <g id="line2d_2">
      <g>
       <use style="stroke:#000000;stroke-width:0.8;" x="109.607669" xlink:href="#md94d440c02" y="224.64"/>
      </g>
     </g>
     <g id="text_2">
      <!-- 250 -->
      <defs>
       <path d="M 4.6875 3.90625 
Q 5.078125 9.765625 10.15625 14.453125 
Q 15.234375 19.140625 23.046875 29.09375 
Q 30.859375 39.0625 33.203125 44.53125 
Q 35.546875 50 34.953125 53.90625 
Q 34.375 57.8125 31.25 60.34375 
Q 28.125 62.890625 24.015625 62.5 
Q 19.921875 62.109375 16.203125 59.375 
Q 12.5 56.640625 10.546875 51.171875 
L 3.125 52.34375 
Q 6.25 61.328125 11.125 65.421875 
Q 16.015625 69.53125 22.65625 69.921875 
Q 26.5625 70.3125 29.6875 69.71875 
Q 32.8125 69.140625 36.125 66.984375 
Q 39.453125 64.84375 41.59375 60.546875 
Q 43.75 56.25 43.15625 50.1875 
Q 42.578125 44.140625 37.109375 35.734375 
Q 31.640625 27.34375 16.015625 9.375 
L 44.140625 9.375 
L 44.140625 2.34375 
L 4.6875 2.34375 
z
" id="SimHei-50"/>
       <path d="M 8.59375 20.703125 
Q 11.328125 10.15625 17.96875 8.984375 
Q 24.609375 7.8125 28.703125 10.34375 
Q 32.8125 12.890625 34.5625 16.984375 
Q 36.328125 21.09375 36.125 26.171875 
Q 35.9375 31.25 33.390625 34.765625 
Q 30.859375 38.28125 26.953125 39.453125 
Q 23.046875 40.625 18.15625 39.453125 
Q 13.28125 38.28125 10.15625 33.984375 
L 3.515625 34.765625 
Q 4.296875 37.109375 10.9375 68.359375 
L 41.796875 68.359375 
L 41.796875 61.328125 
L 16.796875 61.328125 
Q 14.84375 50.78125 12.890625 44.53125 
Q 18.75 47.265625 23.828125 47.0625 
Q 28.90625 46.875 33.59375 44.71875 
Q 38.28125 42.578125 40.421875 38.859375 
Q 42.578125 35.15625 43.546875 31.4375 
Q 44.53125 27.734375 44.328125 23.4375 
Q 44.140625 19.140625 42.578125 14.640625 
Q 41.015625 10.15625 37.890625 7.21875 
Q 34.765625 4.296875 30.265625 2.53125 
Q 25.78125 0.78125 19.921875 1.171875 
Q 14.0625 1.5625 8.78125 5.46875 
Q 3.515625 9.375 1.5625 18.75 
z
" id="SimHei-53"/>
      </defs>
      <g transform="translate(102.107669 238.515)scale(0.1 -0.1)">
       <use xlink:href="#SimHei-50"/>
       <use x="50" xlink:href="#SimHei-53"/>
       <use x="100" xlink:href="#SimHei-48"/>
      </g>
     </g>
    </g>
    <g id="xtick_3">
     <g id="line2d_3">
      <g>
       <use style="stroke:#000000;stroke-width:0.8;" x="147.672155" xlink:href="#md94d440c02" y="224.64"/>
      </g>
     </g>
     <g id="text_3">
      <!-- 500 -->
      <g transform="translate(140.172155 238.515)scale(0.1 -0.1)">
       <use xlink:href="#SimHei-53"/>
       <use x="50" xlink:href="#SimHei-48"/>
       <use x="100" xlink:href="#SimHei-48"/>
      </g>
     </g>
    </g>
    <g id="xtick_4">
     <g id="line2d_4">
      <g>
       <use style="stroke:#000000;stroke-width:0.8;" x="185.736642" xlink:href="#md94d440c02" y="224.64"/>
      </g>
     </g>
     <g id="text_4">
      <!-- 750 -->
      <defs>
       <path d="M 13.28125 2.34375 
Q 20.3125 32.03125 37.890625 61.328125 
L 4.296875 61.328125 
L 4.296875 68.359375 
L 46.09375 68.359375 
L 46.09375 61.71875 
Q 27.734375 32.03125 21.875 2.34375 
L 13.28125 2.34375 
z
" id="SimHei-55"/>
      </defs>
      <g transform="translate(178.236642 238.515)scale(0.1 -0.1)">
       <use xlink:href="#SimHei-55"/>
       <use x="50" xlink:href="#SimHei-53"/>
       <use x="100" xlink:href="#SimHei-48"/>
      </g>
     </g>
    </g>
    <g id="xtick_5">
     <g id="line2d_5">
      <g>
       <use style="stroke:#000000;stroke-width:0.8;" x="223.801129" xlink:href="#md94d440c02" y="224.64"/>
      </g>
     </g>
     <g id="text_5">
      <!-- 1000 -->
      <defs>
       <path d="M 21.875 56.25 
Q 16.796875 51.171875 8.984375 46.484375 
L 8.984375 53.90625 
Q 18.75 60.546875 25 69.53125 
L 29.6875 69.53125 
L 29.6875 2.34375 
L 21.875 2.34375 
z
" id="SimHei-49"/>
      </defs>
      <g transform="translate(213.801129 238.515)scale(0.1 -0.1)">
       <use xlink:href="#SimHei-49"/>
       <use x="50" xlink:href="#SimHei-48"/>
       <use x="100" xlink:href="#SimHei-48"/>
       <use x="150" xlink:href="#SimHei-48"/>
      </g>
     </g>
    </g>
    <g id="xtick_6">
     <g id="line2d_6">
      <g>
       <use style="stroke:#000000;stroke-width:0.8;" x="261.865616" xlink:href="#md94d440c02" y="224.64"/>
      </g>
     </g>
     <g id="text_6">
      <!-- 1250 -->
      <g transform="translate(251.865616 238.515)scale(0.1 -0.1)">
       <use xlink:href="#SimHei-49"/>
       <use x="50" xlink:href="#SimHei-50"/>
       <use x="100" xlink:href="#SimHei-53"/>
       <use x="150" xlink:href="#SimHei-48"/>
      </g>
     </g>
    </g>
    <g id="xtick_7">
     <g id="line2d_7">
      <g>
       <use style="stroke:#000000;stroke-width:0.8;" x="299.930103" xlink:href="#md94d440c02" y="224.64"/>
      </g>
     </g>
     <g id="text_7">
      <!-- 1500 -->
      <g transform="translate(289.930103 238.515)scale(0.1 -0.1)">
       <use xlink:href="#SimHei-49"/>
       <use x="50" xlink:href="#SimHei-53"/>
       <use x="100" xlink:href="#SimHei-48"/>
       <use x="150" xlink:href="#SimHei-48"/>
      </g>
     </g>
    </g>
    <g id="xtick_8">
     <g id="line2d_8">
      <g>
       <use style="stroke:#000000;stroke-width:0.8;" x="337.994589" xlink:href="#md94d440c02" y="224.64"/>
      </g>
     </g>
     <g id="text_8">
      <!-- 1750 -->
      <g transform="translate(327.994589 238.515)scale(0.1 -0.1)">
       <use xlink:href="#SimHei-49"/>
       <use x="50" xlink:href="#SimHei-55"/>
       <use x="100" xlink:href="#SimHei-53"/>
       <use x="150" xlink:href="#SimHei-48"/>
      </g>
     </g>
    </g>
    <g id="xtick_9">
     <g id="line2d_9">
      <g>
       <use style="stroke:#000000;stroke-width:0.8;" x="376.059076" xlink:href="#md94d440c02" y="224.64"/>
      </g>
     </g>
     <g id="text_9">
      <!-- 2000 -->
      <g transform="translate(366.059076 238.515)scale(0.1 -0.1)">
       <use xlink:href="#SimHei-50"/>
       <use x="50" xlink:href="#SimHei-48"/>
       <use x="100" xlink:href="#SimHei-48"/>
       <use x="150" xlink:href="#SimHei-48"/>
      </g>
     </g>
    </g>
    <g id="text_10">
     <!-- Number of Generation -->
     <defs>
      <path d="M 44.53125 1.953125 
L 34.765625 1.953125 
L 13.28125 50.390625 
L 12.890625 50.390625 
L 12.890625 1.953125 
L 3.90625 1.953125 
L 3.90625 68.75 
L 13.671875 68.75 
L 35.15625 20.3125 
L 35.546875 20.3125 
L 35.546875 68.75 
L 44.53125 68.75 
z
" id="SimHei-78"/>
      <path d="M 43.75 1.953125 
L 35.9375 1.953125 
L 35.9375 10.15625 
Q 32.8125 5.859375 29.09375 3.515625 
Q 25.390625 1.171875 19.53125 1.171875 
Q 12.5 1.171875 8.984375 5.078125 
Q 5.46875 8.984375 5.46875 14.84375 
L 5.46875 45.703125 
L 13.28125 45.703125 
L 13.28125 17.578125 
Q 13.28125 12.890625 15.625 10.15625 
Q 17.96875 7.421875 21.875 7.421875 
Q 26.953125 7.421875 31.4375 12.6875 
Q 35.9375 17.96875 35.9375 25.78125 
L 35.9375 45.703125 
L 43.75 45.703125 
z
" id="SimHei-117"/>
      <path d="M 47.65625 1.953125 
L 39.84375 1.953125 
L 39.84375 33.59375 
Q 39.84375 35.9375 39.0625 37.5 
Q 38.28125 39.0625 35.9375 39.0625 
Q 33.203125 39.0625 30.859375 36.125 
Q 28.515625 33.203125 28.515625 28.515625 
L 28.515625 1.953125 
L 20.703125 1.953125 
L 20.703125 33.59375 
Q 20.703125 35.9375 19.921875 37.5 
Q 19.140625 39.0625 16.796875 39.0625 
Q 14.0625 39.0625 11.71875 36.125 
Q 9.375 33.203125 9.375 28.515625 
L 9.375 1.953125 
L 1.5625 1.953125 
L 1.5625 45.703125 
L 9.375 45.703125 
L 9.375 39.84375 
Q 11.328125 42.96875 14.0625 44.71875 
Q 16.796875 46.484375 19.921875 46.484375 
Q 23.046875 46.484375 25.1875 44.71875 
Q 27.34375 42.96875 28.125 39.84375 
Q 30.078125 42.96875 32.609375 44.71875 
Q 35.15625 46.484375 38.28125 46.484375 
Q 42.96875 46.484375 45.3125 43.9375 
Q 47.65625 41.40625 47.65625 36.71875 
z
" id="SimHei-109"/>
      <path d="M 44.140625 23.828125 
Q 44.140625 12.5 38.671875 6.828125 
Q 33.203125 1.171875 25.390625 1.171875 
Q 21.09375 1.171875 17.96875 2.734375 
Q 14.84375 4.296875 12.5 7.8125 
L 12.5 1.953125 
L 4.6875 1.953125 
L 4.6875 68.75 
L 12.5 68.75 
L 12.5 39.84375 
Q 14.84375 43.359375 17.96875 45.109375 
Q 21.09375 46.875 25.390625 46.875 
Q 33.203125 46.875 38.671875 41.015625 
Q 44.140625 35.15625 44.140625 23.828125 
z
M 35.546875 23.828125 
Q 35.546875 31.25 32.609375 35.546875 
Q 29.6875 39.84375 23.828125 39.84375 
Q 19.140625 39.84375 15.8125 35.546875 
Q 12.5 31.25 12.5 23.828125 
Q 12.5 16.40625 15.8125 12.296875 
Q 19.140625 8.203125 23.828125 8.203125 
Q 29.6875 8.203125 32.609375 12.296875 
Q 35.546875 16.40625 35.546875 23.828125 
z
" id="SimHei-98"/>
      <path d="M 44.53125 16.796875 
Q 43.75 9.765625 38.28125 5.46875 
Q 32.8125 1.171875 25.390625 1.171875 
Q 16.015625 1.171875 9.953125 7.21875 
Q 3.90625 13.28125 3.90625 23.828125 
Q 3.90625 34.375 9.953125 40.421875 
Q 16.015625 46.484375 25.390625 46.484375 
Q 33.59375 46.484375 38.859375 41.203125 
Q 44.140625 35.9375 44.140625 23.828125 
L 12.5 23.828125 
Q 12.5 15.234375 16.203125 11.71875 
Q 19.921875 8.203125 25.390625 8.203125 
Q 29.6875 8.203125 32.421875 10.34375 
Q 35.15625 12.5 35.9375 16.796875 
z
M 35.15625 30.078125 
Q 34.375 35.546875 31.640625 37.6875 
Q 28.90625 39.84375 24.609375 39.84375 
Q 20.703125 39.84375 17.578125 37.6875 
Q 14.453125 35.546875 12.890625 30.078125 
z
" id="SimHei-101"/>
      <path d="M 39.0625 37.890625 
Q 31.640625 39.0625 26.5625 35.734375 
Q 21.484375 32.421875 17.96875 24.21875 
L 17.96875 1.953125 
L 10.15625 1.953125 
L 10.15625 45.703125 
L 17.96875 45.703125 
L 17.96875 34.375 
Q 21.484375 40.625 26.75 43.546875 
Q 32.03125 46.484375 39.0625 46.484375 
z
" id="SimHei-114"/>
      <path id="SimHei-32"/>
      <path d="M 45.703125 23.828125 
Q 45.703125 13.671875 39.453125 7.421875 
Q 33.203125 1.171875 24.609375 1.171875 
Q 16.015625 1.171875 9.765625 7.421875 
Q 3.515625 13.671875 3.515625 23.828125 
Q 3.515625 33.984375 9.765625 40.234375 
Q 16.015625 46.484375 24.609375 46.484375 
Q 33.203125 46.484375 39.453125 40.234375 
Q 45.703125 33.984375 45.703125 23.828125 
z
M 37.109375 23.828125 
Q 37.109375 31.640625 33.203125 35.546875 
Q 29.296875 39.453125 24.609375 39.453125 
Q 19.921875 39.453125 16.015625 35.546875 
Q 12.109375 31.640625 12.109375 23.828125 
Q 12.109375 16.015625 16.015625 12.109375 
Q 19.921875 8.203125 24.609375 8.203125 
Q 29.296875 8.203125 33.203125 12.109375 
Q 37.109375 16.015625 37.109375 23.828125 
z
" id="SimHei-111"/>
      <path d="M 44.53125 59.765625 
Q 42.578125 60.9375 39.84375 61.71875 
Q 37.109375 62.5 32.8125 62.5 
Q 28.515625 62.5 26.953125 60.34375 
Q 25.390625 58.203125 25.390625 55.078125 
L 25.390625 45.703125 
L 41.40625 45.703125 
L 41.40625 39.453125 
L 25.390625 39.453125 
L 25.390625 1.953125 
L 17.578125 1.953125 
L 17.578125 39.453125 
L 4.296875 39.453125 
L 4.296875 45.703125 
L 17.578125 45.703125 
L 17.578125 54.6875 
Q 17.578125 61.71875 21.875 65.625 
Q 26.171875 69.53125 33.203125 69.53125 
Q 37.5 69.53125 40.03125 68.9375 
Q 42.578125 68.359375 44.53125 67.578125 
z
" id="SimHei-102"/>
      <path d="M 44.53125 1.171875 
L 37.890625 1.171875 
L 36.71875 6.640625 
Q 35.15625 4.296875 31.828125 2.734375 
Q 28.515625 1.171875 24.609375 1.171875 
Q 16.40625 1.171875 9.953125 8.78125 
Q 3.515625 16.40625 3.515625 33.203125 
Q 3.515625 51.5625 9.375 60.546875 
Q 15.234375 69.53125 25.390625 69.53125 
Q 34.375 69.53125 39.453125 62.890625 
Q 44.53125 56.25 44.53125 45.703125 
L 35.9375 45.703125 
Q 35.9375 53.90625 33.203125 58 
Q 30.46875 62.109375 25.390625 62.109375 
Q 19.140625 62.109375 16.015625 55.65625 
Q 12.890625 49.21875 12.890625 33.984375 
Q 12.890625 19.53125 16.796875 14.0625 
Q 20.703125 8.59375 25.78125 8.59375 
Q 30.859375 8.59375 33.78125 12.296875 
Q 36.71875 16.015625 36.71875 23.828125 
L 36.71875 28.125 
L 24.609375 28.125 
L 24.609375 35.546875 
L 44.53125 35.546875 
z
" id="SimHei-71"/>
      <path d="M 43.75 1.953125 
L 35.9375 1.953125 
L 35.9375 30.078125 
Q 35.9375 34.765625 33.59375 37.5 
Q 31.25 40.234375 27.34375 40.234375 
Q 22.265625 40.234375 17.765625 34.953125 
Q 13.28125 29.6875 13.28125 21.875 
L 13.28125 1.953125 
L 5.46875 1.953125 
L 5.46875 45.703125 
L 13.28125 45.703125 
L 13.28125 37.5 
Q 16.40625 41.796875 20.109375 44.140625 
Q 23.828125 46.484375 29.6875 46.484375 
Q 36.71875 46.484375 40.234375 42.578125 
Q 43.75 38.671875 43.75 32.8125 
z
" id="SimHei-110"/>
      <path d="M 44.921875 1.953125 
L 35.546875 1.953125 
Q 34.765625 2.734375 34.375 4.09375 
Q 33.984375 5.46875 33.984375 7.421875 
Q 31.25 4.296875 27.34375 2.734375 
Q 23.4375 1.171875 19.140625 1.171875 
Q 12.890625 1.171875 8.59375 4.296875 
Q 4.296875 7.421875 4.296875 13.28125 
Q 4.296875 19.140625 8.203125 22.65625 
Q 12.109375 26.171875 20.3125 27.34375 
Q 25.78125 28.125 29.875 29.296875 
Q 33.984375 30.46875 33.984375 32.421875 
Q 33.984375 34.765625 32.21875 37.109375 
Q 30.46875 39.453125 24.609375 39.453125 
Q 19.921875 39.453125 17.765625 37.6875 
Q 15.625 35.9375 14.84375 32.8125 
L 6.25 32.8125 
Q 7.03125 39.0625 11.90625 42.765625 
Q 16.796875 46.484375 24.609375 46.484375 
Q 33.203125 46.484375 37.5 42.578125 
Q 41.796875 38.671875 41.796875 31.640625 
L 41.796875 10.15625 
Q 41.796875 7.8125 42.578125 5.859375 
Q 43.359375 3.90625 44.921875 1.953125 
z
M 33.984375 16.40625 
L 33.984375 24.21875 
Q 31.640625 23.4375 29.484375 22.84375 
Q 27.34375 22.265625 22.265625 21.484375 
Q 16.40625 20.703125 14.640625 18.75 
Q 12.890625 16.796875 12.890625 14.0625 
Q 12.890625 11.71875 14.640625 9.953125 
Q 16.40625 8.203125 19.921875 8.203125 
Q 23.4375 8.203125 27.53125 10.15625 
Q 31.640625 12.109375 33.984375 16.40625 
z
" id="SimHei-97"/>
      <path d="M 42.96875 3.125 
Q 41.015625 2.34375 38.46875 1.75 
Q 35.9375 1.171875 31.640625 1.171875 
Q 24.609375 1.171875 20.3125 5.078125 
Q 16.015625 8.984375 16.015625 16.015625 
L 16.015625 39.453125 
L 2.734375 39.453125 
L 2.734375 45.703125 
L 16.015625 45.703125 
L 16.015625 60.9375 
L 23.828125 60.9375 
L 23.828125 45.703125 
L 39.84375 45.703125 
L 39.84375 39.453125 
L 23.828125 39.453125 
L 23.828125 15.625 
Q 23.828125 12.5 25.390625 10.34375 
Q 26.953125 8.203125 31.25 8.203125 
Q 35.546875 8.203125 38.28125 8.984375 
Q 41.015625 9.765625 42.96875 10.9375 
z
" id="SimHei-116"/>
      <path d="M 28.125 58.203125 
L 20.3125 58.203125 
L 20.3125 68.359375 
L 28.125 68.359375 
z
M 28.125 1.953125 
L 20.3125 1.953125 
L 20.3125 45.703125 
L 28.125 45.703125 
z
" id="SimHei-105"/>
     </defs>
     <g transform="translate(173.725 250.64)scale(0.1 -0.1)">
      <use xlink:href="#SimHei-78"/>
      <use x="50" xlink:href="#SimHei-117"/>
      <use x="100" xlink:href="#SimHei-109"/>
      <use x="150" xlink:href="#SimHei-98"/>
      <use x="200" xlink:href="#SimHei-101"/>
      <use x="250" xlink:href="#SimHei-114"/>
      <use x="300" xlink:href="#SimHei-32"/>
      <use x="350" xlink:href="#SimHei-111"/>
      <use x="400" xlink:href="#SimHei-102"/>
      <use x="450" xlink:href="#SimHei-32"/>
      <use x="500" xlink:href="#SimHei-71"/>
      <use x="550" xlink:href="#SimHei-101"/>
      <use x="600" xlink:href="#SimHei-110"/>
      <use x="650" xlink:href="#SimHei-101"/>
      <use x="700" xlink:href="#SimHei-114"/>
      <use x="750" xlink:href="#SimHei-97"/>
      <use x="800" xlink:href="#SimHei-116"/>
      <use x="850" xlink:href="#SimHei-105"/>
      <use x="900" xlink:href="#SimHei-111"/>
      <use x="950" xlink:href="#SimHei-110"/>
     </g>
    </g>
   </g>
   <g id="matplotlib.axis_2">
    <g id="ytick_1">
     <g id="line2d_10">
      <defs>
       <path d="M 0 0 
L -3.5 0 
" id="m7000334db7" style="stroke:#000000;stroke-width:0.8;"/>
      </defs>
      <g>
       <use style="stroke:#000000;stroke-width:0.8;" x="56.325" xlink:href="#m7000334db7" y="214.756364"/>
      </g>
     </g>
     <g id="text_11">
      <!-- 0 -->
      <g transform="translate(44.325 218.193864)scale(0.1 -0.1)">
       <use xlink:href="#SimHei-48"/>
      </g>
     </g>
    </g>
    <g id="ytick_2">
     <g id="line2d_11">
      <g>
       <use style="stroke:#000000;stroke-width:0.8;" x="56.325" xlink:href="#m7000334db7" y="177.617208"/>
      </g>
     </g>
     <g id="text_12">
      <!-- 50000 -->
      <g transform="translate(24.325 181.054708)scale(0.1 -0.1)">
       <use xlink:href="#SimHei-53"/>
       <use x="50" xlink:href="#SimHei-48"/>
       <use x="100" xlink:href="#SimHei-48"/>
       <use x="150" xlink:href="#SimHei-48"/>
       <use x="200" xlink:href="#SimHei-48"/>
      </g>
     </g>
    </g>
    <g id="ytick_3">
     <g id="line2d_12">
      <g>
       <use style="stroke:#000000;stroke-width:0.8;" x="56.325" xlink:href="#m7000334db7" y="140.478052"/>
      </g>
     </g>
     <g id="text_13">
      <!-- 100000 -->
      <g transform="translate(19.325 143.915552)scale(0.1 -0.1)">
       <use xlink:href="#SimHei-49"/>
       <use x="50" xlink:href="#SimHei-48"/>
       <use x="100" xlink:href="#SimHei-48"/>
       <use x="150" xlink:href="#SimHei-48"/>
       <use x="200" xlink:href="#SimHei-48"/>
       <use x="250" xlink:href="#SimHei-48"/>
      </g>
     </g>
    </g>
    <g id="ytick_4">
     <g id="line2d_13">
      <g>
       <use style="stroke:#000000;stroke-width:0.8;" x="56.325" xlink:href="#m7000334db7" y="103.338895"/>
      </g>
     </g>
     <g id="text_14">
      <!-- 150000 -->
      <g transform="translate(19.325 106.776395)scale(0.1 -0.1)">
       <use xlink:href="#SimHei-49"/>
       <use x="50" xlink:href="#SimHei-53"/>
       <use x="100" xlink:href="#SimHei-48"/>
       <use x="150" xlink:href="#SimHei-48"/>
       <use x="200" xlink:href="#SimHei-48"/>
       <use x="250" xlink:href="#SimHei-48"/>
      </g>
     </g>
    </g>
    <g id="ytick_5">
     <g id="line2d_14">
      <g>
       <use style="stroke:#000000;stroke-width:0.8;" x="56.325" xlink:href="#m7000334db7" y="66.199739"/>
      </g>
     </g>
     <g id="text_15">
      <!-- 200000 -->
      <g transform="translate(19.325 69.637239)scale(0.1 -0.1)">
       <use xlink:href="#SimHei-50"/>
       <use x="50" xlink:href="#SimHei-48"/>
       <use x="100" xlink:href="#SimHei-48"/>
       <use x="150" xlink:href="#SimHei-48"/>
       <use x="200" xlink:href="#SimHei-48"/>
       <use x="250" xlink:href="#SimHei-48"/>
      </g>
     </g>
    </g>
    <g id="ytick_6">
     <g id="line2d_15">
      <g>
       <use style="stroke:#000000;stroke-width:0.8;" x="56.325" xlink:href="#m7000334db7" y="29.060583"/>
      </g>
     </g>
     <g id="text_16">
      <!-- 250000 -->
      <g transform="translate(19.325 32.498083)scale(0.1 -0.1)">
       <use xlink:href="#SimHei-50"/>
       <use x="50" xlink:href="#SimHei-53"/>
       <use x="100" xlink:href="#SimHei-48"/>
       <use x="150" xlink:href="#SimHei-48"/>
       <use x="200" xlink:href="#SimHei-48"/>
       <use x="250" xlink:href="#SimHei-48"/>
      </g>
     </g>
    </g>
    <g id="text_17">
     <!-- Value -->
     <defs>
      <path d="M 47.65625 68.75 
L 28.125 1.171875 
L 20.3125 1.171875 
L 0.78125 68.75 
L 10.15625 68.75 
L 23.828125 17.578125 
L 24.609375 17.578125 
L 38.28125 68.75 
z
" id="SimHei-86"/>
      <path d="M 28.515625 1.953125 
L 20.703125 1.953125 
L 20.703125 68.75 
L 28.515625 68.75 
z
" id="SimHei-108"/>
     </defs>
     <g transform="translate(14.075 128.42)rotate(-90)scale(0.1 -0.1)">
      <use xlink:href="#SimHei-86"/>
      <use x="50" xlink:href="#SimHei-97"/>
      <use x="100" xlink:href="#SimHei-108"/>
      <use x="150" xlink:href="#SimHei-117"/>
      <use x="200" xlink:href="#SimHei-101"/>
     </g>
    </g>
   </g>
   <g id="line2d_16">
    <path clip-path="url(#p9b1d7bbc90)" d="M 71.543182 17.083636 
L 71.847698 18.620618 
L 72.45673 22.528979 
L 73.979309 33.115228 
L 74.436083 36.197793 
L 74.740599 37.694234 
L 75.197373 40.467949 
L 75.958662 45.835924 
L 76.415436 48.989573 
L 77.176726 53.829786 
L 77.938016 57.897623 
L 79.765111 68.826057 
L 80.069627 70.649055 
L 80.374143 73.023881 
L 82.04898 82.442564 
L 83.419302 88.577002 
L 83.723818 90.103793 
L 84.789623 95.030688 
L 85.855429 100.056997 
L 87.530266 107.465977 
L 88.291556 111.123396 
L 88.74833 112.438672 
L 89.052846 113.721132 
L 89.205104 114.129038 
L 89.50962 115.903295 
L 89.661878 116.26041 
L 91.032199 122.029191 
L 91.641231 124.322474 
L 92.402521 126.666995 
L 94.077358 133.089543 
L 94.229616 133.323015 
L 94.838648 135.64026 
L 102.299287 157.157039 
L 102.756061 158.292531 
L 105.344446 165.616581 
L 107.932831 170.899224 
L 108.694121 172.936664 
L 109.303153 174.005425 
L 109.759927 175.332942 
L 110.673474 176.763482 
L 111.130248 177.425272 
L 111.434764 178.375039 
L 111.73928 178.700809 
L 112.348312 180.089338 
L 113.870891 182.420162 
L 114.175407 182.712432 
L 114.479923 183.031175 
L 114.936697 183.526478 
L 115.241213 184.2874 
L 115.545729 184.799118 
L 117.525082 187.454702 
L 117.67734 187.517155 
L 118.134114 188.343664 
L 119.199919 189.959099 
L 119.656693 190.425775 
L 120.417983 191.086866 
L 120.722499 191.292632 
L 121.179273 191.860222 
L 124.072174 195.162577 
L 124.376689 195.440303 
L 124.681205 195.79421 
L 125.290237 196.257944 
L 127.26959 198.221358 
L 127.726364 198.389405 
L 128.03088 198.705697 
L 128.944428 199.638157 
L 129.401202 200.164464 
L 129.857976 200.462899 
L 130.314749 200.858 
L 131.837329 201.726373 
L 132.294103 201.867071 
L 132.598619 202.083934 
L 136.252809 203.983156 
L 136.861841 204.164276 
L 139.602484 205.417084 
L 139.907 205.71289 
L 140.820548 206.097741 
L 141.581838 206.471702 
L 146.149576 208.178692 
L 146.60635 208.380937 
L 146.910866 208.529954 
L 147.215382 208.651503 
L 148.585703 209.112638 
L 149.651509 209.418249 
L 150.565056 209.69085 
L 151.78312 209.928897 
L 152.087636 210.116881 
L 155.132795 210.672408 
L 156.1986 210.894352 
L 156.655374 211.011296 
L 158.177954 211.279693 
L 159.243759 211.451306 
L 161.375371 211.742358 
L 161.832144 211.849244 
L 164.116014 212.101642 
L 165.334077 212.221691 
L 166.856657 212.408664 
L 169.901816 212.696477 
L 170.35859 212.764279 
L 171.881169 212.953792 
L 177.210197 213.318454 
L 193.197282 214.102403 
L 201.571469 214.33993 
L 209.945656 214.46393 
L 262.474648 214.722671 
L 375.906818 214.756245 
L 375.906818 214.756245 
" style="fill:none;stroke:#1f77b4;stroke-linecap:square;stroke-width:1.5;"/>
   </g>
   <g id="line2d_17">
    <path clip-path="url(#p9b1d7bbc90)" d="M 71.543182 48.477677 
L 71.69544 48.477677 
L 71.847698 48.665601 
L 71.999956 49.539114 
L 72.152214 52.2629 
L 72.608987 52.355748 
L 72.761245 54.348635 
L 73.065761 60.02944 
L 73.522535 60.02944 
L 73.827051 64.607212 
L 73.979309 65.497809 
L 74.283825 71.194213 
L 74.436083 71.194213 
L 74.588341 71.512867 
L 75.045115 71.512867 
L 75.34963 71.643597 
L 75.501888 74.076954 
L 75.654146 74.076954 
L 75.806404 76.724976 
L 76.11092 76.724976 
L 76.263178 78.66884 
L 76.719952 78.66884 
L 76.87221 78.988979 
L 77.176726 85.865665 
L 77.481242 85.865665 
L 77.6335 86.383385 
L 77.785758 88.166065 
L 78.699305 88.177206 
L 79.156079 92.967415 
L 79.308337 92.967415 
L 79.460595 93.541586 
L 79.612853 93.675287 
L 79.765111 94.254658 
L 79.917369 97.128486 
L 80.069627 97.128486 
L 80.221885 99.149599 
L 80.374143 99.149599 
L 80.678659 101.871156 
L 80.830917 102.421558 
L 80.983175 102.421558 
L 81.135432 106.081994 
L 81.28769 106.24912 
L 81.439948 106.751984 
L 81.592206 106.751984 
L 81.744464 107.147145 
L 81.896722 107.147145 
L 82.04898 108.135789 
L 82.201238 110.168786 
L 82.505754 110.168786 
L 82.658012 110.622627 
L 82.81027 110.622627 
L 82.962528 113.530623 
L 83.267044 113.530623 
L 83.57156 115.29399 
L 84.028333 115.314045 
L 84.332849 116.114022 
L 84.941881 116.114022 
L 85.094139 118.236154 
L 85.398655 118.236154 
L 85.550913 120.607117 
L 86.159945 121.57125 
L 86.312203 124.318805 
L 86.768977 124.318805 
L 86.921234 124.836525 
L 87.073492 124.836525 
L 87.22575 125.508001 
L 87.530266 125.508001 
L 87.682524 125.908361 
L 87.834782 125.908361 
L 88.291556 128.731679 
L 88.443814 128.903262 
L 88.596072 128.903262 
L 88.74833 129.083758 
L 88.900588 129.559882 
L 89.357362 133.582796 
L 89.50962 134.19782 
L 89.814135 138.707999 
L 89.966393 138.986543 
L 90.118651 138.986543 
L 90.270909 139.124701 
L 90.423167 141.282486 
L 90.575425 141.590741 
L 91.336715 141.590741 
L 91.793489 149.831919 
L 92.402521 149.896542 
L 92.859294 150.911183 
L 93.011552 150.916383 
L 93.16381 151.670308 
L 93.620584 151.670308 
L 93.772842 153.143247 
L 93.9251 153.143247 
L 94.077358 153.351969 
L 94.229616 153.351969 
L 94.381874 154.122235 
L 94.990906 154.122235 
L 95.295422 155.091567 
L 95.752195 155.091567 
L 96.056711 155.222296 
L 96.361227 155.222296 
L 96.513485 158.711892 
L 96.665743 158.711892 
L 96.818001 158.987464 
L 97.731549 159.079569 
L 97.883807 159.174645 
L 98.036065 160.921671 
L 98.340581 160.921671 
L 98.645096 163.270352 
L 98.797354 163.888347 
L 99.406386 163.948513 
L 99.558644 164.209229 
L 100.015418 164.227056 
L 100.62445 169.812785 
L 100.776708 169.812785 
L 100.928966 170.121783 
L 101.385739 170.121783 
L 101.537997 170.375072 
L 101.842513 170.404041 
L 101.994771 173.118913 
L 102.147029 173.118913 
L 102.451545 173.237758 
L 102.908319 173.297181 
L 103.060577 174.452209 
L 103.212835 174.511631 
L 103.365093 174.77829 
L 103.669609 174.77829 
L 103.821867 175.883552 
L 104.430898 175.919948 
L 104.583156 176.827629 
L 104.887672 176.922705 
L 105.03993 178.065849 
L 105.344446 178.065849 
L 105.496704 179.469709 
L 105.648962 179.469709 
L 105.80122 179.879725 
L 105.953478 180.925564 
L 106.257994 180.925564 
L 106.410252 181.142456 
L 106.56251 181.64532 
L 106.867026 181.721084 
L 107.323799 181.721084 
L 107.628315 182.001856 
L 107.932831 182.09099 
L 108.085089 182.453468 
L 108.389605 182.453468 
L 108.541863 183.098947 
L 108.998637 183.098947 
L 109.150895 183.963547 
L 109.303153 183.963547 
L 109.455411 186.211208 
L 109.912185 187.485824 
L 110.2167 187.485824 
L 110.521216 187.965662 
L 110.97799 187.971604 
L 111.130248 188.179584 
L 111.434764 188.179584 
L 111.587022 188.71513 
L 111.73928 188.71513 
L 111.891538 188.995159 
L 112.196054 189.105091 
L 112.348312 189.960777 
L 112.50057 190.129389 
L 113.261859 190.18287 
L 113.414117 194.287489 
L 113.718633 194.287489 
L 114.023149 194.412277 
L 115.393471 194.423418 
L 115.697986 195.508625 
L 116.002502 195.508625 
L 116.15476 197.14869 
L 116.611534 197.14869 
L 116.91605 197.282391 
L 117.068308 197.282391 
L 117.372824 197.583218 
L 117.525082 197.583218 
L 117.829598 198.055628 
L 118.134114 198.135849 
L 118.743145 198.145505 
L 118.895403 198.359426 
L 119.047661 198.359426 
L 119.199919 199.045758 
L 119.352177 199.045758 
L 119.504435 199.298304 
L 119.656693 199.316874 
L 119.808951 201.029732 
L 119.961209 201.029732 
L 120.265725 201.152291 
L 120.417983 201.562307 
L 120.722499 201.562307 
L 120.874757 201.889874 
L 121.027015 201.889874 
L 121.179273 203.316018 
L 121.483788 203.899846 
L 122.09282 203.974867 
L 122.549594 204.149421 
L 123.463142 204.149421 
L 123.6154 204.41088 
L 126.812817 204.500014 
L 126.965075 205.170747 
L 128.335396 205.25691 
L 128.639912 205.328217 
L 129.55346 205.351244 
L 129.705718 205.823654 
L 130.162491 205.834796 
L 130.923781 206.374056 
L 131.532813 206.374056 
L 131.685071 206.998737 
L 132.141845 207.006907 
L 132.294103 207.32779 
L 133.816682 207.3627 
L 134.121198 207.517199 
L 134.577972 207.596677 
L 134.73023 207.820255 
L 135.796036 207.884877 
L 135.948293 208.141137 
L 136.100551 208.664056 
L 137.166357 208.771017 
L 137.623131 209.319934 
L 137.775389 209.319934 
L 138.079905 209.469233 
L 138.384421 209.540541 
L 138.993452 209.6631 
L 139.907 209.911932 
L 140.516032 209.930502 
L 140.972806 210.238014 
L 142.038611 210.24767 
L 142.343127 210.385085 
L 144.017965 210.444508 
L 144.322481 210.547754 
L 144.626996 210.619062 
L 145.692802 210.619062 
L 145.84506 210.832983 
L 146.758608 210.919146 
L 148.585703 211.253398 
L 150.412798 211.347732 
L 150.869572 211.430924 
L 151.630862 211.488861 
L 151.78312 211.770375 
L 152.696668 211.878079 
L 153.305699 211.991725 
L 154.371505 212.045205 
L 154.676021 212.134339 
L 155.285053 212.236101 
L 159.243759 212.499789 
L 159.852791 212.584466 
L 160.309565 212.640175 
L 160.766339 212.646117 
L 161.070855 212.798387 
L 161.679887 212.897177 
L 162.13666 212.959571 
L 164.877303 213.040535 
L 166.704399 213.301252 
L 168.683752 213.348047 
L 169.140526 213.473577 
L 169.901816 213.538199 
L 171.576653 213.629562 
L 171.881169 213.793717 
L 174.77407 213.830856 
L 177.057939 213.930389 
L 178.580519 213.968271 
L 179.494066 213.982384 
L 179.798582 214.093801 
L 180.559872 214.142825 
L 185.8889 214.220074 
L 186.497932 214.265384 
L 191.674702 214.376059 
L 200.657921 214.528329 
L 202.332758 214.555069 
L 223.496613 214.663516 
L 230.348221 214.68877 
L 375.906818 214.756364 
L 375.906818 214.756364 
" style="fill:none;stroke:#ff7f0e;stroke-linecap:square;stroke-width:1.5;"/>
   </g>
   <g id="patch_3">
    <path d="M 56.325 224.64 
L 56.325 7.2 
" style="fill:none;stroke:#000000;stroke-linecap:square;stroke-linejoin:miter;stroke-width:0.8;"/>
   </g>
   <g id="patch_4">
    <path d="M 391.125 224.64 
L 391.125 7.2 
" style="fill:none;stroke:#000000;stroke-linecap:square;stroke-linejoin:miter;stroke-width:0.8;"/>
   </g>
   <g id="patch_5">
    <path d="M 56.325 224.64 
L 391.125 224.64 
" style="fill:none;stroke:#000000;stroke-linecap:square;stroke-linejoin:miter;stroke-width:0.8;"/>
   </g>
   <g id="patch_6">
    <path d="M 56.325 7.2 
L 391.125 7.2 
" style="fill:none;stroke:#000000;stroke-linecap:square;stroke-linejoin:miter;stroke-width:0.8;"/>
   </g>
   <g id="legend_1">
    <g id="patch_7">
     <path d="M 242.125 43.871875 
L 384.125 43.871875 
Q 386.125 43.871875 386.125 41.871875 
L 386.125 14.2 
Q 386.125 12.2 384.125 12.2 
L 242.125 12.2 
Q 240.125 12.2 240.125 14.2 
L 240.125 41.871875 
Q 240.125 43.871875 242.125 43.871875 
z
" style="fill:#ffffff;opacity:0.8;stroke:#cccccc;stroke-linejoin:miter;"/>
    </g>
    <g id="line2d_18">
     <path d="M 244.125 20.785937 
L 264.125 20.785937 
" style="fill:none;stroke:#1f77b4;stroke-linecap:square;stroke-width:1.5;"/>
    </g>
    <g id="line2d_19"/>
    <g id="text_18">
     <!-- 种群个体平均目标函数值 -->
     <defs>
      <path d="M 66.015625 62.5 
Q 66.015625 77.734375 65.625 82.421875 
L 73.828125 82.421875 
Q 73.4375 78.125 73.4375 62.5 
L 93.75 62.5 
Q 93.359375 58.203125 93.359375 50.78125 
L 93.359375 24.21875 
Q 93.359375 19.921875 93.75 14.453125 
L 85.9375 14.453125 
L 85.9375 22.265625 
L 73.4375 22.265625 
L 73.4375 5.859375 
Q 73.4375 -4.296875 73.828125 -10.9375 
L 65.625 -10.9375 
Q 66.015625 -4.296875 66.015625 5.859375 
L 66.015625 22.265625 
L 53.515625 22.265625 
L 53.515625 12.890625 
L 45.703125 12.890625 
Q 46.09375 17.578125 46.09375 23.4375 
L 46.09375 50 
Q 46.09375 58.203125 45.703125 62.5 
L 66.015625 62.5 
z
M 5.46875 50.78125 
Q 11.328125 50.390625 19.140625 50.390625 
L 22.265625 50.390625 
L 22.265625 67.578125 
Q 18.359375 66.40625 8.984375 64.453125 
Q 7.421875 67.96875 5.46875 71.484375 
Q 14.0625 71.875 22.0625 74.015625 
Q 30.078125 76.171875 36.71875 79.6875 
Q 39.0625 76.5625 42.578125 72.265625 
Q 38.671875 71.875 35.9375 71.09375 
Q 33.203125 70.3125 29.6875 69.53125 
L 29.6875 50.390625 
Q 34.765625 50.390625 42.1875 50.78125 
L 42.1875 43.75 
Q 34.765625 44.140625 29.6875 44.140625 
L 29.6875 3.515625 
Q 29.6875 -1.953125 30.078125 -10.15625 
L 21.875 -10.15625 
Q 22.265625 -1.953125 22.265625 3.515625 
L 22.265625 29.296875 
Q 19.140625 21.484375 16.59375 16.796875 
Q 14.0625 12.109375 9.765625 5.46875 
Q 6.640625 9.765625 3.90625 13.28125 
Q 9.375 19.140625 13.859375 26.953125 
Q 18.359375 34.765625 20.3125 44.140625 
L 14.453125 44.140625 
Q 8.984375 44.140625 5.46875 43.75 
z
M 66.015625 28.515625 
L 66.015625 56.25 
L 53.515625 56.25 
L 53.515625 28.515625 
z
M 85.9375 28.515625 
L 85.9375 56.25 
L 73.4375 56.25 
L 73.4375 28.515625 
z
M 37.109375 38.671875 
Q 38.28125 35.9375 40.234375 33.203125 
Q 42.1875 30.46875 44.53125 25.390625 
Q 41.015625 23.828125 37.890625 21.484375 
Q 35.9375 25.78125 34.5625 28.703125 
Q 33.203125 31.640625 30.859375 34.765625 
Q 33.203125 36.328125 37.109375 38.671875 
z
" id="SimHei-31181"/>
      <path d="M 39.0625 -6.640625 
L 39.0625 0.390625 
L 23.046875 0.390625 
L 23.046875 -9.375 
L 15.625 -9.375 
Q 16.015625 -3.515625 16.015625 21.875 
Q 12.890625 17.1875 9.375 13.28125 
Q 7.03125 16.40625 3.125 17.578125 
Q 7.03125 21.484375 10.9375 26.953125 
Q 14.84375 32.421875 16.40625 37.109375 
Q 13.28125 37.109375 8.59375 36.71875 
L 8.59375 43.359375 
Q 14.0625 42.96875 17.578125 42.96875 
Q 18.75 48.828125 18.75 53.125 
Q 10.546875 53.125 5.859375 52.734375 
L 5.859375 59.375 
Q 10.9375 58.984375 18.75 58.984375 
L 18.75 69.921875 
Q 16.40625 69.921875 10.15625 69.53125 
L 10.15625 76.5625 
Q 16.015625 76.171875 19.921875 76.171875 
L 46.09375 76.171875 
Q 45.703125 70.3125 45.703125 58.984375 
Q 48.046875 58.984375 51.171875 59.375 
L 51.171875 52.734375 
Q 48.046875 53.125 45.703125 53.125 
Q 45.703125 41.796875 46.09375 37.109375 
L 23.4375 37.109375 
Q 21.09375 30.078125 19.140625 27.34375 
L 46.484375 27.34375 
Q 46.09375 22.265625 46.09375 10.546875 
Q 46.09375 -1.171875 46.484375 -6.640625 
z
M 76.171875 19.921875 
Q 91.015625 19.921875 94.921875 20.3125 
L 94.921875 13.671875 
Q 91.015625 14.0625 76.171875 14.0625 
L 76.171875 3.515625 
Q 76.171875 -3.515625 76.5625 -10.9375 
L 68.75 -10.9375 
Q 69.140625 -3.515625 69.140625 3.515625 
L 69.140625 14.0625 
Q 55.46875 14.0625 50 13.671875 
L 50 20.3125 
Q 55.46875 19.921875 69.140625 19.921875 
L 69.140625 35.15625 
Q 57.421875 35.15625 53.125 34.765625 
L 53.125 41.40625 
Q 57.8125 41.015625 69.140625 41.015625 
L 69.140625 54.6875 
Q 58.984375 54.6875 52.734375 54.296875 
L 52.734375 60.9375 
Q 58.984375 60.546875 74.21875 60.546875 
Q 78.515625 69.921875 81.640625 80.859375 
Q 86.328125 78.515625 90.625 77.734375 
Q 89.0625 75.390625 86.71875 71.28125 
Q 84.375 67.1875 81.25 60.546875 
Q 87.890625 60.546875 92.96875 60.9375 
L 92.96875 54.296875 
Q 88.28125 54.6875 76.171875 54.6875 
L 76.171875 41.015625 
L 81.640625 41.015625 
L 91.796875 41.40625 
L 91.796875 34.765625 
Q 86.328125 35.15625 76.171875 35.15625 
z
M 39.0625 6.25 
L 39.0625 21.09375 
L 23.046875 21.09375 
L 23.046875 6.25 
z
M 38.671875 58.984375 
L 38.671875 69.921875 
L 25.78125 69.921875 
L 25.78125 58.984375 
z
M 38.671875 42.96875 
L 38.671875 53.125 
L 25.78125 53.125 
Q 25.390625 48.828125 24.609375 42.96875 
z
M 62.890625 65.234375 
Q 59.375 71.875 55.859375 76.953125 
Q 58.59375 78.125 61.328125 80.46875 
Q 64.84375 76.5625 69.140625 69.53125 
Q 65.234375 67.1875 62.890625 65.234375 
z
" id="SimHei-32676"/>
      <path d="M 53.515625 75.390625 
Q 69.921875 51.171875 96.09375 43.359375 
Q 92.1875 38.671875 90.234375 34.375 
Q 64.84375 45.3125 49.21875 69.140625 
Q 34.765625 46.09375 10.546875 33.203125 
Q 8.59375 36.71875 3.90625 40.625 
Q 22.65625 48.4375 33 60.546875 
Q 43.359375 72.65625 46.875 82.421875 
Q 51.5625 80.46875 56.25 78.90625 
Q 54.6875 76.953125 53.515625 75.390625 
z
M 45.703125 36.71875 
Q 45.703125 42.96875 44.921875 52.734375 
L 53.90625 52.734375 
Q 53.515625 46.09375 53.515625 36.328125 
L 53.515625 8.59375 
Q 53.515625 -0.390625 53.90625 -9.765625 
L 45.3125 -9.765625 
Q 45.703125 0 45.703125 8.203125 
z
" id="SimHei-20010"/>
      <path d="M 57.03125 60.15625 
Q 57.03125 74.21875 56.640625 80.078125 
L 64.453125 80.078125 
Q 64.0625 74.609375 64.0625 60.15625 
L 81.25 60.15625 
Q 89.0625 60.15625 92.578125 60.546875 
L 92.578125 53.515625 
Q 89.0625 53.90625 81.25 53.90625 
L 70.703125 53.90625 
Q 76.953125 28.90625 96.875 18.75 
Q 92.578125 16.40625 90.234375 12.109375 
Q 69.140625 28.125 64.0625 53.515625 
L 64.0625 16.015625 
Q 75.390625 16.015625 78.90625 16.40625 
L 78.90625 9.375 
Q 75.390625 9.765625 64.0625 9.765625 
Q 64.0625 1.171875 64.453125 -8.984375 
L 56.640625 -8.984375 
Q 57.03125 1.5625 57.03125 9.765625 
Q 50 9.765625 42.1875 9.375 
L 42.1875 16.40625 
Q 50 16.015625 57.03125 16.015625 
L 57.03125 53.90625 
Q 52.734375 28.125 31.25 10.15625 
Q 28.90625 13.671875 24.21875 16.015625 
Q 44.53125 29.296875 50 53.90625 
L 41.796875 53.90625 
Q 35.546875 53.90625 30.859375 53.515625 
L 30.859375 60.546875 
Q 35.546875 60.15625 41.796875 60.15625 
z
M 31.25 76.5625 
Q 28.515625 73.046875 23.828125 58.984375 
L 23.828125 8.984375 
Q 23.828125 -3.125 24.21875 -8.59375 
L 16.40625 -8.59375 
Q 16.796875 -3.515625 16.796875 8.59375 
L 16.796875 45.3125 
Q 14.84375 41.015625 8.984375 32.03125 
Q 7.03125 35.546875 3.515625 37.890625 
Q 8.203125 42.578125 14.453125 56.4375 
Q 20.703125 70.3125 22.265625 80.078125 
Q 26.5625 78.125 31.25 76.5625 
z
" id="SimHei-20307"/>
      <path d="M 70.703125 75.390625 
Q 76.5625 75.390625 85.15625 75.78125 
L 85.15625 68.359375 
Q 76.953125 68.75 70.703125 68.75 
L 54.296875 68.75 
L 54.296875 31.640625 
L 78.125 31.640625 
Q 86.71875 31.640625 94.140625 32.03125 
L 94.140625 24.609375 
Q 86.71875 25 78.125 25 
L 54.296875 25 
L 54.296875 7.03125 
Q 54.296875 -1.5625 54.6875 -9.375 
L 45.703125 -9.375 
Q 46.09375 -1.5625 46.09375 7.03125 
L 46.09375 25 
L 17.578125 25 
Q 12.109375 25 5.859375 24.609375 
L 5.859375 32.03125 
Q 12.109375 31.640625 18.359375 31.640625 
L 46.09375 31.640625 
L 46.09375 68.75 
L 27.734375 68.75 
Q 21.875 68.75 13.671875 68.359375 
L 13.671875 75.78125 
Q 21.875 75.390625 27.34375 75.390625 
z
M 61.328125 40.625 
Q 70.3125 51.5625 76.5625 64.453125 
Q 80.46875 61.71875 84.375 59.765625 
Q 74.609375 44.53125 67.96875 35.9375 
Q 64.84375 38.671875 61.328125 40.625 
z
M 30.859375 36.71875 
Q 25 48.4375 16.40625 58.203125 
Q 19.53125 60.546875 22.65625 63.28125 
Q 32.421875 51.5625 38.28125 42.578125 
Q 33.59375 39.0625 30.859375 36.71875 
z
" id="SimHei-24179"/>
      <path d="M 90.234375 4.296875 
Q 90.234375 -5.078125 83.78125 -7.03125 
Q 77.34375 -8.984375 69.140625 -9.375 
Q 68.359375 -4.296875 66.40625 0.390625 
Q 77.34375 -0.390625 80.078125 0.96875 
Q 82.8125 2.34375 82.8125 7.8125 
L 83.984375 57.8125 
L 55.46875 57.8125 
Q 53.515625 52.734375 50.96875 47.453125 
Q 48.4375 42.1875 45.703125 37.5 
Q 41.796875 39.84375 38.671875 41.015625 
Q 49.21875 56.640625 54.6875 81.25 
Q 59.375 79.6875 63.671875 78.515625 
Q 62.109375 76.171875 60.546875 72.65625 
Q 58.984375 69.140625 57.421875 64.453125 
L 92.1875 64.453125 
L 90.234375 4.296875 
z
M 19.53125 56.640625 
L 19.53125 68.359375 
Q 19.53125 74.609375 19.140625 79.6875 
L 27.734375 79.6875 
Q 27.34375 73.828125 27.34375 68.359375 
L 27.34375 56.640625 
L 29.6875 56.640625 
Q 34.375 56.640625 39.453125 57.03125 
L 39.453125 49.21875 
Q 34.375 49.609375 29.6875 49.609375 
L 27.34375 49.609375 
L 27.34375 17.1875 
L 39.0625 21.484375 
Q 38.671875 17.578125 39.453125 14.0625 
Q 19.140625 7.421875 15.03125 5.65625 
Q 10.9375 3.90625 7.421875 2.34375 
Q 5.859375 7.421875 3.90625 11.71875 
Q 8.984375 12.5 12.5 13.28125 
Q 16.015625 14.0625 19.53125 15.234375 
L 19.53125 49.609375 
L 17.578125 49.609375 
Q 13.28125 49.609375 6.25 49.21875 
L 6.25 57.03125 
Q 13.28125 56.640625 17.1875 56.640625 
z
M 77.34375 25.390625 
Q 73.046875 22.265625 64.640625 16.40625 
Q 56.25 10.546875 49.609375 4.6875 
Q 46.875 8.984375 44.53125 12.109375 
Q 52.34375 16.40625 58.78125 20.703125 
Q 65.234375 25 74.609375 32.421875 
Q 75.390625 28.90625 77.34375 25.390625 
z
M 58.984375 49.21875 
Q 64.453125 43.75 69.921875 35.9375 
Q 66.40625 33.203125 64.0625 30.859375 
Q 60.9375 36.328125 53.90625 44.140625 
Q 56.25 46.875 58.984375 49.21875 
z
" id="SimHei-22343"/>
      <path d="M 83.984375 76.5625 
Q 83.59375 65.234375 83.59375 55.078125 
L 83.59375 9.375 
Q 83.59375 3.515625 83.984375 -8.59375 
L 75.390625 -8.59375 
L 75.390625 -1.5625 
L 24.609375 -1.5625 
L 24.609375 -8.203125 
L 16.40625 -8.203125 
Q 16.796875 2.34375 16.796875 8.59375 
L 16.796875 55.078125 
Q 16.796875 67.96875 16.40625 76.5625 
L 83.984375 76.5625 
z
M 75.390625 4.6875 
L 75.390625 23.046875 
L 24.609375 23.046875 
L 24.609375 4.6875 
z
M 75.390625 29.296875 
L 75.390625 46.875 
L 24.609375 46.875 
L 24.609375 29.296875 
z
M 75.390625 53.125 
L 75.390625 70.3125 
L 24.609375 70.3125 
L 24.609375 53.125 
z
" id="SimHei-30446"/>
      <path d="M 19.921875 68.75 
Q 19.921875 75 19.53125 80.859375 
L 27.34375 80.859375 
Q 26.953125 75.390625 26.953125 68.75 
L 26.953125 59.375 
Q 33.203125 59.375 40.234375 59.765625 
L 40.234375 52.34375 
Q 33.203125 52.734375 26.953125 52.734375 
L 26.953125 39.453125 
Q 29.6875 41.40625 32.421875 43.75 
Q 37.5 35.546875 41.40625 27.734375 
Q 37.109375 25.78125 33.984375 23.4375 
Q 31.640625 31.25 26.953125 37.890625 
L 26.953125 7.421875 
Q 26.953125 -0.78125 27.34375 -8.984375 
L 19.53125 -8.984375 
Q 19.921875 -0.390625 19.921875 7.421875 
L 19.921875 32.8125 
Q 16.015625 21.875 7.8125 11.71875 
Q 5.46875 14.84375 1.953125 17.578125 
Q 8.59375 24.21875 12.6875 34.171875 
Q 16.796875 44.140625 17.96875 52.734375 
Q 10.546875 52.734375 5.078125 51.953125 
L 5.078125 59.765625 
Q 12.5 59.375 19.921875 59.375 
z
M 80.859375 48.828125 
Q 88.671875 48.828125 94.53125 49.21875 
L 94.53125 41.796875 
Q 88.671875 42.1875 82.421875 42.1875 
L 70.3125 42.1875 
L 70.3125 2.734375 
Q 70.3125 -3.515625 66.796875 -5.46875 
Q 63.28125 -7.421875 54.296875 -8.59375 
Q 53.515625 -3.90625 51.171875 0.390625 
Q 58.984375 0.390625 60.9375 0.96875 
Q 62.890625 1.5625 62.890625 5.46875 
L 62.890625 42.1875 
L 53.125 42.1875 
Q 43.359375 42.1875 39.0625 41.40625 
L 39.0625 49.21875 
Q 44.140625 48.828125 53.125 48.828125 
z
M 76.5625 74.609375 
Q 84.765625 74.609375 89.84375 75 
L 89.84375 67.1875 
Q 82.421875 67.96875 74.21875 67.96875 
L 55.078125 67.96875 
Q 48.828125 67.96875 42.96875 67.1875 
L 42.96875 75 
Q 48.4375 74.609375 55.078125 74.609375 
z
M 82.421875 31.640625 
Q 91.015625 18.359375 96.875 7.8125 
Q 92.578125 5.859375 88.28125 3.125 
Q 83.984375 14.453125 75.390625 26.953125 
Q 79.296875 28.90625 82.421875 31.640625 
z
M 56.25 27.734375 
Q 54.6875 25.390625 50.390625 15.234375 
Q 46.09375 5.078125 43.75 0.78125 
Q 40.234375 2.734375 35.9375 4.296875 
Q 41.015625 12.109375 43.546875 18.546875 
Q 46.09375 25 47.65625 31.25 
Q 51.953125 29.296875 56.25 27.734375 
z
" id="SimHei-26631"/>
      <path d="M 18.75 3.125 
L 81.25 3.125 
L 81.25 34.765625 
Q 81.25 40.625 80.46875 48.046875 
L 89.0625 48.046875 
Q 88.671875 39.0625 88.671875 34.765625 
L 88.671875 0.78125 
Q 88.671875 -4.296875 89.0625 -9.765625 
L 81.25 -9.765625 
L 81.25 -3.515625 
L 10.9375 -3.515625 
Q 11.328125 0.78125 11.328125 21.484375 
Q 11.328125 42.1875 10.9375 48.046875 
L 19.140625 48.046875 
Q 18.75 43.75 18.75 38.671875 
z
M 85.15625 76.953125 
L 85.15625 69.53125 
Q 79.296875 67.578125 69.921875 63.078125 
Q 60.546875 58.59375 54.296875 55.859375 
L 54.296875 17.1875 
Q 54.296875 10.9375 50 9.171875 
Q 45.703125 7.421875 39.453125 6.25 
Q 38.671875 10.546875 36.71875 14.84375 
Q 42.96875 14.84375 45.109375 15.625 
Q 47.265625 16.40625 47.265625 21.484375 
L 47.265625 48.046875 
Q 47.265625 55.46875 46.484375 60.15625 
Q 50.390625 61.328125 57.8125 64.453125 
Q 65.234375 67.578125 70.3125 70.3125 
L 30.46875 70.3125 
Q 22.265625 70.3125 16.015625 69.921875 
L 16.015625 77.34375 
Q 23.828125 76.953125 30.46875 76.953125 
z
M 70.3125 27.34375 
Q 73.4375 24.609375 78.125 19.921875 
Q 75.390625 17.578125 72.65625 14.0625 
Q 68.75 18.359375 65.625 21.484375 
Q 62.5 24.609375 56.25 30.078125 
Q 58.984375 32.8125 60.9375 35.546875 
z
M 42.1875 28.125 
Q 39.453125 26.171875 34.953125 23.234375 
Q 30.46875 20.3125 25 15.625 
Q 23.828125 18.359375 20.703125 22.265625 
Q 23.4375 23.4375 29.484375 27.140625 
Q 35.546875 30.859375 39.84375 34.765625 
Q 40.625 31.640625 42.1875 28.125 
z
M 77.734375 49.609375 
Q 75 48.4375 71.28125 45.5 
Q 67.578125 42.578125 62.5 38.671875 
Q 60.546875 42.1875 58.59375 44.53125 
Q 62.890625 47.65625 65.625 50 
Q 68.359375 52.34375 71.875 55.859375 
Q 74.609375 52.734375 77.734375 49.609375 
z
M 36.71875 39.84375 
Q 34.375 42.96875 31.25 45.890625 
Q 28.125 48.828125 23.046875 52.34375 
Q 25.78125 55.078125 27.34375 57.8125 
Q 31.640625 54.6875 41.40625 46.09375 
Q 38.671875 42.578125 36.71875 39.84375 
z
" id="SimHei-20989"/>
      <path d="M 70.703125 76.953125 
Q 69.921875 75 68.75 71.671875 
Q 67.578125 68.359375 65.234375 59.765625 
L 83.203125 59.765625 
Q 87.109375 59.765625 92.578125 60.15625 
L 92.578125 53.125 
Q 88.28125 53.515625 85.9375 53.515625 
Q 85.9375 47.265625 83.78125 33.78125 
Q 81.640625 20.3125 76.171875 10.546875 
Q 80.078125 5.859375 84.953125 2.140625 
Q 89.84375 -1.5625 94.140625 -3.125 
Q 89.453125 -6.640625 87.890625 -9.765625 
Q 83.203125 -7.03125 79.296875 -3.515625 
Q 75.390625 0 71.484375 5.078125 
Q 67.1875 0.390625 62.296875 -2.921875 
Q 57.421875 -6.25 50 -10.15625 
Q 48.046875 -6.640625 44.53125 -4.6875 
Q 50.390625 -2.34375 57.03125 1.953125 
Q 63.671875 6.25 67.1875 10.546875 
Q 64.453125 16.015625 61.90625 22.265625 
Q 59.375 28.515625 57.421875 38.671875 
Q 56.25 35.546875 53.515625 30.46875 
Q 50.78125 32.03125 46.875 33.59375 
Q 53.125 44.53125 57.03125 57.421875 
Q 60.9375 70.3125 62.109375 79.6875 
Q 66.796875 77.734375 70.703125 76.953125 
z
M 32.8125 35.15625 
Q 31.25 33.59375 29.296875 30.078125 
L 50.78125 30.078125 
Q 48.4375 20.3125 42.578125 10.546875 
Q 48.828125 8.203125 52.34375 6.25 
Q 50.390625 3.515625 48.828125 0.390625 
Q 45.3125 2.734375 38.28125 5.078125 
Q 30.46875 -3.515625 11.328125 -10.15625 
Q 9.375 -5.859375 6.25 -4.296875 
Q 24.609375 0 31.25 7.421875 
Q 20.3125 10.15625 13.28125 12.109375 
Q 15.625 15.625 19.53125 23.828125 
Q 15.625 23.828125 6.640625 23.4375 
L 6.640625 30.46875 
Q 14.0625 30.078125 21.875 30.078125 
Q 23.4375 33.59375 24.21875 37.890625 
Q 28.515625 36.328125 32.8125 35.15625 
z
M 27.734375 61.71875 
Q 27.734375 71.09375 27.34375 79.6875 
L 35.15625 79.6875 
Q 34.765625 71.484375 34.765625 61.71875 
Q 48.046875 61.71875 53.515625 62.109375 
L 53.515625 55.078125 
Q 48.046875 55.46875 34.765625 55.46875 
Q 34.765625 44.140625 35.15625 37.890625 
L 27.34375 37.890625 
Q 27.734375 43.359375 27.734375 51.5625 
Q 25.78125 48.4375 20.3125 43.546875 
Q 14.84375 38.671875 10.15625 35.9375 
Q 8.203125 39.453125 4.296875 41.015625 
Q 7.8125 42.1875 13.671875 46.484375 
Q 19.53125 50.78125 22.65625 55.46875 
Q 14.84375 55.46875 7.8125 55.078125 
L 7.8125 62.109375 
Q 14.453125 61.71875 27.734375 61.71875 
z
M 62.109375 49.609375 
Q 65.625 26.5625 71.875 17.578125 
Q 75.78125 26.5625 77.140625 35.734375 
Q 78.515625 44.921875 78.90625 53.515625 
L 63.671875 53.515625 
L 62.109375 49.609375 
z
M 22.65625 15.625 
Q 27.34375 14.453125 35.546875 12.5 
Q 38.671875 16.40625 41.40625 23.828125 
L 26.953125 23.828125 
Q 25 19.921875 22.65625 15.625 
z
M 51.953125 75.390625 
Q 50 72.265625 48.828125 69.53125 
Q 47.65625 66.796875 45.703125 62.890625 
Q 42.578125 64.453125 39.453125 65.234375 
Q 42.578125 70.3125 45.3125 78.125 
Q 49.21875 76.171875 51.953125 75.390625 
z
M 40.234375 52.734375 
Q 45.3125 47.65625 50 42.578125 
Q 47.65625 40.625 44.921875 37.890625 
Q 39.453125 44.53125 35.9375 48.4375 
Q 38.28125 50.390625 40.234375 52.734375 
z
M 14.453125 78.125 
Q 19.921875 72.65625 23.4375 67.1875 
L 17.578125 63.671875 
Q 14.84375 69.140625 9.375 73.828125 
Q 12.890625 76.171875 14.453125 78.125 
z
" id="SimHei-25968"/>
      <path d="M 57.421875 69.53125 
L 57.421875 79.6875 
Q 62.109375 79.296875 67.96875 78.90625 
Q 66.015625 76.171875 65.625 69.53125 
L 80.078125 69.53125 
Q 86.71875 69.53125 91.796875 69.921875 
L 91.796875 62.890625 
Q 86.328125 63.28125 80.078125 63.28125 
L 65.234375 63.28125 
L 64.453125 54.6875 
L 84.375 54.6875 
Q 83.984375 50 83.984375 42.1875 
L 83.984375 2.34375 
Q 91.796875 2.34375 95.3125 2.734375 
L 95.3125 -4.296875 
Q 90.234375 -3.90625 81.25 -3.90625 
L 44.53125 -3.90625 
Q 35.546875 -3.90625 29.6875 -4.296875 
L 29.6875 2.734375 
Q 33.203125 2.34375 40.625 2.34375 
L 40.625 42.1875 
Q 40.625 49.609375 40.234375 54.6875 
L 56.25 54.6875 
L 57.03125 63.28125 
L 50 63.28125 
Q 40.234375 63.28125 34.765625 62.890625 
L 34.765625 69.921875 
Q 39.84375 69.53125 50 69.53125 
z
M 34.765625 76.5625 
Q 31.640625 73.046875 25.78125 58.59375 
L 25.78125 7.03125 
Q 25.78125 -1.171875 26.171875 -8.59375 
L 17.96875 -8.59375 
Q 18.359375 -1.953125 18.359375 5.859375 
L 18.359375 46.09375 
Q 13.671875 38.28125 9.765625 33.59375 
Q 6.640625 37.890625 3.90625 40.234375 
Q 7.8125 44.140625 14.640625 55.265625 
Q 21.484375 66.40625 25.390625 80.46875 
Q 30.859375 77.734375 34.765625 76.5625 
z
M 76.953125 41.40625 
L 76.953125 49.21875 
L 48.046875 49.21875 
L 48.046875 41.40625 
z
M 76.953125 2.34375 
L 76.953125 9.765625 
L 48.046875 9.765625 
L 48.046875 2.34375 
z
M 76.953125 15.625 
L 76.953125 22.65625 
L 48.046875 22.65625 
L 48.046875 15.625 
z
M 76.953125 28.515625 
L 76.953125 35.546875 
L 48.046875 35.546875 
L 48.046875 28.515625 
z
" id="SimHei-20540"/>
     </defs>
     <g transform="translate(272.125 24.285937)scale(0.1 -0.1)">
      <use xlink:href="#SimHei-31181"/>
      <use x="100" xlink:href="#SimHei-32676"/>
      <use x="200" xlink:href="#SimHei-20010"/>
      <use x="300" xlink:href="#SimHei-20307"/>
      <use x="400" xlink:href="#SimHei-24179"/>
      <use x="500" xlink:href="#SimHei-22343"/>
      <use x="600" xlink:href="#SimHei-30446"/>
      <use x="700" xlink:href="#SimHei-26631"/>
      <use x="800" xlink:href="#SimHei-20989"/>
      <use x="900" xlink:href="#SimHei-25968"/>
      <use x="1000" xlink:href="#SimHei-20540"/>
     </g>
    </g>
    <g id="line2d_20">
     <path d="M 244.125 35.121875 
L 264.125 35.121875 
" style="fill:none;stroke:#ff7f0e;stroke-linecap:square;stroke-width:1.5;"/>
    </g>
    <g id="line2d_21"/>
    <g id="text_19">
     <!-- 种群最优个体目标函数值 -->
     <defs>
      <path d="M 7.421875 4.296875 
Q 10.546875 4.6875 17.1875 5.46875 
L 17.1875 38.28125 
Q 12.109375 38.28125 6.640625 37.890625 
L 6.640625 44.53125 
Q 12.109375 44.140625 17.578125 44.140625 
L 78.515625 44.140625 
Q 85.546875 44.140625 92.1875 44.53125 
L 92.1875 37.890625 
Q 85.546875 38.28125 78.515625 38.28125 
L 47.65625 38.28125 
L 47.65625 10.546875 
L 53.125 12.109375 
Q 53.125 8.59375 53.515625 6.25 
Q 50.390625 5.46875 47.65625 5.078125 
Q 47.65625 -1.953125 48.046875 -8.59375 
L 40.625 -8.59375 
Q 41.015625 -1.953125 41.015625 3.90625 
Q 36.71875 3.125 28.3125 1.359375 
Q 19.921875 -0.390625 10.15625 -2.734375 
Q 8.984375 1.5625 7.421875 4.296875 
z
M 79.6875 76.953125 
Q 79.296875 71.875 79.296875 67.578125 
L 79.296875 60.546875 
Q 79.296875 56.25 79.6875 50.78125 
L 19.921875 50.78125 
Q 20.3125 56.25 20.3125 60.546875 
L 20.3125 67.578125 
Q 20.3125 71.875 19.921875 76.953125 
L 79.6875 76.953125 
z
M 51.5625 32.03125 
Q 58.59375 31.640625 64.453125 31.640625 
L 83.984375 31.640625 
Q 79.6875 15.234375 73.828125 6.25 
Q 83.59375 0 92.578125 -1.5625 
Q 89.0625 -4.296875 88.28125 -7.8125 
Q 78.515625 -4.6875 69.921875 2.34375 
Q 64.84375 -3.125 56.25 -8.984375 
Q 54.6875 -6.640625 50.78125 -4.296875 
Q 58.984375 -1.5625 64.84375 5.46875 
Q 58.203125 12.109375 54.6875 26.171875 
L 51.5625 26.171875 
z
M 71.875 66.40625 
L 71.875 71.875 
L 27.34375 71.875 
L 27.34375 66.40625 
z
M 71.875 55.859375 
L 71.875 60.9375 
L 27.34375 60.9375 
L 27.34375 55.859375 
z
M 60.9375 26.171875 
Q 62.5 16.796875 68.75 9.765625 
Q 73.4375 16.40625 75.78125 26.171875 
L 60.9375 26.171875 
z
M 41.015625 19.53125 
L 41.015625 26.171875 
L 23.828125 26.171875 
L 23.828125 19.53125 
z
M 41.015625 8.984375 
L 41.015625 14.453125 
L 23.828125 14.453125 
L 23.828125 6.640625 
z
M 41.015625 31.640625 
L 41.015625 38.28125 
L 23.828125 38.28125 
L 23.828125 31.640625 
z
" id="SimHei-26368"/>
      <path d="M 72.65625 5.46875 
Q 72.265625 1.5625 75.390625 0.78125 
Q 78.515625 0 81.25 0.1875 
Q 83.984375 0.390625 85.34375 1.953125 
Q 86.71875 3.515625 88.28125 12.5 
Q 91.015625 9.765625 96.875 8.203125 
Q 94.53125 -0.390625 92.375 -3.125 
Q 90.234375 -5.859375 85.546875 -6.25 
L 73.4375 -6.25 
Q 65.234375 -6.25 65.234375 3.125 
L 65.234375 47.65625 
L 60.15625 47.65625 
Q 58.203125 9.375 37.109375 -8.59375 
Q 34.375 -5.078125 29.296875 -3.515625 
Q 49.609375 10.546875 52.34375 47.65625 
L 45.3125 47.65625 
Q 36.71875 47.65625 30.859375 47.265625 
L 30.859375 54.296875 
Q 36.71875 53.90625 45.3125 53.90625 
L 52.734375 53.90625 
Q 52.734375 73.4375 52.34375 80.46875 
Q 55.078125 79.6875 61.328125 79.296875 
Q 60.15625 73.4375 60.15625 53.90625 
L 81.25 53.90625 
Q 85.546875 53.90625 92.578125 54.296875 
L 92.578125 47.265625 
Q 85.9375 47.65625 81.640625 47.65625 
L 72.65625 47.65625 
L 72.65625 5.46875 
z
M 3.125 37.109375 
Q 8.203125 42.1875 15.625 56.4375 
Q 23.046875 70.703125 25 81.25 
Q 28.90625 78.90625 34.765625 76.953125 
Q 31.25 73.4375 26.5625 59.765625 
L 26.5625 9.375 
Q 26.5625 -2.34375 26.953125 -8.203125 
L 18.75 -8.203125 
Q 19.140625 -2.734375 19.140625 8.984375 
L 19.140625 46.484375 
Q 14.0625 37.890625 8.59375 30.859375 
Q 6.640625 34.375 3.125 37.109375 
z
M 75.78125 78.515625 
Q 78.125 75 80.46875 71.671875 
Q 82.8125 68.359375 85.15625 65.625 
Q 82.03125 63.671875 78.515625 60.546875 
Q 76.171875 65.234375 69.53125 73.828125 
Q 72.265625 75.78125 75.78125 78.515625 
z
" id="SimHei-20248"/>
     </defs>
     <g transform="translate(272.125 38.621875)scale(0.1 -0.1)">
      <use xlink:href="#SimHei-31181"/>
      <use x="100" xlink:href="#SimHei-32676"/>
      <use x="200" xlink:href="#SimHei-26368"/>
      <use x="300" xlink:href="#SimHei-20248"/>
      <use x="400" xlink:href="#SimHei-20010"/>
      <use x="500" xlink:href="#SimHei-20307"/>
      <use x="600" xlink:href="#SimHei-30446"/>
      <use x="700" xlink:href="#SimHei-26631"/>
      <use x="800" xlink:href="#SimHei-20989"/>
      <use x="900" xlink:href="#SimHei-25968"/>
      <use x="1000" xlink:href="#SimHei-20540"/>
     </g>
    </g>
   </g>
  </g>
 </g>
 <defs>
  <clipPath id="p9b1d7bbc90">
   <rect height="217.44" width="334.8" x="56.325" y="7.2"/>
  </clipPath>
 </defs>
</svg>
