<?xml version="1.0" encoding="utf-8" standalone="no"?>
<!DOCTYPE svg PUBLIC "-//W3C//DTD SVG 1.1//EN"
        "http://www.w3.org/Graphics/SVG/1.1/DTD/svg11.dtd">
<!-- Created with matplotlib (https://matplotlib.org/) -->
<svg height="259.09pt" version="1.1" viewBox="0 0 383.325 259.09" width="383.325pt" xmlns="http://www.w3.org/2000/svg"
     xmlns:xlink="http://www.w3.org/1999/xlink">
    <defs>
        <style type="text/css">
            *{stroke-linecap:butt;stroke-linejoin:round;}
        </style>
    </defs>
    <g id="figure_1">
        <g id="patch_1">
            <path d="M 0 259.09
L 383.325 259.09 
L 383.325 0 
L 0 0 
z
" style="fill:#ffffff;"/>
        </g>
        <g id="axes_1">
            <g id="patch_2">
                <path d="M 41.325 224.64
L 376.125 224.64 
L 376.125 7.2 
L 41.325 7.2 
z
" style="fill:#ffffff;"/>
            </g>
            <g id="matplotlib.axis_1">
                <g id="xtick_1">
                    <g id="line2d_1">
                        <path clip-path="url(#p80aa5c7eca)" d="M 56.543182 224.64
L 56.543182 7.2 
" style="fill:none;stroke:#b0b0b0;stroke-linecap:square;stroke-width:0.8;"/>
                    </g>
                    <g id="line2d_2">
                        <defs>
                            <path d="M 0 0
L 0 3.5 
" id="m9dd1b8711a" style="stroke:#000000;stroke-width:0.8;"/>
                        </defs>
                        <g>
                            <use style="stroke:#000000;stroke-width:0.8;" x="56.543182" xlink:href="#m9dd1b8711a"
                                 y="224.64"/>
                        </g>
                    </g>
                    <g id="text_1">
                        <!-- 0.0 -->
                        <defs>
                            <path d="M 3.125 29.296875
Q 3.90625 50 6.4375 56.046875 
Q 8.984375 62.109375 13.671875 66.015625 
Q 18.359375 69.921875 25.1875 69.921875 
Q 32.03125 69.921875 37.109375 64.25 
Q 42.1875 58.59375 43.75 50 
Q 45.3125 41.40625 44.71875 30.265625 
Q 44.140625 19.140625 40.8125 12.109375 
Q 37.5 5.078125 30.859375 2.34375 
Q 24.21875 -0.390625 17.578125 2.921875 
Q 10.9375 6.25 8.203125 11.71875 
Q 5.46875 17.1875 4.296875 23.234375 
Q 3.125 29.296875 3.90625 50 
z
M 12.890625 52.734375 
Q 10.546875 31.25 12.5 22.84375 
Q 14.453125 14.453125 18.9375 10.9375 
Q 23.4375 7.421875 28.125 9.5625 
Q 32.8125 11.71875 34.953125 18.15625 
Q 37.109375 24.609375 37.109375 32.21875 
Q 37.109375 39.84375 36.515625 46.09375 
Q 35.9375 52.34375 33 57.421875 
Q 30.078125 62.5 25.1875 62.6875 
Q 20.3125 62.890625 16.59375 57.8125 
Q 12.890625 52.734375 10.546875 31.25 
z
" id="SimHei-48"/>
                            <path d="M 16.796875 1.953125
L 7.8125 1.953125 
L 7.8125 10.546875 
L 16.796875 10.546875 
z
" id="SimHei-46"/>
                        </defs>
                        <g transform="translate(49.043182 238.515)scale(0.1 -0.1)">
                            <use xlink:href="#SimHei-48"/>
                            <use x="50" xlink:href="#SimHei-46"/>
                            <use x="100" xlink:href="#SimHei-48"/>
                        </g>
                    </g>
                </g>
                <g id="xtick_2">
                    <g id="line2d_3">
                        <path clip-path="url(#p80aa5c7eca)" d="M 94.577176 224.64
L 94.577176 7.2 
" style="fill:none;stroke:#b0b0b0;stroke-linecap:square;stroke-width:0.8;"/>
                    </g>
                    <g id="line2d_4">
                        <g>
                            <use style="stroke:#000000;stroke-width:0.8;" x="94.577176" xlink:href="#m9dd1b8711a"
                                 y="224.64"/>
                        </g>
                    </g>
                    <g id="text_2">
                        <!-- 0.5 -->
                        <defs>
                            <path d="M 8.59375 20.703125
Q 11.328125 10.15625 17.96875 8.984375 
Q 24.609375 7.8125 28.703125 10.34375 
Q 32.8125 12.890625 34.5625 16.984375 
Q 36.328125 21.09375 36.125 26.171875 
Q 35.9375 31.25 33.390625 34.765625 
Q 30.859375 38.28125 26.953125 39.453125 
Q 23.046875 40.625 18.15625 39.453125 
Q 13.28125 38.28125 10.15625 33.984375 
L 3.515625 34.765625 
Q 4.296875 37.109375 10.9375 68.359375 
L 41.796875 68.359375 
L 41.796875 61.328125 
L 16.796875 61.328125 
Q 14.84375 50.78125 12.890625 44.53125 
Q 18.75 47.265625 23.828125 47.0625 
Q 28.90625 46.875 33.59375 44.71875 
Q 38.28125 42.578125 40.421875 38.859375 
Q 42.578125 35.15625 43.546875 31.4375 
Q 44.53125 27.734375 44.328125 23.4375 
Q 44.140625 19.140625 42.578125 14.640625 
Q 41.015625 10.15625 37.890625 7.21875 
Q 34.765625 4.296875 30.265625 2.53125 
Q 25.78125 0.78125 19.921875 1.171875 
Q 14.0625 1.5625 8.78125 5.46875 
Q 3.515625 9.375 1.5625 18.75 
z
" id="SimHei-53"/>
                        </defs>
                        <g transform="translate(87.077176 238.515)scale(0.1 -0.1)">
                            <use xlink:href="#SimHei-48"/>
                            <use x="50" xlink:href="#SimHei-46"/>
                            <use x="100" xlink:href="#SimHei-53"/>
                        </g>
                    </g>
                </g>
                <g id="xtick_3">
                    <g id="line2d_5">
                        <path clip-path="url(#p80aa5c7eca)" d="M 132.611171 224.64
L 132.611171 7.2 
" style="fill:none;stroke:#b0b0b0;stroke-linecap:square;stroke-width:0.8;"/>
                    </g>
                    <g id="line2d_6">
                        <g>
                            <use style="stroke:#000000;stroke-width:0.8;" x="132.611171" xlink:href="#m9dd1b8711a"
                                 y="224.64"/>
                        </g>
                    </g>
                    <g id="text_3">
                        <!-- 1.0 -->
                        <defs>
                            <path d="M 21.875 56.25
Q 16.796875 51.171875 8.984375 46.484375 
L 8.984375 53.90625 
Q 18.75 60.546875 25 69.53125 
L 29.6875 69.53125 
L 29.6875 2.34375 
L 21.875 2.34375 
z
" id="SimHei-49"/>
                        </defs>
                        <g transform="translate(125.111171 238.515)scale(0.1 -0.1)">
                            <use xlink:href="#SimHei-49"/>
                            <use x="50" xlink:href="#SimHei-46"/>
                            <use x="100" xlink:href="#SimHei-48"/>
                        </g>
                    </g>
                </g>
                <g id="xtick_4">
                    <g id="line2d_7">
                        <path clip-path="url(#p80aa5c7eca)" d="M 170.645166 224.64
L 170.645166 7.2 
" style="fill:none;stroke:#b0b0b0;stroke-linecap:square;stroke-width:0.8;"/>
                    </g>
                    <g id="line2d_8">
                        <g>
                            <use style="stroke:#000000;stroke-width:0.8;" x="170.645166" xlink:href="#m9dd1b8711a"
                                 y="224.64"/>
                        </g>
                    </g>
                    <g id="text_4">
                        <!-- 1.5 -->
                        <g transform="translate(163.145166 238.515)scale(0.1 -0.1)">
                            <use xlink:href="#SimHei-49"/>
                            <use x="50" xlink:href="#SimHei-46"/>
                            <use x="100" xlink:href="#SimHei-53"/>
                        </g>
                    </g>
                </g>
                <g id="xtick_5">
                    <g id="line2d_9">
                        <path clip-path="url(#p80aa5c7eca)" d="M 208.67916 224.64
L 208.67916 7.2 
" style="fill:none;stroke:#b0b0b0;stroke-linecap:square;stroke-width:0.8;"/>
                    </g>
                    <g id="line2d_10">
                        <g>
                            <use style="stroke:#000000;stroke-width:0.8;" x="208.67916" xlink:href="#m9dd1b8711a"
                                 y="224.64"/>
                        </g>
                    </g>
                    <g id="text_5">
                        <!-- 2.0 -->
                        <defs>
                            <path d="M 4.6875 3.90625
Q 5.078125 9.765625 10.15625 14.453125 
Q 15.234375 19.140625 23.046875 29.09375 
Q 30.859375 39.0625 33.203125 44.53125 
Q 35.546875 50 34.953125 53.90625 
Q 34.375 57.8125 31.25 60.34375 
Q 28.125 62.890625 24.015625 62.5 
Q 19.921875 62.109375 16.203125 59.375 
Q 12.5 56.640625 10.546875 51.171875 
L 3.125 52.34375 
Q 6.25 61.328125 11.125 65.421875 
Q 16.015625 69.53125 22.65625 69.921875 
Q 26.5625 70.3125 29.6875 69.71875 
Q 32.8125 69.140625 36.125 66.984375 
Q 39.453125 64.84375 41.59375 60.546875 
Q 43.75 56.25 43.15625 50.1875 
Q 42.578125 44.140625 37.109375 35.734375 
Q 31.640625 27.34375 16.015625 9.375 
L 44.140625 9.375 
L 44.140625 2.34375 
L 4.6875 2.34375 
z
" id="SimHei-50"/>
                        </defs>
                        <g transform="translate(201.17916 238.515)scale(0.1 -0.1)">
                            <use xlink:href="#SimHei-50"/>
                            <use x="50" xlink:href="#SimHei-46"/>
                            <use x="100" xlink:href="#SimHei-48"/>
                        </g>
                    </g>
                </g>
                <g id="xtick_6">
                    <g id="line2d_11">
                        <path clip-path="url(#p80aa5c7eca)" d="M 246.713155 224.64
L 246.713155 7.2 
" style="fill:none;stroke:#b0b0b0;stroke-linecap:square;stroke-width:0.8;"/>
                    </g>
                    <g id="line2d_12">
                        <g>
                            <use style="stroke:#000000;stroke-width:0.8;" x="246.713155" xlink:href="#m9dd1b8711a"
                                 y="224.64"/>
                        </g>
                    </g>
                    <g id="text_6">
                        <!-- 2.5 -->
                        <g transform="translate(239.213155 238.515)scale(0.1 -0.1)">
                            <use xlink:href="#SimHei-50"/>
                            <use x="50" xlink:href="#SimHei-46"/>
                            <use x="100" xlink:href="#SimHei-53"/>
                        </g>
                    </g>
                </g>
                <g id="xtick_7">
                    <g id="line2d_13">
                        <path clip-path="url(#p80aa5c7eca)" d="M 284.747149 224.64
L 284.747149 7.2 
" style="fill:none;stroke:#b0b0b0;stroke-linecap:square;stroke-width:0.8;"/>
                    </g>
                    <g id="line2d_14">
                        <g>
                            <use style="stroke:#000000;stroke-width:0.8;" x="284.747149" xlink:href="#m9dd1b8711a"
                                 y="224.64"/>
                        </g>
                    </g>
                    <g id="text_7">
                        <!-- 3.0 -->
                        <defs>
                            <path d="M 3.90625 19.140625
L 10.9375 20.3125 
Q 12.5 15.234375 16.015625 11.90625 
Q 19.53125 8.59375 24.796875 8.78125 
Q 30.078125 8.984375 33.203125 13.078125 
Q 36.328125 17.1875 35.9375 22.453125 
Q 35.546875 27.734375 31.828125 30.65625 
Q 28.125 33.59375 19.921875 34.765625 
L 19.921875 39.84375 
Q 28.125 40.625 31.828125 44.140625 
Q 35.546875 47.65625 35.15625 53.3125 
Q 34.765625 58.984375 30.078125 61.515625 
Q 25.390625 64.0625 20.109375 62.109375 
Q 14.84375 60.15625 11.71875 51.171875 
L 4.6875 52.34375 
Q 7.03125 59.375 11.125 64.0625 
Q 15.234375 68.75 22.265625 69.53125 
Q 29.296875 70.3125 34.5625 67.765625 
Q 39.84375 65.234375 41.984375 59.953125 
Q 44.140625 54.6875 42.578125 48.4375 
Q 41.015625 42.1875 33.59375 37.5 
Q 39.0625 35.15625 41.984375 30.46875 
Q 44.921875 25.78125 43.9375 18.15625 
Q 42.96875 10.546875 37.109375 5.859375 
Q 31.25 1.171875 23.828125 1.359375 
Q 16.40625 1.5625 10.9375 6.046875 
Q 5.46875 10.546875 3.90625 19.140625 
z
" id="SimHei-51"/>
                        </defs>
                        <g transform="translate(277.247149 238.515)scale(0.1 -0.1)">
                            <use xlink:href="#SimHei-51"/>
                            <use x="50" xlink:href="#SimHei-46"/>
                            <use x="100" xlink:href="#SimHei-48"/>
                        </g>
                    </g>
                </g>
                <g id="xtick_8">
                    <g id="line2d_15">
                        <path clip-path="url(#p80aa5c7eca)" d="M 322.781144 224.64
L 322.781144 7.2 
" style="fill:none;stroke:#b0b0b0;stroke-linecap:square;stroke-width:0.8;"/>
                    </g>
                    <g id="line2d_16">
                        <g>
                            <use style="stroke:#000000;stroke-width:0.8;" x="322.781144" xlink:href="#m9dd1b8711a"
                                 y="224.64"/>
                        </g>
                    </g>
                    <g id="text_8">
                        <!-- 3.5 -->
                        <g transform="translate(315.281144 238.515)scale(0.1 -0.1)">
                            <use xlink:href="#SimHei-51"/>
                            <use x="50" xlink:href="#SimHei-46"/>
                            <use x="100" xlink:href="#SimHei-53"/>
                        </g>
                    </g>
                </g>
                <g id="xtick_9">
                    <g id="line2d_17">
                        <path clip-path="url(#p80aa5c7eca)" d="M 360.815139 224.64
L 360.815139 7.2 
" style="fill:none;stroke:#b0b0b0;stroke-linecap:square;stroke-width:0.8;"/>
                    </g>
                    <g id="line2d_18">
                        <g>
                            <use style="stroke:#000000;stroke-width:0.8;" x="360.815139" xlink:href="#m9dd1b8711a"
                                 y="224.64"/>
                        </g>
                    </g>
                    <g id="text_9">
                        <!-- 4.0 -->
                        <defs>
                            <path d="M 31.25 17.1875
L 1.171875 17.1875 
L 1.171875 23.828125 
L 32.8125 69.53125 
L 38.671875 69.53125 
L 38.671875 23.828125 
L 48.046875 23.828125 
L 48.046875 17.1875 
L 38.671875 17.1875 
L 38.671875 2.34375 
L 31.25 2.34375 
z
M 31.25 23.828125 
L 31.25 54.6875 
L 9.375 23.828125 
z
" id="SimHei-52"/>
                        </defs>
                        <g transform="translate(353.315139 238.515)scale(0.1 -0.1)">
                            <use xlink:href="#SimHei-52"/>
                            <use x="50" xlink:href="#SimHei-46"/>
                            <use x="100" xlink:href="#SimHei-48"/>
                        </g>
                    </g>
                </g>
                <g id="text_10">
                    <!-- F1 -->
                    <defs>
                        <path d="M 45.703125 61.328125
L 13.671875 61.328125 
L 13.671875 39.453125 
L 37.890625 39.453125 
L 37.890625 32.03125 
L 13.671875 32.03125 
L 13.671875 1.953125 
L 4.6875 1.953125 
L 4.6875 68.75 
L 45.703125 68.75 
z
" id="SimHei-70"/>
                    </defs>
                    <g transform="translate(203.725 250.64)scale(0.1 -0.1)">
                        <use xlink:href="#SimHei-70"/>
                        <use x="50" xlink:href="#SimHei-49"/>
                    </g>
                </g>
            </g>
            <g id="matplotlib.axis_2">
                <g id="ytick_1">
                    <g id="line2d_19">
                        <path clip-path="url(#p80aa5c7eca)" d="M 41.325 214.756368
L 376.125 214.756368 
" style="fill:none;stroke:#b0b0b0;stroke-linecap:square;stroke-width:0.8;"/>
                    </g>
                    <g id="line2d_20">
                        <defs>
                            <path d="M 0 0
L -3.5 0 
" id="m3f96aec2f8" style="stroke:#000000;stroke-width:0.8;"/>
                        </defs>
                        <g>
                            <use style="stroke:#000000;stroke-width:0.8;" x="41.325" xlink:href="#m3f96aec2f8"
                                 y="214.756368"/>
                        </g>
                    </g>
                    <g id="text_11">
                        <!-- 0.0 -->
                        <g transform="translate(19.325 218.193868)scale(0.1 -0.1)">
                            <use xlink:href="#SimHei-48"/>
                            <use x="50" xlink:href="#SimHei-46"/>
                            <use x="100" xlink:href="#SimHei-48"/>
                        </g>
                    </g>
                </g>
                <g id="ytick_2">
                    <g id="line2d_21">
                        <path clip-path="url(#p80aa5c7eca)" d="M 41.325 190.047316
L 376.125 190.047316 
" style="fill:none;stroke:#b0b0b0;stroke-linecap:square;stroke-width:0.8;"/>
                    </g>
                    <g id="line2d_22">
                        <g>
                            <use style="stroke:#000000;stroke-width:0.8;" x="41.325" xlink:href="#m3f96aec2f8"
                                 y="190.047316"/>
                        </g>
                    </g>
                    <g id="text_12">
                        <!-- 0.5 -->
                        <g transform="translate(19.325 193.484816)scale(0.1 -0.1)">
                            <use xlink:href="#SimHei-48"/>
                            <use x="50" xlink:href="#SimHei-46"/>
                            <use x="100" xlink:href="#SimHei-53"/>
                        </g>
                    </g>
                </g>
                <g id="ytick_3">
                    <g id="line2d_23">
                        <path clip-path="url(#p80aa5c7eca)" d="M 41.325 165.338264
L 376.125 165.338264 
" style="fill:none;stroke:#b0b0b0;stroke-linecap:square;stroke-width:0.8;"/>
                    </g>
                    <g id="line2d_24">
                        <g>
                            <use style="stroke:#000000;stroke-width:0.8;" x="41.325" xlink:href="#m3f96aec2f8"
                                 y="165.338264"/>
                        </g>
                    </g>
                    <g id="text_13">
                        <!-- 1.0 -->
                        <g transform="translate(19.325 168.775764)scale(0.1 -0.1)">
                            <use xlink:href="#SimHei-49"/>
                            <use x="50" xlink:href="#SimHei-46"/>
                            <use x="100" xlink:href="#SimHei-48"/>
                        </g>
                    </g>
                </g>
                <g id="ytick_4">
                    <g id="line2d_25">
                        <path clip-path="url(#p80aa5c7eca)" d="M 41.325 140.629212
L 376.125 140.629212 
" style="fill:none;stroke:#b0b0b0;stroke-linecap:square;stroke-width:0.8;"/>
                    </g>
                    <g id="line2d_26">
                        <g>
                            <use style="stroke:#000000;stroke-width:0.8;" x="41.325" xlink:href="#m3f96aec2f8"
                                 y="140.629212"/>
                        </g>
                    </g>
                    <g id="text_14">
                        <!-- 1.5 -->
                        <g transform="translate(19.325 144.066712)scale(0.1 -0.1)">
                            <use xlink:href="#SimHei-49"/>
                            <use x="50" xlink:href="#SimHei-46"/>
                            <use x="100" xlink:href="#SimHei-53"/>
                        </g>
                    </g>
                </g>
                <g id="ytick_5">
                    <g id="line2d_27">
                        <path clip-path="url(#p80aa5c7eca)" d="M 41.325 115.92016
L 376.125 115.92016 
" style="fill:none;stroke:#b0b0b0;stroke-linecap:square;stroke-width:0.8;"/>
                    </g>
                    <g id="line2d_28">
                        <g>
                            <use style="stroke:#000000;stroke-width:0.8;" x="41.325" xlink:href="#m3f96aec2f8"
                                 y="115.92016"/>
                        </g>
                    </g>
                    <g id="text_15">
                        <!-- 2.0 -->
                        <g transform="translate(19.325 119.35766)scale(0.1 -0.1)">
                            <use xlink:href="#SimHei-50"/>
                            <use x="50" xlink:href="#SimHei-46"/>
                            <use x="100" xlink:href="#SimHei-48"/>
                        </g>
                    </g>
                </g>
                <g id="ytick_6">
                    <g id="line2d_29">
                        <path clip-path="url(#p80aa5c7eca)" d="M 41.325 91.211108
L 376.125 91.211108 
" style="fill:none;stroke:#b0b0b0;stroke-linecap:square;stroke-width:0.8;"/>
                    </g>
                    <g id="line2d_30">
                        <g>
                            <use style="stroke:#000000;stroke-width:0.8;" x="41.325" xlink:href="#m3f96aec2f8"
                                 y="91.211108"/>
                        </g>
                    </g>
                    <g id="text_16">
                        <!-- 2.5 -->
                        <g transform="translate(19.325 94.648608)scale(0.1 -0.1)">
                            <use xlink:href="#SimHei-50"/>
                            <use x="50" xlink:href="#SimHei-46"/>
                            <use x="100" xlink:href="#SimHei-53"/>
                        </g>
                    </g>
                </g>
                <g id="ytick_7">
                    <g id="line2d_31">
                        <path clip-path="url(#p80aa5c7eca)" d="M 41.325 66.502056
L 376.125 66.502056 
" style="fill:none;stroke:#b0b0b0;stroke-linecap:square;stroke-width:0.8;"/>
                    </g>
                    <g id="line2d_32">
                        <g>
                            <use style="stroke:#000000;stroke-width:0.8;" x="41.325" xlink:href="#m3f96aec2f8"
                                 y="66.502056"/>
                        </g>
                    </g>
                    <g id="text_17">
                        <!-- 3.0 -->
                        <g transform="translate(19.325 69.939556)scale(0.1 -0.1)">
                            <use xlink:href="#SimHei-51"/>
                            <use x="50" xlink:href="#SimHei-46"/>
                            <use x="100" xlink:href="#SimHei-48"/>
                        </g>
                    </g>
                </g>
                <g id="ytick_8">
                    <g id="line2d_33">
                        <path clip-path="url(#p80aa5c7eca)" d="M 41.325 41.793004
L 376.125 41.793004 
" style="fill:none;stroke:#b0b0b0;stroke-linecap:square;stroke-width:0.8;"/>
                    </g>
                    <g id="line2d_34">
                        <g>
                            <use style="stroke:#000000;stroke-width:0.8;" x="41.325" xlink:href="#m3f96aec2f8"
                                 y="41.793004"/>
                        </g>
                    </g>
                    <g id="text_18">
                        <!-- 3.5 -->
                        <g transform="translate(19.325 45.230504)scale(0.1 -0.1)">
                            <use xlink:href="#SimHei-51"/>
                            <use x="50" xlink:href="#SimHei-46"/>
                            <use x="100" xlink:href="#SimHei-53"/>
                        </g>
                    </g>
                </g>
                <g id="ytick_9">
                    <g id="line2d_35">
                        <path clip-path="url(#p80aa5c7eca)" d="M 41.325 17.083952
L 376.125 17.083952 
" style="fill:none;stroke:#b0b0b0;stroke-linecap:square;stroke-width:0.8;"/>
                    </g>
                    <g id="line2d_36">
                        <g>
                            <use style="stroke:#000000;stroke-width:0.8;" x="41.325" xlink:href="#m3f96aec2f8"
                                 y="17.083952"/>
                        </g>
                    </g>
                    <g id="text_19">
                        <!-- 4.0 -->
                        <g transform="translate(19.325 20.521452)scale(0.1 -0.1)">
                            <use xlink:href="#SimHei-52"/>
                            <use x="50" xlink:href="#SimHei-46"/>
                            <use x="100" xlink:href="#SimHei-48"/>
                        </g>
                    </g>
                </g>
                <g id="text_20">
                    <!-- F2 -->
                    <g transform="translate(14.075 120.92)rotate(-90)scale(0.1 -0.1)">
                        <use xlink:href="#SimHei-70"/>
                        <use x="50" xlink:href="#SimHei-50"/>
                    </g>
                </g>
            </g>
            <g id="line2d_37">
                <defs>
                    <path d="M 0 1.5
C 0.397805 1.5 0.77937 1.341951 1.06066 1.06066 
C 1.341951 0.77937 1.5 0.397805 1.5 0 
C 1.5 -0.397805 1.341951 -0.77937 1.06066 -1.06066 
C 0.77937 -1.341951 0.397805 -1.5 0 -1.5 
C -0.397805 -1.5 -0.77937 -1.341951 -1.06066 -1.06066 
C -1.341951 -0.77937 -1.5 -0.397805 -1.5 0 
C -1.5 0.397805 -1.341951 0.77937 -1.06066 1.06066 
C -0.77937 1.341951 -0.397805 1.5 0 1.5 
z
" id="m2c674110cd" style="stroke:#4682b4;"/>
                </defs>
                <g clip-path="url(#p80aa5c7eca)">
                    <use style="fill:#4682b4;stroke:#4682b4;" x="263.823421" xlink:href="#m2c674110cd" y="208.728131"/>
                    <use style="fill:#4682b4;stroke:#4682b4;" x="299.131847" xlink:href="#m2c674110cd" y="212.489112"/>
                    <use style="fill:#4682b4;stroke:#4682b4;" x="293.744421" xlink:href="#m2c674110cd" y="212.047308"/>
                    <use style="fill:#4682b4;stroke:#4682b4;" x="58.361407" xlink:href="#m2c674110cd" y="46.463828"/>
                    <use style="fill:#4682b4;stroke:#4682b4;" x="122.574032" xlink:href="#m2c674110cd" y="158.356401"/>
                    <use style="fill:#4682b4;stroke:#4682b4;" x="132.604445" xlink:href="#m2c674110cd" y="165.333895"/>
                    <use style="fill:#4682b4;stroke:#4682b4;" x="63.82651" xlink:href="#m2c674110cd" y="73.518282"/>
                    <use style="fill:#4682b4;stroke:#4682b4;" x="286.448915" xlink:href="#m2c674110cd" y="211.376968"/>
                    <use style="fill:#4682b4;stroke:#4682b4;" x="245.33647" xlink:href="#m2c674110cd" y="205.84724"/>
                    <use style="fill:#4682b4;stroke:#4682b4;" x="312.18453" xlink:href="#m2c674110cd" y="213.381775"/>
                    <use style="fill:#4682b4;stroke:#4682b4;" x="60.455694" xlink:href="#m2c674110cd" y="59.372594"/>
                    <use style="fill:#4682b4;stroke:#4682b4;" x="91.432653" xlink:href="#m2c674110cd" y="128.290546"/>
                    <use style="fill:#4682b4;stroke:#4682b4;" x="335.468267" xlink:href="#m2c674110cd" y="214.39836"/>
                    <use style="fill:#4682b4;stroke:#4682b4;" x="227.721415" xlink:href="#m2c674110cd" y="202.407311"/>
                    <use style="fill:#4682b4;stroke:#4682b4;" x="68.909165" xlink:href="#m2c674110cd" y="88.750508"/>
                    <use style="fill:#4682b4;stroke:#4682b4;" x="333.522453" xlink:href="#m2c674110cd" y="214.339861"/>
                    <use style="fill:#4682b4;stroke:#4682b4;" x="241.48308" xlink:href="#m2c674110cd" y="205.156158"/>
                    <use style="fill:#4682b4;stroke:#4682b4;" x="66.586508" xlink:href="#m2c674110cd" y="82.385599"/>
                    <use style="fill:#4682b4;stroke:#4682b4;" x="64.084631" xlink:href="#m2c674110cd" y="74.425015"/>
                    <use style="fill:#4682b4;stroke:#4682b4;" x="59.158771" xlink:href="#m2c674110cd" y="52.039432"/>
                    <use style="fill:#4682b4;stroke:#4682b4;" x="80.470761" xlink:href="#m2c674110cd" y="112.404238"/>
                    <use style="fill:#4682b4;stroke:#4682b4;" x="325.592449" xlink:href="#m2c674110cd" y="214.052791"/>
                    <use style="fill:#4682b4;stroke:#4682b4;" x="114.907138" xlink:href="#m2c674110cd" y="152.315391"/>
                    <use style="fill:#4682b4;stroke:#4682b4;" x="57.350582" xlink:href="#m2c674110cd" y="36.924654"/>
                    <use style="fill:#4682b4;stroke:#4682b4;" x="130.013291" xlink:href="#m2c674110cd" y="163.62121"/>
                    <use style="fill:#4682b4;stroke:#4682b4;" x="345.497562" xlink:href="#m2c674110cd" y="214.627873"/>
                    <use style="fill:#4682b4;stroke:#4682b4;" x="256.579012" xlink:href="#m2c674110cd" y="207.681643"/>
                    <use style="fill:#4682b4;stroke:#4682b4;" x="61.297574" xlink:href="#m2c674110cd" y="63.414072"/>
                    <use style="fill:#4682b4;stroke:#4682b4;" x="75.275798" xlink:href="#m2c674110cd" y="103.0086"/>
                    <use style="fill:#4682b4;stroke:#4682b4;" x="304.969331" xlink:href="#m2c674110cd" y="212.91873"/>
                    <use style="fill:#4682b4;stroke:#4682b4;" x="56.757707" xlink:href="#m2c674110cd" y="27.442038"/>
                    <use style="fill:#4682b4;stroke:#4682b4;" x="323.106618" xlink:href="#m2c674110cd" y="213.946346"/>
                    <use style="fill:#4682b4;stroke:#4682b4;" x="98.597257" xlink:href="#m2c674110cd" y="136.740147"/>
                    <use style="fill:#4682b4;stroke:#4682b4;" x="235.687396" xlink:href="#m2c674110cd" y="204.053397"/>
                    <use style="fill:#4682b4;stroke:#4682b4;" x="87.421868" xlink:href="#m2c674110cd" y="122.966534"/>
                    <use style="fill:#4682b4;stroke:#4682b4;" x="80.073831" xlink:href="#m2c674110cd" y="111.738702"/>
                    <use style="fill:#4682b4;stroke:#4682b4;" x="277.386494" xlink:href="#m2c674110cd" y="210.423287"/>
                    <use style="fill:#4682b4;stroke:#4682b4;" x="84.117129" xlink:href="#m2c674110cd" y="118.18339"/>
                    <use style="fill:#4682b4;stroke:#4682b4;" x="74.284081" xlink:href="#m2c674110cd" y="101.020977"/>
                    <use style="fill:#4682b4;stroke:#4682b4;" x="56.543182" xlink:href="#m2c674110cd" y="17.083636"/>
                    <use style="fill:#4682b4;stroke:#4682b4;" x="57.12728" xlink:href="#m2c674110cd" y="34.026096"/>
                    <use style="fill:#4682b4;stroke:#4682b4;" x="270.140899" xlink:href="#m2c674110cd" y="209.559174"/>
                    <use style="fill:#4682b4;stroke:#4682b4;" x="106.07721" xlink:href="#m2c674110cd" y="144.417132"/>
                    <use style="fill:#4682b4;stroke:#4682b4;" x="83.431945" xlink:href="#m2c674110cd" y="117.140548"/>
                    <use style="fill:#4682b4;stroke:#4682b4;" x="94.477692" xlink:href="#m2c674110cd" y="132.032113"/>
                    <use style="fill:#4682b4;stroke:#4682b4;" x="62.513052" xlink:href="#m2c674110cd" y="68.582345"/>
                    <use style="fill:#4682b4;stroke:#4682b4;" x="360.906818" xlink:href="#m2c674110cd" y="214.756364"/>
                    <use style="fill:#4682b4;stroke:#4682b4;" x="70.825881" xlink:href="#m2c674110cd" y="93.459608"/>
                    <use style="fill:#4682b4;stroke:#4682b4;" x="71.818168" xlink:href="#m2c674110cd" y="95.740417"/>
                    <use style="fill:#4682b4;stroke:#4682b4;" x="126.564581" xlink:href="#m2c674110cd" y="161.247398"/>
                </g>
            </g>
            <g id="patch_3">
                <path d="M 41.325 224.64
L 41.325 7.2 
" style="fill:none;stroke:#000000;stroke-linecap:square;stroke-linejoin:miter;stroke-width:0.8;"/>
            </g>
            <g id="patch_4">
                <path d="M 376.125 224.64
L 376.125 7.2 
" style="fill:none;stroke:#000000;stroke-linecap:square;stroke-linejoin:miter;stroke-width:0.8;"/>
            </g>
            <g id="patch_5">
                <path d="M 41.325 224.64
L 376.125 224.64 
" style="fill:none;stroke:#000000;stroke-linecap:square;stroke-linejoin:miter;stroke-width:0.8;"/>
            </g>
            <g id="patch_6">
                <path d="M 41.325 7.2
L 376.125 7.2 
" style="fill:none;stroke:#000000;stroke-linecap:square;stroke-linejoin:miter;stroke-width:0.8;"/>
            </g>
            <g id="legend_1">
                <g id="patch_7">
                    <path d="M 277.125 28.45
L 369.125 28.45 
Q 371.125 28.45 371.125 26.45 
L 371.125 14.2 
Q 371.125 12.2 369.125 12.2 
L 277.125 12.2 
Q 275.125 12.2 275.125 14.2 
L 275.125 26.45 
Q 275.125 28.45 277.125 28.45 
z
" style="fill:#ffffff;opacity:0.8;stroke:#cccccc;stroke-linejoin:miter;"/>
                </g>
                <g id="line2d_38"/>
                <g id="line2d_39">
                    <g>
                        <use style="fill:#4682b4;stroke:#4682b4;" x="289.125" xlink:href="#m2c674110cd" y="19.7"/>
                    </g>
                </g>
                <g id="text_21">
                    <!-- Pareto Front -->
                    <defs>
                        <path d="M 46.09375 48.4375
Q 46.09375 39.0625 40.625 33.59375 
Q 35.15625 28.125 25.390625 28.125 
L 14.0625 28.125 
L 14.0625 1.953125 
L 5.078125 1.953125 
L 5.078125 68.75 
L 25.390625 68.75 
Q 35.15625 68.75 40.625 63.28125 
Q 46.09375 57.8125 46.09375 48.4375 
z
M 37.109375 48.4375 
Q 37.109375 55.859375 33.59375 58.59375 
Q 30.078125 61.328125 23.046875 61.328125 
L 14.0625 61.328125 
L 14.0625 35.546875 
L 23.046875 35.546875 
Q 30.078125 35.546875 33.59375 38.28125 
Q 37.109375 41.015625 37.109375 48.4375 
z
" id="SimHei-80"/>
                        <path d="M 44.921875 1.953125
L 35.546875 1.953125 
Q 34.765625 2.734375 34.375 4.09375 
Q 33.984375 5.46875 33.984375 7.421875 
Q 31.25 4.296875 27.34375 2.734375 
Q 23.4375 1.171875 19.140625 1.171875 
Q 12.890625 1.171875 8.59375 4.296875 
Q 4.296875 7.421875 4.296875 13.28125 
Q 4.296875 19.140625 8.203125 22.65625 
Q 12.109375 26.171875 20.3125 27.34375 
Q 25.78125 28.125 29.875 29.296875 
Q 33.984375 30.46875 33.984375 32.421875 
Q 33.984375 34.765625 32.21875 37.109375 
Q 30.46875 39.453125 24.609375 39.453125 
Q 19.921875 39.453125 17.765625 37.6875 
Q 15.625 35.9375 14.84375 32.8125 
L 6.25 32.8125 
Q 7.03125 39.0625 11.90625 42.765625 
Q 16.796875 46.484375 24.609375 46.484375 
Q 33.203125 46.484375 37.5 42.578125 
Q 41.796875 38.671875 41.796875 31.640625 
L 41.796875 10.15625 
Q 41.796875 7.8125 42.578125 5.859375 
Q 43.359375 3.90625 44.921875 1.953125 
z
M 33.984375 16.40625 
L 33.984375 24.21875 
Q 31.640625 23.4375 29.484375 22.84375 
Q 27.34375 22.265625 22.265625 21.484375 
Q 16.40625 20.703125 14.640625 18.75 
Q 12.890625 16.796875 12.890625 14.0625 
Q 12.890625 11.71875 14.640625 9.953125 
Q 16.40625 8.203125 19.921875 8.203125 
Q 23.4375 8.203125 27.53125 10.15625 
Q 31.640625 12.109375 33.984375 16.40625 
z
" id="SimHei-97"/>
                        <path d="M 39.0625 37.890625
Q 31.640625 39.0625 26.5625 35.734375 
Q 21.484375 32.421875 17.96875 24.21875 
L 17.96875 1.953125 
L 10.15625 1.953125 
L 10.15625 45.703125 
L 17.96875 45.703125 
L 17.96875 34.375 
Q 21.484375 40.625 26.75 43.546875 
Q 32.03125 46.484375 39.0625 46.484375 
z
" id="SimHei-114"/>
                        <path d="M 44.53125 16.796875
Q 43.75 9.765625 38.28125 5.46875 
Q 32.8125 1.171875 25.390625 1.171875 
Q 16.015625 1.171875 9.953125 7.21875 
Q 3.90625 13.28125 3.90625 23.828125 
Q 3.90625 34.375 9.953125 40.421875 
Q 16.015625 46.484375 25.390625 46.484375 
Q 33.59375 46.484375 38.859375 41.203125 
Q 44.140625 35.9375 44.140625 23.828125 
L 12.5 23.828125 
Q 12.5 15.234375 16.203125 11.71875 
Q 19.921875 8.203125 25.390625 8.203125 
Q 29.6875 8.203125 32.421875 10.34375 
Q 35.15625 12.5 35.9375 16.796875 
z
M 35.15625 30.078125 
Q 34.375 35.546875 31.640625 37.6875 
Q 28.90625 39.84375 24.609375 39.84375 
Q 20.703125 39.84375 17.578125 37.6875 
Q 14.453125 35.546875 12.890625 30.078125 
z
" id="SimHei-101"/>
                        <path d="M 42.96875 3.125
Q 41.015625 2.34375 38.46875 1.75 
Q 35.9375 1.171875 31.640625 1.171875 
Q 24.609375 1.171875 20.3125 5.078125 
Q 16.015625 8.984375 16.015625 16.015625 
L 16.015625 39.453125 
L 2.734375 39.453125 
L 2.734375 45.703125 
L 16.015625 45.703125 
L 16.015625 60.9375 
L 23.828125 60.9375 
L 23.828125 45.703125 
L 39.84375 45.703125 
L 39.84375 39.453125 
L 23.828125 39.453125 
L 23.828125 15.625 
Q 23.828125 12.5 25.390625 10.34375 
Q 26.953125 8.203125 31.25 8.203125 
Q 35.546875 8.203125 38.28125 8.984375 
Q 41.015625 9.765625 42.96875 10.9375 
z
" id="SimHei-116"/>
                        <path d="M 45.703125 23.828125
Q 45.703125 13.671875 39.453125 7.421875 
Q 33.203125 1.171875 24.609375 1.171875 
Q 16.015625 1.171875 9.765625 7.421875 
Q 3.515625 13.671875 3.515625 23.828125 
Q 3.515625 33.984375 9.765625 40.234375 
Q 16.015625 46.484375 24.609375 46.484375 
Q 33.203125 46.484375 39.453125 40.234375 
Q 45.703125 33.984375 45.703125 23.828125 
z
M 37.109375 23.828125 
Q 37.109375 31.640625 33.203125 35.546875 
Q 29.296875 39.453125 24.609375 39.453125 
Q 19.921875 39.453125 16.015625 35.546875 
Q 12.109375 31.640625 12.109375 23.828125 
Q 12.109375 16.015625 16.015625 12.109375 
Q 19.921875 8.203125 24.609375 8.203125 
Q 29.296875 8.203125 33.203125 12.109375 
Q 37.109375 16.015625 37.109375 23.828125 
z
" id="SimHei-111"/>
                        <path id="SimHei-32"/>
                        <path d="M 43.75 1.953125
L 35.9375 1.953125 
L 35.9375 30.078125 
Q 35.9375 34.765625 33.59375 37.5 
Q 31.25 40.234375 27.34375 40.234375 
Q 22.265625 40.234375 17.765625 34.953125 
Q 13.28125 29.6875 13.28125 21.875 
L 13.28125 1.953125 
L 5.46875 1.953125 
L 5.46875 45.703125 
L 13.28125 45.703125 
L 13.28125 37.5 
Q 16.40625 41.796875 20.109375 44.140625 
Q 23.828125 46.484375 29.6875 46.484375 
Q 36.71875 46.484375 40.234375 42.578125 
Q 43.75 38.671875 43.75 32.8125 
z
" id="SimHei-110"/>
                    </defs>
                    <g transform="translate(307.125 23.2)scale(0.1 -0.1)">
                        <use xlink:href="#SimHei-80"/>
                        <use x="50" xlink:href="#SimHei-97"/>
                        <use x="100" xlink:href="#SimHei-114"/>
                        <use x="150" xlink:href="#SimHei-101"/>
                        <use x="200" xlink:href="#SimHei-116"/>
                        <use x="250" xlink:href="#SimHei-111"/>
                        <use x="300" xlink:href="#SimHei-32"/>
                        <use x="350" xlink:href="#SimHei-70"/>
                        <use x="400" xlink:href="#SimHei-114"/>
                        <use x="450" xlink:href="#SimHei-111"/>
                        <use x="500" xlink:href="#SimHei-110"/>
                        <use x="550" xlink:href="#SimHei-116"/>
                    </g>
                </g>
            </g>
        </g>
    </g>
    <defs>
        <clipPath id="p80aa5c7eca">
            <rect height="217.44" width="334.8" x="41.325" y="7.2"/>
        </clipPath>
    </defs>
</svg>
