<?xml version="1.0" encoding="utf-8" standalone="no"?>
<!DOCTYPE svg PUBLIC "-//W3C//DTD SVG 1.1//EN"
  "http://www.w3.org/Graphics/SVG/1.1/DTD/svg11.dtd">
<!-- Created with matplotlib (https://matplotlib.org/) -->
<svg height="262.59pt" version="1.1" viewBox="0 0 386.825 262.59" width="386.825pt" xmlns="http://www.w3.org/2000/svg" xmlns:xlink="http://www.w3.org/1999/xlink">
 <defs>
  <style type="text/css">
*{stroke-linecap:butt;stroke-linejoin:round;}
  </style>
 </defs>
 <g id="figure_1">
  <g id="patch_1">
   <path d="M 0 262.59 
L 386.825 262.59 
L 386.825 0 
L 0 0 
z
" style="fill:#ffffff;"/>
  </g>
  <g id="axes_1">
   <g id="patch_2">
    <path d="M 41.325 228.14 
L 376.125 228.14 
L 376.125 10.7 
L 41.325 10.7 
z
" style="fill:#ffffff;"/>
   </g>
   <g id="matplotlib.axis_1">
    <g id="xtick_1">
     <g id="line2d_1">
      <path clip-path="url(#p0a1e4547ad)" d="M 56.543179 228.14 
L 56.543179 10.7 
" style="fill:none;stroke:#b0b0b0;stroke-linecap:square;stroke-width:0.8;"/>
     </g>
     <g id="line2d_2">
      <defs>
       <path d="M 0 0 
L 0 3.5 
" id="m18ac83dcbe" style="stroke:#000000;stroke-width:0.8;"/>
      </defs>
      <g>
       <use style="stroke:#000000;stroke-width:0.8;" x="56.543179" xlink:href="#m18ac83dcbe" y="228.14"/>
      </g>
     </g>
     <g id="text_1">
      <!-- 0.0 -->
      <defs>
       <path d="M 3.125 29.296875 
Q 3.90625 50 6.4375 56.046875 
Q 8.984375 62.109375 13.671875 66.015625 
Q 18.359375 69.921875 25.1875 69.921875 
Q 32.03125 69.921875 37.109375 64.25 
Q 42.1875 58.59375 43.75 50 
Q 45.3125 41.40625 44.71875 30.265625 
Q 44.140625 19.140625 40.8125 12.109375 
Q 37.5 5.078125 30.859375 2.34375 
Q 24.21875 -0.390625 17.578125 2.921875 
Q 10.9375 6.25 8.203125 11.71875 
Q 5.46875 17.1875 4.296875 23.234375 
Q 3.125 29.296875 3.90625 50 
z
M 12.890625 52.734375 
Q 10.546875 31.25 12.5 22.84375 
Q 14.453125 14.453125 18.9375 10.9375 
Q 23.4375 7.421875 28.125 9.5625 
Q 32.8125 11.71875 34.953125 18.15625 
Q 37.109375 24.609375 37.109375 32.21875 
Q 37.109375 39.84375 36.515625 46.09375 
Q 35.9375 52.34375 33 57.421875 
Q 30.078125 62.5 25.1875 62.6875 
Q 20.3125 62.890625 16.59375 57.8125 
Q 12.890625 52.734375 10.546875 31.25 
z
" id="SimHei-48"/>
       <path d="M 16.796875 1.953125 
L 7.8125 1.953125 
L 7.8125 10.546875 
L 16.796875 10.546875 
z
" id="SimHei-46"/>
      </defs>
      <g transform="translate(49.043179 242.015)scale(0.1 -0.1)">
       <use xlink:href="#SimHei-48"/>
       <use x="50" xlink:href="#SimHei-46"/>
       <use x="100" xlink:href="#SimHei-48"/>
      </g>
     </g>
    </g>
    <g id="xtick_2">
     <g id="line2d_3">
      <path clip-path="url(#p0a1e4547ad)" d="M 94.578644 228.14 
L 94.578644 10.7 
" style="fill:none;stroke:#b0b0b0;stroke-linecap:square;stroke-width:0.8;"/>
     </g>
     <g id="line2d_4">
      <g>
       <use style="stroke:#000000;stroke-width:0.8;" x="94.578644" xlink:href="#m18ac83dcbe" y="228.14"/>
      </g>
     </g>
     <g id="text_2">
      <!-- 0.5 -->
      <defs>
       <path d="M 8.59375 20.703125 
Q 11.328125 10.15625 17.96875 8.984375 
Q 24.609375 7.8125 28.703125 10.34375 
Q 32.8125 12.890625 34.5625 16.984375 
Q 36.328125 21.09375 36.125 26.171875 
Q 35.9375 31.25 33.390625 34.765625 
Q 30.859375 38.28125 26.953125 39.453125 
Q 23.046875 40.625 18.15625 39.453125 
Q 13.28125 38.28125 10.15625 33.984375 
L 3.515625 34.765625 
Q 4.296875 37.109375 10.9375 68.359375 
L 41.796875 68.359375 
L 41.796875 61.328125 
L 16.796875 61.328125 
Q 14.84375 50.78125 12.890625 44.53125 
Q 18.75 47.265625 23.828125 47.0625 
Q 28.90625 46.875 33.59375 44.71875 
Q 38.28125 42.578125 40.421875 38.859375 
Q 42.578125 35.15625 43.546875 31.4375 
Q 44.53125 27.734375 44.328125 23.4375 
Q 44.140625 19.140625 42.578125 14.640625 
Q 41.015625 10.15625 37.890625 7.21875 
Q 34.765625 4.296875 30.265625 2.53125 
Q 25.78125 0.78125 19.921875 1.171875 
Q 14.0625 1.5625 8.78125 5.46875 
Q 3.515625 9.375 1.5625 18.75 
z
" id="SimHei-53"/>
      </defs>
      <g transform="translate(87.078644 242.015)scale(0.1 -0.1)">
       <use xlink:href="#SimHei-48"/>
       <use x="50" xlink:href="#SimHei-46"/>
       <use x="100" xlink:href="#SimHei-53"/>
      </g>
     </g>
    </g>
    <g id="xtick_3">
     <g id="line2d_5">
      <path clip-path="url(#p0a1e4547ad)" d="M 132.61411 228.14 
L 132.61411 10.7 
" style="fill:none;stroke:#b0b0b0;stroke-linecap:square;stroke-width:0.8;"/>
     </g>
     <g id="line2d_6">
      <g>
       <use style="stroke:#000000;stroke-width:0.8;" x="132.61411" xlink:href="#m18ac83dcbe" y="228.14"/>
      </g>
     </g>
     <g id="text_3">
      <!-- 1.0 -->
      <defs>
       <path d="M 21.875 56.25 
Q 16.796875 51.171875 8.984375 46.484375 
L 8.984375 53.90625 
Q 18.75 60.546875 25 69.53125 
L 29.6875 69.53125 
L 29.6875 2.34375 
L 21.875 2.34375 
z
" id="SimHei-49"/>
      </defs>
      <g transform="translate(125.11411 242.015)scale(0.1 -0.1)">
       <use xlink:href="#SimHei-49"/>
       <use x="50" xlink:href="#SimHei-46"/>
       <use x="100" xlink:href="#SimHei-48"/>
      </g>
     </g>
    </g>
    <g id="xtick_4">
     <g id="line2d_7">
      <path clip-path="url(#p0a1e4547ad)" d="M 170.649575 228.14 
L 170.649575 10.7 
" style="fill:none;stroke:#b0b0b0;stroke-linecap:square;stroke-width:0.8;"/>
     </g>
     <g id="line2d_8">
      <g>
       <use style="stroke:#000000;stroke-width:0.8;" x="170.649575" xlink:href="#m18ac83dcbe" y="228.14"/>
      </g>
     </g>
     <g id="text_4">
      <!-- 1.5 -->
      <g transform="translate(163.149575 242.015)scale(0.1 -0.1)">
       <use xlink:href="#SimHei-49"/>
       <use x="50" xlink:href="#SimHei-46"/>
       <use x="100" xlink:href="#SimHei-53"/>
      </g>
     </g>
    </g>
    <g id="xtick_5">
     <g id="line2d_9">
      <path clip-path="url(#p0a1e4547ad)" d="M 208.68504 228.14 
L 208.68504 10.7 
" style="fill:none;stroke:#b0b0b0;stroke-linecap:square;stroke-width:0.8;"/>
     </g>
     <g id="line2d_10">
      <g>
       <use style="stroke:#000000;stroke-width:0.8;" x="208.68504" xlink:href="#m18ac83dcbe" y="228.14"/>
      </g>
     </g>
     <g id="text_5">
      <!-- 2.0 -->
      <defs>
       <path d="M 4.6875 3.90625 
Q 5.078125 9.765625 10.15625 14.453125 
Q 15.234375 19.140625 23.046875 29.09375 
Q 30.859375 39.0625 33.203125 44.53125 
Q 35.546875 50 34.953125 53.90625 
Q 34.375 57.8125 31.25 60.34375 
Q 28.125 62.890625 24.015625 62.5 
Q 19.921875 62.109375 16.203125 59.375 
Q 12.5 56.640625 10.546875 51.171875 
L 3.125 52.34375 
Q 6.25 61.328125 11.125 65.421875 
Q 16.015625 69.53125 22.65625 69.921875 
Q 26.5625 70.3125 29.6875 69.71875 
Q 32.8125 69.140625 36.125 66.984375 
Q 39.453125 64.84375 41.59375 60.546875 
Q 43.75 56.25 43.15625 50.1875 
Q 42.578125 44.140625 37.109375 35.734375 
Q 31.640625 27.34375 16.015625 9.375 
L 44.140625 9.375 
L 44.140625 2.34375 
L 4.6875 2.34375 
z
" id="SimHei-50"/>
      </defs>
      <g transform="translate(201.18504 242.015)scale(0.1 -0.1)">
       <use xlink:href="#SimHei-50"/>
       <use x="50" xlink:href="#SimHei-46"/>
       <use x="100" xlink:href="#SimHei-48"/>
      </g>
     </g>
    </g>
    <g id="xtick_6">
     <g id="line2d_11">
      <path clip-path="url(#p0a1e4547ad)" d="M 246.720505 228.14 
L 246.720505 10.7 
" style="fill:none;stroke:#b0b0b0;stroke-linecap:square;stroke-width:0.8;"/>
     </g>
     <g id="line2d_12">
      <g>
       <use style="stroke:#000000;stroke-width:0.8;" x="246.720505" xlink:href="#m18ac83dcbe" y="228.14"/>
      </g>
     </g>
     <g id="text_6">
      <!-- 2.5 -->
      <g transform="translate(239.220505 242.015)scale(0.1 -0.1)">
       <use xlink:href="#SimHei-50"/>
       <use x="50" xlink:href="#SimHei-46"/>
       <use x="100" xlink:href="#SimHei-53"/>
      </g>
     </g>
    </g>
    <g id="xtick_7">
     <g id="line2d_13">
      <path clip-path="url(#p0a1e4547ad)" d="M 284.755971 228.14 
L 284.755971 10.7 
" style="fill:none;stroke:#b0b0b0;stroke-linecap:square;stroke-width:0.8;"/>
     </g>
     <g id="line2d_14">
      <g>
       <use style="stroke:#000000;stroke-width:0.8;" x="284.755971" xlink:href="#m18ac83dcbe" y="228.14"/>
      </g>
     </g>
     <g id="text_7">
      <!-- 3.0 -->
      <defs>
       <path d="M 3.90625 19.140625 
L 10.9375 20.3125 
Q 12.5 15.234375 16.015625 11.90625 
Q 19.53125 8.59375 24.796875 8.78125 
Q 30.078125 8.984375 33.203125 13.078125 
Q 36.328125 17.1875 35.9375 22.453125 
Q 35.546875 27.734375 31.828125 30.65625 
Q 28.125 33.59375 19.921875 34.765625 
L 19.921875 39.84375 
Q 28.125 40.625 31.828125 44.140625 
Q 35.546875 47.65625 35.15625 53.3125 
Q 34.765625 58.984375 30.078125 61.515625 
Q 25.390625 64.0625 20.109375 62.109375 
Q 14.84375 60.15625 11.71875 51.171875 
L 4.6875 52.34375 
Q 7.03125 59.375 11.125 64.0625 
Q 15.234375 68.75 22.265625 69.53125 
Q 29.296875 70.3125 34.5625 67.765625 
Q 39.84375 65.234375 41.984375 59.953125 
Q 44.140625 54.6875 42.578125 48.4375 
Q 41.015625 42.1875 33.59375 37.5 
Q 39.0625 35.15625 41.984375 30.46875 
Q 44.921875 25.78125 43.9375 18.15625 
Q 42.96875 10.546875 37.109375 5.859375 
Q 31.25 1.171875 23.828125 1.359375 
Q 16.40625 1.5625 10.9375 6.046875 
Q 5.46875 10.546875 3.90625 19.140625 
z
" id="SimHei-51"/>
      </defs>
      <g transform="translate(277.255971 242.015)scale(0.1 -0.1)">
       <use xlink:href="#SimHei-51"/>
       <use x="50" xlink:href="#SimHei-46"/>
       <use x="100" xlink:href="#SimHei-48"/>
      </g>
     </g>
    </g>
    <g id="xtick_8">
     <g id="line2d_15">
      <path clip-path="url(#p0a1e4547ad)" d="M 322.791436 228.14 
L 322.791436 10.7 
" style="fill:none;stroke:#b0b0b0;stroke-linecap:square;stroke-width:0.8;"/>
     </g>
     <g id="line2d_16">
      <g>
       <use style="stroke:#000000;stroke-width:0.8;" x="322.791436" xlink:href="#m18ac83dcbe" y="228.14"/>
      </g>
     </g>
     <g id="text_8">
      <!-- 3.5 -->
      <g transform="translate(315.291436 242.015)scale(0.1 -0.1)">
       <use xlink:href="#SimHei-51"/>
       <use x="50" xlink:href="#SimHei-46"/>
       <use x="100" xlink:href="#SimHei-53"/>
      </g>
     </g>
    </g>
    <g id="xtick_9">
     <g id="line2d_17">
      <path clip-path="url(#p0a1e4547ad)" d="M 360.826901 228.14 
L 360.826901 10.7 
" style="fill:none;stroke:#b0b0b0;stroke-linecap:square;stroke-width:0.8;"/>
     </g>
     <g id="line2d_18">
      <g>
       <use style="stroke:#000000;stroke-width:0.8;" x="360.826901" xlink:href="#m18ac83dcbe" y="228.14"/>
      </g>
     </g>
     <g id="text_9">
      <!-- 4.0 -->
      <defs>
       <path d="M 31.25 17.1875 
L 1.171875 17.1875 
L 1.171875 23.828125 
L 32.8125 69.53125 
L 38.671875 69.53125 
L 38.671875 23.828125 
L 48.046875 23.828125 
L 48.046875 17.1875 
L 38.671875 17.1875 
L 38.671875 2.34375 
L 31.25 2.34375 
z
M 31.25 23.828125 
L 31.25 54.6875 
L 9.375 23.828125 
z
" id="SimHei-52"/>
      </defs>
      <g transform="translate(353.326901 242.015)scale(0.1 -0.1)">
       <use xlink:href="#SimHei-52"/>
       <use x="50" xlink:href="#SimHei-46"/>
       <use x="100" xlink:href="#SimHei-48"/>
      </g>
     </g>
    </g>
    <g id="text_10">
     <!-- F1 -->
     <defs>
      <path d="M 45.703125 61.328125 
L 13.671875 61.328125 
L 13.671875 39.453125 
L 37.890625 39.453125 
L 37.890625 32.03125 
L 13.671875 32.03125 
L 13.671875 1.953125 
L 4.6875 1.953125 
L 4.6875 68.75 
L 45.703125 68.75 
z
" id="SimHei-70"/>
     </defs>
     <g transform="translate(203.725 254.14)scale(0.1 -0.1)">
      <use xlink:href="#SimHei-70"/>
      <use x="50" xlink:href="#SimHei-49"/>
     </g>
    </g>
   </g>
   <g id="matplotlib.axis_2">
    <g id="ytick_1">
     <g id="line2d_19">
      <path clip-path="url(#p0a1e4547ad)" d="M 41.325 218.256367 
L 376.125 218.256367 
" style="fill:none;stroke:#b0b0b0;stroke-linecap:square;stroke-width:0.8;"/>
     </g>
     <g id="line2d_20">
      <defs>
       <path d="M 0 0 
L -3.5 0 
" id="mbe53769305" style="stroke:#000000;stroke-width:0.8;"/>
      </defs>
      <g>
       <use style="stroke:#000000;stroke-width:0.8;" x="41.325" xlink:href="#mbe53769305" y="218.256367"/>
      </g>
     </g>
     <g id="text_11">
      <!-- 0.0 -->
      <g transform="translate(19.325 221.693867)scale(0.1 -0.1)">
       <use xlink:href="#SimHei-48"/>
       <use x="50" xlink:href="#SimHei-46"/>
       <use x="100" xlink:href="#SimHei-48"/>
      </g>
     </g>
    </g>
    <g id="ytick_2">
     <g id="line2d_21">
      <path clip-path="url(#p0a1e4547ad)" d="M 41.325 193.542657 
L 376.125 193.542657 
" style="fill:none;stroke:#b0b0b0;stroke-linecap:square;stroke-width:0.8;"/>
     </g>
     <g id="line2d_22">
      <g>
       <use style="stroke:#000000;stroke-width:0.8;" x="41.325" xlink:href="#mbe53769305" y="193.542657"/>
      </g>
     </g>
     <g id="text_12">
      <!-- 0.5 -->
      <g transform="translate(19.325 196.980157)scale(0.1 -0.1)">
       <use xlink:href="#SimHei-48"/>
       <use x="50" xlink:href="#SimHei-46"/>
       <use x="100" xlink:href="#SimHei-53"/>
      </g>
     </g>
    </g>
    <g id="ytick_3">
     <g id="line2d_23">
      <path clip-path="url(#p0a1e4547ad)" d="M 41.325 168.828948 
L 376.125 168.828948 
" style="fill:none;stroke:#b0b0b0;stroke-linecap:square;stroke-width:0.8;"/>
     </g>
     <g id="line2d_24">
      <g>
       <use style="stroke:#000000;stroke-width:0.8;" x="41.325" xlink:href="#mbe53769305" y="168.828948"/>
      </g>
     </g>
     <g id="text_13">
      <!-- 1.0 -->
      <g transform="translate(19.325 172.266448)scale(0.1 -0.1)">
       <use xlink:href="#SimHei-49"/>
       <use x="50" xlink:href="#SimHei-46"/>
       <use x="100" xlink:href="#SimHei-48"/>
      </g>
     </g>
    </g>
    <g id="ytick_4">
     <g id="line2d_25">
      <path clip-path="url(#p0a1e4547ad)" d="M 41.325 144.115238 
L 376.125 144.115238 
" style="fill:none;stroke:#b0b0b0;stroke-linecap:square;stroke-width:0.8;"/>
     </g>
     <g id="line2d_26">
      <g>
       <use style="stroke:#000000;stroke-width:0.8;" x="41.325" xlink:href="#mbe53769305" y="144.115238"/>
      </g>
     </g>
     <g id="text_14">
      <!-- 1.5 -->
      <g transform="translate(19.325 147.552738)scale(0.1 -0.1)">
       <use xlink:href="#SimHei-49"/>
       <use x="50" xlink:href="#SimHei-46"/>
       <use x="100" xlink:href="#SimHei-53"/>
      </g>
     </g>
    </g>
    <g id="ytick_5">
     <g id="line2d_27">
      <path clip-path="url(#p0a1e4547ad)" d="M 41.325 119.401529 
L 376.125 119.401529 
" style="fill:none;stroke:#b0b0b0;stroke-linecap:square;stroke-width:0.8;"/>
     </g>
     <g id="line2d_28">
      <g>
       <use style="stroke:#000000;stroke-width:0.8;" x="41.325" xlink:href="#mbe53769305" y="119.401529"/>
      </g>
     </g>
     <g id="text_15">
      <!-- 2.0 -->
      <g transform="translate(19.325 122.839029)scale(0.1 -0.1)">
       <use xlink:href="#SimHei-50"/>
       <use x="50" xlink:href="#SimHei-46"/>
       <use x="100" xlink:href="#SimHei-48"/>
      </g>
     </g>
    </g>
    <g id="ytick_6">
     <g id="line2d_29">
      <path clip-path="url(#p0a1e4547ad)" d="M 41.325 94.687819 
L 376.125 94.687819 
" style="fill:none;stroke:#b0b0b0;stroke-linecap:square;stroke-width:0.8;"/>
     </g>
     <g id="line2d_30">
      <g>
       <use style="stroke:#000000;stroke-width:0.8;" x="41.325" xlink:href="#mbe53769305" y="94.687819"/>
      </g>
     </g>
     <g id="text_16">
      <!-- 2.5 -->
      <g transform="translate(19.325 98.125319)scale(0.1 -0.1)">
       <use xlink:href="#SimHei-50"/>
       <use x="50" xlink:href="#SimHei-46"/>
       <use x="100" xlink:href="#SimHei-53"/>
      </g>
     </g>
    </g>
    <g id="ytick_7">
     <g id="line2d_31">
      <path clip-path="url(#p0a1e4547ad)" d="M 41.325 69.974109 
L 376.125 69.974109 
" style="fill:none;stroke:#b0b0b0;stroke-linecap:square;stroke-width:0.8;"/>
     </g>
     <g id="line2d_32">
      <g>
       <use style="stroke:#000000;stroke-width:0.8;" x="41.325" xlink:href="#mbe53769305" y="69.974109"/>
      </g>
     </g>
     <g id="text_17">
      <!-- 3.0 -->
      <g transform="translate(19.325 73.411609)scale(0.1 -0.1)">
       <use xlink:href="#SimHei-51"/>
       <use x="50" xlink:href="#SimHei-46"/>
       <use x="100" xlink:href="#SimHei-48"/>
      </g>
     </g>
    </g>
    <g id="ytick_8">
     <g id="line2d_33">
      <path clip-path="url(#p0a1e4547ad)" d="M 41.325 45.2604 
L 376.125 45.2604 
" style="fill:none;stroke:#b0b0b0;stroke-linecap:square;stroke-width:0.8;"/>
     </g>
     <g id="line2d_34">
      <g>
       <use style="stroke:#000000;stroke-width:0.8;" x="41.325" xlink:href="#mbe53769305" y="45.2604"/>
      </g>
     </g>
     <g id="text_18">
      <!-- 3.5 -->
      <g transform="translate(19.325 48.6979)scale(0.1 -0.1)">
       <use xlink:href="#SimHei-51"/>
       <use x="50" xlink:href="#SimHei-46"/>
       <use x="100" xlink:href="#SimHei-53"/>
      </g>
     </g>
    </g>
    <g id="ytick_9">
     <g id="line2d_35">
      <path clip-path="url(#p0a1e4547ad)" d="M 41.325 20.54669 
L 376.125 20.54669 
" style="fill:none;stroke:#b0b0b0;stroke-linecap:square;stroke-width:0.8;"/>
     </g>
     <g id="line2d_36">
      <g>
       <use style="stroke:#000000;stroke-width:0.8;" x="41.325" xlink:href="#mbe53769305" y="20.54669"/>
      </g>
     </g>
     <g id="text_19">
      <!-- 4.0 -->
      <g transform="translate(19.325 23.98419)scale(0.1 -0.1)">
       <use xlink:href="#SimHei-52"/>
       <use x="50" xlink:href="#SimHei-46"/>
       <use x="100" xlink:href="#SimHei-48"/>
      </g>
     </g>
    </g>
    <g id="text_20">
     <!-- F2 -->
     <g transform="translate(14.075 124.42)rotate(-90)scale(0.1 -0.1)">
      <use xlink:href="#SimHei-70"/>
      <use x="50" xlink:href="#SimHei-50"/>
     </g>
    </g>
   </g>
   <g id="line2d_37">
    <defs>
     <path d="M 0 1.5 
C 0.397805 1.5 0.77937 1.341951 1.06066 1.06066 
C 1.341951 0.77937 1.5 0.397805 1.5 0 
C 1.5 -0.397805 1.341951 -0.77937 1.06066 -1.06066 
C 0.77937 -1.341951 0.397805 -1.5 0 -1.5 
C -0.397805 -1.5 -0.77937 -1.341951 -1.06066 -1.06066 
C -1.341951 -0.77937 -1.5 -0.397805 -1.5 0 
C -1.5 0.397805 -1.341951 0.77937 -1.06066 1.06066 
C -0.77937 1.341951 -0.397805 1.5 0 1.5 
z
" id="ma8c29916d5" style="stroke:#4682b4;"/>
    </defs>
    <g clip-path="url(#p0a1e4547ad)">
     <use style="fill:#4682b4;stroke:#4682b4;" x="360.906818" xlink:href="#ma8c29916d5" y="218.256364"/>
     <use style="fill:#4682b4;stroke:#4682b4;" x="244.657631" xlink:href="#ma8c29916d5" y="209.22489"/>
     <use style="fill:#4682b4;stroke:#4682b4;" x="87.525963" xlink:href="#ma8c29916d5" y="126.59208"/>
     <use style="fill:#4682b4;stroke:#4682b4;" x="56.543182" xlink:href="#ma8c29916d5" y="20.583636"/>
     <use style="fill:#4682b4;stroke:#4682b4;" x="57.094955" xlink:href="#ma8c29916d5" y="37.026532"/>
     <use style="fill:#4682b4;stroke:#4682b4;" x="68.767318" xlink:href="#ma8c29916d5" y="91.85919"/>
     <use style="fill:#4682b4;stroke:#4682b4;" x="281.813795" xlink:href="#ma8c29916d5" y="214.404737"/>
     <use style="fill:#4682b4;stroke:#4682b4;" x="354.77792" xlink:href="#ma8c29916d5" y="218.236637"/>
     <use style="fill:#4682b4;stroke:#4682b4;" x="101.552672" xlink:href="#ma8c29916d5" y="143.381057"/>
     <use style="fill:#4682b4;stroke:#4682b4;" x="58.473752" xlink:href="#ma8c29916d5" y="50.788742"/>
     <use style="fill:#4682b4;stroke:#4682b4;" x="97.901108" xlink:href="#ma8c29916d5" y="139.454197"/>
     <use style="fill:#4682b4;stroke:#4682b4;" x="330.549159" xlink:href="#ma8c29916d5" y="217.740998"/>
     <use style="fill:#4682b4;stroke:#4682b4;" x="76.756619" xlink:href="#ma8c29916d5" y="109.328052"/>
     <use style="fill:#4682b4;stroke:#4682b4;" x="57.644602" xlink:href="#ma8c29916d5" y="43.621101"/>
     <use style="fill:#4682b4;stroke:#4682b4;" x="118.841208" xlink:href="#ma8c29916d5" y="158.986966"/>
     <use style="fill:#4682b4;stroke:#4682b4;" x="79.650245" xlink:href="#ma8c29916d5" y="114.498762"/>
     <use style="fill:#4682b4;stroke:#4682b4;" x="85.678392" xlink:href="#ma8c29916d5" y="123.972632"/>
     <use style="fill:#4682b4;stroke:#4682b4;" x="74.59471" xlink:href="#ma8c29916d5" y="105.12856"/>
     <use style="fill:#4682b4;stroke:#4682b4;" x="96.714585" xlink:href="#ma8c29916d5" y="138.118777"/>
     <use style="fill:#4682b4;stroke:#4682b4;" x="111.676259" xlink:href="#ma8c29916d5" y="153.039455"/>
     <use style="fill:#4682b4;stroke:#4682b4;" x="62.079895" xlink:href="#ma8c29916d5" y="70.288162"/>
     <use style="fill:#4682b4;stroke:#4682b4;" x="114.95559" xlink:href="#ma8c29916d5" y="155.842128"/>
     <use style="fill:#4682b4;stroke:#4682b4;" x="132.570029" xlink:href="#ma8c29916d5" y="168.800298"/>
     <use style="fill:#4682b4;stroke:#4682b4;" x="345.269275" xlink:href="#ma8c29916d5" y="218.123744"/>
     <use style="fill:#4682b4;stroke:#4682b4;" x="93.350043" xlink:href="#ma8c29916d5" y="134.156686"/>
     <use style="fill:#4682b4;stroke:#4682b4;" x="260.245471" xlink:href="#ma8c29916d5" y="211.721698"/>
     <use style="fill:#4682b4;stroke:#4682b4;" x="125.12329" xlink:href="#ma8c29916d5" y="163.709536"/>
     <use style="fill:#4682b4;stroke:#4682b4;" x="286.888705" xlink:href="#ma8c29916d5" y="214.918294"/>
     <use style="fill:#4682b4;stroke:#4682b4;" x="227.724367" xlink:href="#ma8c29916d5" y="205.904188"/>
     <use style="fill:#4682b4;stroke:#4682b4;" x="64.502157" xlink:href="#ma8c29916d5" y="79.326291"/>
     <use style="fill:#4682b4;stroke:#4682b4;" x="234.76254" xlink:href="#ma8c29916d5" y="207.366751"/>
     <use style="fill:#4682b4;stroke:#4682b4;" x="302.321096" xlink:href="#ma8c29916d5" y="216.228968"/>
     <use style="fill:#4682b4;stroke:#4682b4;" x="59.68771" xlink:href="#ma8c29916d5" y="58.700779"/>
     <use style="fill:#4682b4;stroke:#4682b4;" x="61.19598" xlink:href="#ma8c29916d5" y="66.419789"/>
     <use style="fill:#4682b4;stroke:#4682b4;" x="107.07843" xlink:href="#ma8c29916d5" y="148.855797"/>
     <use style="fill:#4682b4;stroke:#4682b4;" x="252.344636" xlink:href="#ma8c29916d5" y="210.518977"/>
     <use style="fill:#4682b4;stroke:#4682b4;" x="306.476153" xlink:href="#ma8c29916d5" y="216.520571"/>
     <use style="fill:#4682b4;stroke:#4682b4;" x="59.776842" xlink:href="#ma8c29916d5" y="59.208586"/>
     <use style="fill:#4682b4;stroke:#4682b4;" x="81.812153" xlink:href="#ma8c29916d5" y="118.077548"/>
     <use style="fill:#4682b4;stroke:#4682b4;" x="313.689579" xlink:href="#ma8c29916d5" y="216.968353"/>
     <use style="fill:#4682b4;stroke:#4682b4;" x="56.557902" xlink:href="#ma8c29916d5" y="23.287682"/>
     <use style="fill:#4682b4;stroke:#4682b4;" x="67.004816" xlink:href="#ma8c29916d5" y="87.068508"/>
     <use style="fill:#4682b4;stroke:#4682b4;" x="322.056572" xlink:href="#ma8c29916d5" y="217.398339"/>
     <use style="fill:#4682b4;stroke:#4682b4;" x="56.694164" xlink:href="#ma8c29916d5" y="29.256739"/>
     <use style="fill:#4682b4;stroke:#4682b4;" x="295.301659" xlink:href="#ma8c29916d5" y="215.678311"/>
     <use style="fill:#4682b4;stroke:#4682b4;" x="267.593908" xlink:href="#ma8c29916d5" y="212.73092"/>
     <use style="fill:#4682b4;stroke:#4682b4;" x="103.504829" xlink:href="#ma8c29916d5" y="145.375633"/>
     <use style="fill:#4682b4;stroke:#4682b4;" x="72.837155" xlink:href="#ma8c29916d5" y="101.461927"/>
     <use style="fill:#4682b4;stroke:#4682b4;" x="337.731609" xlink:href="#ma8c29916d5" y="217.960273"/>
     <use style="fill:#4682b4;stroke:#4682b4;" x="82.663698" xlink:href="#ma8c29916d5" y="119.42835"/>
    </g>
   </g>
   <g id="patch_3">
    <path d="M 41.325 228.14 
L 41.325 10.7 
" style="fill:none;stroke:#000000;stroke-linecap:square;stroke-linejoin:miter;stroke-width:0.8;"/>
   </g>
   <g id="patch_4">
    <path d="M 376.125 228.14 
L 376.125 10.7 
" style="fill:none;stroke:#000000;stroke-linecap:square;stroke-linejoin:miter;stroke-width:0.8;"/>
   </g>
   <g id="patch_5">
    <path d="M 41.325 228.14 
L 376.125 228.14 
" style="fill:none;stroke:#000000;stroke-linecap:square;stroke-linejoin:miter;stroke-width:0.8;"/>
   </g>
   <g id="patch_6">
    <path d="M 41.325 10.7 
L 376.125 10.7 
" style="fill:none;stroke:#000000;stroke-linecap:square;stroke-linejoin:miter;stroke-width:0.8;"/>
   </g>
  </g>
 </g>
 <defs>
  <clipPath id="p0a1e4547ad">
   <rect height="217.44" width="334.8" x="41.325" y="10.7"/>
  </clipPath>
 </defs>
</svg>
