<?xml version="1.0" encoding="utf-8" standalone="no"?>
<!DOCTYPE svg PUBLIC "-//W3C//DTD SVG 1.1//EN"
  "http://www.w3.org/Graphics/SVG/1.1/DTD/svg11.dtd">
<!-- Created with matplotlib (https://matplotlib.org/) -->
<svg height="262.59pt" version="1.1" viewBox="0 0 386.825 262.59" width="386.825pt" xmlns="http://www.w3.org/2000/svg" xmlns:xlink="http://www.w3.org/1999/xlink">
 <defs>
  <style type="text/css">
*{stroke-linecap:butt;stroke-linejoin:round;}
  </style>
 </defs>
 <g id="figure_1">
  <g id="patch_1">
   <path d="M 0 262.59 
L 386.825 262.59 
L 386.825 0 
L 0 0 
z
" style="fill:#ffffff;"/>
  </g>
  <g id="axes_1">
   <g id="patch_2">
    <path d="M 41.325 228.14 
L 376.125 228.14 
L 376.125 10.7 
L 41.325 10.7 
z
" style="fill:#ffffff;"/>
   </g>
   <g id="matplotlib.axis_1">
    <g id="xtick_1">
     <g id="line2d_1">
      <path clip-path="url(#pd60adff916)" d="M 56.543182 228.14 
L 56.543182 10.7 
" style="fill:none;stroke:#b0b0b0;stroke-linecap:square;stroke-width:0.8;"/>
     </g>
     <g id="line2d_2">
      <defs>
       <path d="M 0 0 
L 0 3.5 
" id="m1978fd47ca" style="stroke:#000000;stroke-width:0.8;"/>
      </defs>
      <g>
       <use style="stroke:#000000;stroke-width:0.8;" x="56.543182" xlink:href="#m1978fd47ca" y="228.14"/>
      </g>
     </g>
     <g id="text_1">
      <!-- 0.0 -->
      <defs>
       <path d="M 3.125 29.296875 
Q 3.90625 50 6.4375 56.046875 
Q 8.984375 62.109375 13.671875 66.015625 
Q 18.359375 69.921875 25.1875 69.921875 
Q 32.03125 69.921875 37.109375 64.25 
Q 42.1875 58.59375 43.75 50 
Q 45.3125 41.40625 44.71875 30.265625 
Q 44.140625 19.140625 40.8125 12.109375 
Q 37.5 5.078125 30.859375 2.34375 
Q 24.21875 -0.390625 17.578125 2.921875 
Q 10.9375 6.25 8.203125 11.71875 
Q 5.46875 17.1875 4.296875 23.234375 
Q 3.125 29.296875 3.90625 50 
z
M 12.890625 52.734375 
Q 10.546875 31.25 12.5 22.84375 
Q 14.453125 14.453125 18.9375 10.9375 
Q 23.4375 7.421875 28.125 9.5625 
Q 32.8125 11.71875 34.953125 18.15625 
Q 37.109375 24.609375 37.109375 32.21875 
Q 37.109375 39.84375 36.515625 46.09375 
Q 35.9375 52.34375 33 57.421875 
Q 30.078125 62.5 25.1875 62.6875 
Q 20.3125 62.890625 16.59375 57.8125 
Q 12.890625 52.734375 10.546875 31.25 
z
" id="SimHei-48"/>
       <path d="M 16.796875 1.953125 
L 7.8125 1.953125 
L 7.8125 10.546875 
L 16.796875 10.546875 
z
" id="SimHei-46"/>
      </defs>
      <g transform="translate(49.043182 242.015)scale(0.1 -0.1)">
       <use xlink:href="#SimHei-48"/>
       <use x="50" xlink:href="#SimHei-46"/>
       <use x="100" xlink:href="#SimHei-48"/>
      </g>
     </g>
    </g>
    <g id="xtick_2">
     <g id="line2d_3">
      <path clip-path="url(#pd60adff916)" d="M 94.589901 228.14 
L 94.589901 10.7 
" style="fill:none;stroke:#b0b0b0;stroke-linecap:square;stroke-width:0.8;"/>
     </g>
     <g id="line2d_4">
      <g>
       <use style="stroke:#000000;stroke-width:0.8;" x="94.589901" xlink:href="#m1978fd47ca" y="228.14"/>
      </g>
     </g>
     <g id="text_2">
      <!-- 0.5 -->
      <defs>
       <path d="M 8.59375 20.703125 
Q 11.328125 10.15625 17.96875 8.984375 
Q 24.609375 7.8125 28.703125 10.34375 
Q 32.8125 12.890625 34.5625 16.984375 
Q 36.328125 21.09375 36.125 26.171875 
Q 35.9375 31.25 33.390625 34.765625 
Q 30.859375 38.28125 26.953125 39.453125 
Q 23.046875 40.625 18.15625 39.453125 
Q 13.28125 38.28125 10.15625 33.984375 
L 3.515625 34.765625 
Q 4.296875 37.109375 10.9375 68.359375 
L 41.796875 68.359375 
L 41.796875 61.328125 
L 16.796875 61.328125 
Q 14.84375 50.78125 12.890625 44.53125 
Q 18.75 47.265625 23.828125 47.0625 
Q 28.90625 46.875 33.59375 44.71875 
Q 38.28125 42.578125 40.421875 38.859375 
Q 42.578125 35.15625 43.546875 31.4375 
Q 44.53125 27.734375 44.328125 23.4375 
Q 44.140625 19.140625 42.578125 14.640625 
Q 41.015625 10.15625 37.890625 7.21875 
Q 34.765625 4.296875 30.265625 2.53125 
Q 25.78125 0.78125 19.921875 1.171875 
Q 14.0625 1.5625 8.78125 5.46875 
Q 3.515625 9.375 1.5625 18.75 
z
" id="SimHei-53"/>
      </defs>
      <g transform="translate(87.089901 242.015)scale(0.1 -0.1)">
       <use xlink:href="#SimHei-48"/>
       <use x="50" xlink:href="#SimHei-46"/>
       <use x="100" xlink:href="#SimHei-53"/>
      </g>
     </g>
    </g>
    <g id="xtick_3">
     <g id="line2d_5">
      <path clip-path="url(#pd60adff916)" d="M 132.636621 228.14 
L 132.636621 10.7 
" style="fill:none;stroke:#b0b0b0;stroke-linecap:square;stroke-width:0.8;"/>
     </g>
     <g id="line2d_6">
      <g>
       <use style="stroke:#000000;stroke-width:0.8;" x="132.636621" xlink:href="#m1978fd47ca" y="228.14"/>
      </g>
     </g>
     <g id="text_3">
      <!-- 1.0 -->
      <defs>
       <path d="M 21.875 56.25 
Q 16.796875 51.171875 8.984375 46.484375 
L 8.984375 53.90625 
Q 18.75 60.546875 25 69.53125 
L 29.6875 69.53125 
L 29.6875 2.34375 
L 21.875 2.34375 
z
" id="SimHei-49"/>
      </defs>
      <g transform="translate(125.136621 242.015)scale(0.1 -0.1)">
       <use xlink:href="#SimHei-49"/>
       <use x="50" xlink:href="#SimHei-46"/>
       <use x="100" xlink:href="#SimHei-48"/>
      </g>
     </g>
    </g>
    <g id="xtick_4">
     <g id="line2d_7">
      <path clip-path="url(#pd60adff916)" d="M 170.683341 228.14 
L 170.683341 10.7 
" style="fill:none;stroke:#b0b0b0;stroke-linecap:square;stroke-width:0.8;"/>
     </g>
     <g id="line2d_8">
      <g>
       <use style="stroke:#000000;stroke-width:0.8;" x="170.683341" xlink:href="#m1978fd47ca" y="228.14"/>
      </g>
     </g>
     <g id="text_4">
      <!-- 1.5 -->
      <g transform="translate(163.183341 242.015)scale(0.1 -0.1)">
       <use xlink:href="#SimHei-49"/>
       <use x="50" xlink:href="#SimHei-46"/>
       <use x="100" xlink:href="#SimHei-53"/>
      </g>
     </g>
    </g>
    <g id="xtick_5">
     <g id="line2d_9">
      <path clip-path="url(#pd60adff916)" d="M 208.730061 228.14 
L 208.730061 10.7 
" style="fill:none;stroke:#b0b0b0;stroke-linecap:square;stroke-width:0.8;"/>
     </g>
     <g id="line2d_10">
      <g>
       <use style="stroke:#000000;stroke-width:0.8;" x="208.730061" xlink:href="#m1978fd47ca" y="228.14"/>
      </g>
     </g>
     <g id="text_5">
      <!-- 2.0 -->
      <defs>
       <path d="M 4.6875 3.90625 
Q 5.078125 9.765625 10.15625 14.453125 
Q 15.234375 19.140625 23.046875 29.09375 
Q 30.859375 39.0625 33.203125 44.53125 
Q 35.546875 50 34.953125 53.90625 
Q 34.375 57.8125 31.25 60.34375 
Q 28.125 62.890625 24.015625 62.5 
Q 19.921875 62.109375 16.203125 59.375 
Q 12.5 56.640625 10.546875 51.171875 
L 3.125 52.34375 
Q 6.25 61.328125 11.125 65.421875 
Q 16.015625 69.53125 22.65625 69.921875 
Q 26.5625 70.3125 29.6875 69.71875 
Q 32.8125 69.140625 36.125 66.984375 
Q 39.453125 64.84375 41.59375 60.546875 
Q 43.75 56.25 43.15625 50.1875 
Q 42.578125 44.140625 37.109375 35.734375 
Q 31.640625 27.34375 16.015625 9.375 
L 44.140625 9.375 
L 44.140625 2.34375 
L 4.6875 2.34375 
z
" id="SimHei-50"/>
      </defs>
      <g transform="translate(201.230061 242.015)scale(0.1 -0.1)">
       <use xlink:href="#SimHei-50"/>
       <use x="50" xlink:href="#SimHei-46"/>
       <use x="100" xlink:href="#SimHei-48"/>
      </g>
     </g>
    </g>
    <g id="xtick_6">
     <g id="line2d_11">
      <path clip-path="url(#pd60adff916)" d="M 246.776781 228.14 
L 246.776781 10.7 
" style="fill:none;stroke:#b0b0b0;stroke-linecap:square;stroke-width:0.8;"/>
     </g>
     <g id="line2d_12">
      <g>
       <use style="stroke:#000000;stroke-width:0.8;" x="246.776781" xlink:href="#m1978fd47ca" y="228.14"/>
      </g>
     </g>
     <g id="text_6">
      <!-- 2.5 -->
      <g transform="translate(239.276781 242.015)scale(0.1 -0.1)">
       <use xlink:href="#SimHei-50"/>
       <use x="50" xlink:href="#SimHei-46"/>
       <use x="100" xlink:href="#SimHei-53"/>
      </g>
     </g>
    </g>
    <g id="xtick_7">
     <g id="line2d_13">
      <path clip-path="url(#pd60adff916)" d="M 284.8235 228.14 
L 284.8235 10.7 
" style="fill:none;stroke:#b0b0b0;stroke-linecap:square;stroke-width:0.8;"/>
     </g>
     <g id="line2d_14">
      <g>
       <use style="stroke:#000000;stroke-width:0.8;" x="284.8235" xlink:href="#m1978fd47ca" y="228.14"/>
      </g>
     </g>
     <g id="text_7">
      <!-- 3.0 -->
      <defs>
       <path d="M 3.90625 19.140625 
L 10.9375 20.3125 
Q 12.5 15.234375 16.015625 11.90625 
Q 19.53125 8.59375 24.796875 8.78125 
Q 30.078125 8.984375 33.203125 13.078125 
Q 36.328125 17.1875 35.9375 22.453125 
Q 35.546875 27.734375 31.828125 30.65625 
Q 28.125 33.59375 19.921875 34.765625 
L 19.921875 39.84375 
Q 28.125 40.625 31.828125 44.140625 
Q 35.546875 47.65625 35.15625 53.3125 
Q 34.765625 58.984375 30.078125 61.515625 
Q 25.390625 64.0625 20.109375 62.109375 
Q 14.84375 60.15625 11.71875 51.171875 
L 4.6875 52.34375 
Q 7.03125 59.375 11.125 64.0625 
Q 15.234375 68.75 22.265625 69.53125 
Q 29.296875 70.3125 34.5625 67.765625 
Q 39.84375 65.234375 41.984375 59.953125 
Q 44.140625 54.6875 42.578125 48.4375 
Q 41.015625 42.1875 33.59375 37.5 
Q 39.0625 35.15625 41.984375 30.46875 
Q 44.921875 25.78125 43.9375 18.15625 
Q 42.96875 10.546875 37.109375 5.859375 
Q 31.25 1.171875 23.828125 1.359375 
Q 16.40625 1.5625 10.9375 6.046875 
Q 5.46875 10.546875 3.90625 19.140625 
z
" id="SimHei-51"/>
      </defs>
      <g transform="translate(277.3235 242.015)scale(0.1 -0.1)">
       <use xlink:href="#SimHei-51"/>
       <use x="50" xlink:href="#SimHei-46"/>
       <use x="100" xlink:href="#SimHei-48"/>
      </g>
     </g>
    </g>
    <g id="xtick_8">
     <g id="line2d_15">
      <path clip-path="url(#pd60adff916)" d="M 322.87022 228.14 
L 322.87022 10.7 
" style="fill:none;stroke:#b0b0b0;stroke-linecap:square;stroke-width:0.8;"/>
     </g>
     <g id="line2d_16">
      <g>
       <use style="stroke:#000000;stroke-width:0.8;" x="322.87022" xlink:href="#m1978fd47ca" y="228.14"/>
      </g>
     </g>
     <g id="text_8">
      <!-- 3.5 -->
      <g transform="translate(315.37022 242.015)scale(0.1 -0.1)">
       <use xlink:href="#SimHei-51"/>
       <use x="50" xlink:href="#SimHei-46"/>
       <use x="100" xlink:href="#SimHei-53"/>
      </g>
     </g>
    </g>
    <g id="xtick_9">
     <g id="line2d_17">
      <path clip-path="url(#pd60adff916)" d="M 360.91694 228.14 
L 360.91694 10.7 
" style="fill:none;stroke:#b0b0b0;stroke-linecap:square;stroke-width:0.8;"/>
     </g>
     <g id="line2d_18">
      <g>
       <use style="stroke:#000000;stroke-width:0.8;" x="360.91694" xlink:href="#m1978fd47ca" y="228.14"/>
      </g>
     </g>
     <g id="text_9">
      <!-- 4.0 -->
      <defs>
       <path d="M 31.25 17.1875 
L 1.171875 17.1875 
L 1.171875 23.828125 
L 32.8125 69.53125 
L 38.671875 69.53125 
L 38.671875 23.828125 
L 48.046875 23.828125 
L 48.046875 17.1875 
L 38.671875 17.1875 
L 38.671875 2.34375 
L 31.25 2.34375 
z
M 31.25 23.828125 
L 31.25 54.6875 
L 9.375 23.828125 
z
" id="SimHei-52"/>
      </defs>
      <g transform="translate(353.41694 242.015)scale(0.1 -0.1)">
       <use xlink:href="#SimHei-52"/>
       <use x="50" xlink:href="#SimHei-46"/>
       <use x="100" xlink:href="#SimHei-48"/>
      </g>
     </g>
    </g>
    <g id="text_10">
     <!-- F1 -->
     <defs>
      <path d="M 45.703125 61.328125 
L 13.671875 61.328125 
L 13.671875 39.453125 
L 37.890625 39.453125 
L 37.890625 32.03125 
L 13.671875 32.03125 
L 13.671875 1.953125 
L 4.6875 1.953125 
L 4.6875 68.75 
L 45.703125 68.75 
z
" id="SimHei-70"/>
     </defs>
     <g transform="translate(203.725 254.14)scale(0.1 -0.1)">
      <use xlink:href="#SimHei-70"/>
      <use x="50" xlink:href="#SimHei-49"/>
     </g>
    </g>
   </g>
   <g id="matplotlib.axis_2">
    <g id="ytick_1">
     <g id="line2d_19">
      <path clip-path="url(#pd60adff916)" d="M 41.325 218.256364 
L 376.125 218.256364 
" style="fill:none;stroke:#b0b0b0;stroke-linecap:square;stroke-width:0.8;"/>
     </g>
     <g id="line2d_20">
      <defs>
       <path d="M 0 0 
L -3.5 0 
" id="mc35eb3fea2" style="stroke:#000000;stroke-width:0.8;"/>
      </defs>
      <g>
       <use style="stroke:#000000;stroke-width:0.8;" x="41.325" xlink:href="#mc35eb3fea2" y="218.256364"/>
      </g>
     </g>
     <g id="text_11">
      <!-- 0.0 -->
      <g transform="translate(19.325 221.693864)scale(0.1 -0.1)">
       <use xlink:href="#SimHei-48"/>
       <use x="50" xlink:href="#SimHei-46"/>
       <use x="100" xlink:href="#SimHei-48"/>
      </g>
     </g>
    </g>
    <g id="ytick_2">
     <g id="line2d_21">
      <path clip-path="url(#pd60adff916)" d="M 41.325 193.546155 
L 376.125 193.546155 
" style="fill:none;stroke:#b0b0b0;stroke-linecap:square;stroke-width:0.8;"/>
     </g>
     <g id="line2d_22">
      <g>
       <use style="stroke:#000000;stroke-width:0.8;" x="41.325" xlink:href="#mc35eb3fea2" y="193.546155"/>
      </g>
     </g>
     <g id="text_12">
      <!-- 0.5 -->
      <g transform="translate(19.325 196.983655)scale(0.1 -0.1)">
       <use xlink:href="#SimHei-48"/>
       <use x="50" xlink:href="#SimHei-46"/>
       <use x="100" xlink:href="#SimHei-53"/>
      </g>
     </g>
    </g>
    <g id="ytick_3">
     <g id="line2d_23">
      <path clip-path="url(#pd60adff916)" d="M 41.325 168.835946 
L 376.125 168.835946 
" style="fill:none;stroke:#b0b0b0;stroke-linecap:square;stroke-width:0.8;"/>
     </g>
     <g id="line2d_24">
      <g>
       <use style="stroke:#000000;stroke-width:0.8;" x="41.325" xlink:href="#mc35eb3fea2" y="168.835946"/>
      </g>
     </g>
     <g id="text_13">
      <!-- 1.0 -->
      <g transform="translate(19.325 172.273446)scale(0.1 -0.1)">
       <use xlink:href="#SimHei-49"/>
       <use x="50" xlink:href="#SimHei-46"/>
       <use x="100" xlink:href="#SimHei-48"/>
      </g>
     </g>
    </g>
    <g id="ytick_4">
     <g id="line2d_25">
      <path clip-path="url(#pd60adff916)" d="M 41.325 144.125737 
L 376.125 144.125737 
" style="fill:none;stroke:#b0b0b0;stroke-linecap:square;stroke-width:0.8;"/>
     </g>
     <g id="line2d_26">
      <g>
       <use style="stroke:#000000;stroke-width:0.8;" x="41.325" xlink:href="#mc35eb3fea2" y="144.125737"/>
      </g>
     </g>
     <g id="text_14">
      <!-- 1.5 -->
      <g transform="translate(19.325 147.563237)scale(0.1 -0.1)">
       <use xlink:href="#SimHei-49"/>
       <use x="50" xlink:href="#SimHei-46"/>
       <use x="100" xlink:href="#SimHei-53"/>
      </g>
     </g>
    </g>
    <g id="ytick_5">
     <g id="line2d_27">
      <path clip-path="url(#pd60adff916)" d="M 41.325 119.415528 
L 376.125 119.415528 
" style="fill:none;stroke:#b0b0b0;stroke-linecap:square;stroke-width:0.8;"/>
     </g>
     <g id="line2d_28">
      <g>
       <use style="stroke:#000000;stroke-width:0.8;" x="41.325" xlink:href="#mc35eb3fea2" y="119.415528"/>
      </g>
     </g>
     <g id="text_15">
      <!-- 2.0 -->
      <g transform="translate(19.325 122.853028)scale(0.1 -0.1)">
       <use xlink:href="#SimHei-50"/>
       <use x="50" xlink:href="#SimHei-46"/>
       <use x="100" xlink:href="#SimHei-48"/>
      </g>
     </g>
    </g>
    <g id="ytick_6">
     <g id="line2d_29">
      <path clip-path="url(#pd60adff916)" d="M 41.325 94.70532 
L 376.125 94.70532 
" style="fill:none;stroke:#b0b0b0;stroke-linecap:square;stroke-width:0.8;"/>
     </g>
     <g id="line2d_30">
      <g>
       <use style="stroke:#000000;stroke-width:0.8;" x="41.325" xlink:href="#mc35eb3fea2" y="94.70532"/>
      </g>
     </g>
     <g id="text_16">
      <!-- 2.5 -->
      <g transform="translate(19.325 98.14282)scale(0.1 -0.1)">
       <use xlink:href="#SimHei-50"/>
       <use x="50" xlink:href="#SimHei-46"/>
       <use x="100" xlink:href="#SimHei-53"/>
      </g>
     </g>
    </g>
    <g id="ytick_7">
     <g id="line2d_31">
      <path clip-path="url(#pd60adff916)" d="M 41.325 69.995111 
L 376.125 69.995111 
" style="fill:none;stroke:#b0b0b0;stroke-linecap:square;stroke-width:0.8;"/>
     </g>
     <g id="line2d_32">
      <g>
       <use style="stroke:#000000;stroke-width:0.8;" x="41.325" xlink:href="#mc35eb3fea2" y="69.995111"/>
      </g>
     </g>
     <g id="text_17">
      <!-- 3.0 -->
      <g transform="translate(19.325 73.432611)scale(0.1 -0.1)">
       <use xlink:href="#SimHei-51"/>
       <use x="50" xlink:href="#SimHei-46"/>
       <use x="100" xlink:href="#SimHei-48"/>
      </g>
     </g>
    </g>
    <g id="ytick_8">
     <g id="line2d_33">
      <path clip-path="url(#pd60adff916)" d="M 41.325 45.284902 
L 376.125 45.284902 
" style="fill:none;stroke:#b0b0b0;stroke-linecap:square;stroke-width:0.8;"/>
     </g>
     <g id="line2d_34">
      <g>
       <use style="stroke:#000000;stroke-width:0.8;" x="41.325" xlink:href="#mc35eb3fea2" y="45.284902"/>
      </g>
     </g>
     <g id="text_18">
      <!-- 3.5 -->
      <g transform="translate(19.325 48.722402)scale(0.1 -0.1)">
       <use xlink:href="#SimHei-51"/>
       <use x="50" xlink:href="#SimHei-46"/>
       <use x="100" xlink:href="#SimHei-53"/>
      </g>
     </g>
    </g>
    <g id="ytick_9">
     <g id="line2d_35">
      <path clip-path="url(#pd60adff916)" d="M 41.325 20.574693 
L 376.125 20.574693 
" style="fill:none;stroke:#b0b0b0;stroke-linecap:square;stroke-width:0.8;"/>
     </g>
     <g id="line2d_36">
      <g>
       <use style="stroke:#000000;stroke-width:0.8;" x="41.325" xlink:href="#mc35eb3fea2" y="20.574693"/>
      </g>
     </g>
     <g id="text_19">
      <!-- 4.0 -->
      <g transform="translate(19.325 24.012193)scale(0.1 -0.1)">
       <use xlink:href="#SimHei-52"/>
       <use x="50" xlink:href="#SimHei-46"/>
       <use x="100" xlink:href="#SimHei-48"/>
      </g>
     </g>
    </g>
    <g id="text_20">
     <!-- F2 -->
     <g transform="translate(14.075 124.42)rotate(-90)scale(0.1 -0.1)">
      <use xlink:href="#SimHei-70"/>
      <use x="50" xlink:href="#SimHei-50"/>
     </g>
    </g>
   </g>
   <g id="line2d_37">
    <defs>
     <path d="M 0 1.5 
C 0.397805 1.5 0.77937 1.341951 1.06066 1.06066 
C 1.341951 0.77937 1.5 0.397805 1.5 0 
C 1.5 -0.397805 1.341951 -0.77937 1.06066 -1.06066 
C 0.77937 -1.341951 0.397805 -1.5 0 -1.5 
C -0.397805 -1.5 -0.77937 -1.341951 -1.06066 -1.06066 
C -1.341951 -0.77937 -1.5 -0.397805 -1.5 0 
C -1.5 0.397805 -1.341951 0.77937 -1.06066 1.06066 
C -0.77937 1.341951 -0.397805 1.5 0 1.5 
z
" id="m5a9d6f5e79" style="stroke:#4682b4;"/>
    </defs>
    <g clip-path="url(#pd60adff916)">
     <use style="fill:#4682b4;stroke:#4682b4;" x="337.37909" xlink:href="#m5a9d6f5e79" y="217.948806"/>
     <use style="fill:#4682b4;stroke:#4682b4;" x="111.262365" xlink:href="#m5a9d6f5e79" y="152.670406"/>
     <use style="fill:#4682b4;stroke:#4682b4;" x="241.061728" xlink:href="#m5a9d6f5e79" y="208.566727"/>
     <use style="fill:#4682b4;stroke:#4682b4;" x="81.810982" xlink:href="#m5a9d6f5e79" y="118.077856"/>
     <use style="fill:#4682b4;stroke:#4682b4;" x="249.315844" xlink:href="#m5a9d6f5e79" y="210.015751"/>
     <use style="fill:#4682b4;stroke:#4682b4;" x="303.664903" xlink:href="#m5a9d6f5e79" y="216.321083"/>
     <use style="fill:#4682b4;stroke:#4682b4;" x="293.085693" xlink:href="#m5a9d6f5e79" y="215.483195"/>
     <use style="fill:#4682b4;stroke:#4682b4;" x="255.036847" xlink:href="#m5a9d6f5e79" y="210.93487"/>
     <use style="fill:#4682b4;stroke:#4682b4;" x="79.72175" xlink:href="#m5a9d6f5e79" y="114.623755"/>
     <use style="fill:#4682b4;stroke:#4682b4;" x="58.342081" xlink:href="#m5a9d6f5e79" y="49.800951"/>
     <use style="fill:#4682b4;stroke:#4682b4;" x="272.45958" xlink:href="#m5a9d6f5e79" y="213.336824"/>
     <use style="fill:#4682b4;stroke:#4682b4;" x="73.289724" xlink:href="#m5a9d6f5e79" y="102.43581"/>
     <use style="fill:#4682b4;stroke:#4682b4;" x="56.632332" xlink:href="#m5a9d6f5e79" y="27.283122"/>
     <use style="fill:#4682b4;stroke:#4682b4;" x="97.041082" xlink:href="#m5a9d6f5e79" y="138.487056"/>
     <use style="fill:#4682b4;stroke:#4682b4;" x="61.057073" xlink:href="#m5a9d6f5e79" y="65.789955"/>
     <use style="fill:#4682b4;stroke:#4682b4;" x="234.121747" xlink:href="#m5a9d6f5e79" y="207.22959"/>
     <use style="fill:#4682b4;stroke:#4682b4;" x="85.523499" xlink:href="#m5a9d6f5e79" y="123.748497"/>
     <use style="fill:#4682b4;stroke:#4682b4;" x="90.612474" xlink:href="#m5a9d6f5e79" y="130.721663"/>
     <use style="fill:#4682b4;stroke:#4682b4;" x="360.906818" xlink:href="#m5a9d6f5e79" y="218.256364"/>
     <use style="fill:#4682b4;stroke:#4682b4;" x="87.449327" xlink:href="#m5a9d6f5e79" y="126.486023"/>
     <use style="fill:#4682b4;stroke:#4682b4;" x="56.614539" xlink:href="#m5a9d6f5e79" y="26.581911"/>
     <use style="fill:#4682b4;stroke:#4682b4;" x="263.182206" xlink:href="#m5a9d6f5e79" y="212.129722"/>
     <use style="fill:#4682b4;stroke:#4682b4;" x="343.573736" xlink:href="#m5a9d6f5e79" y="218.091169"/>
     <use style="fill:#4682b4;stroke:#4682b4;" x="132.582548" xlink:href="#m5a9d6f5e79" y="168.800815"/>
     <use style="fill:#4682b4;stroke:#4682b4;" x="67.521395" xlink:href="#m5a9d6f5e79" y="88.530612"/>
     <use style="fill:#4682b4;stroke:#4682b4;" x="351.342835" xlink:href="#m5a9d6f5e79" y="218.206682"/>
     <use style="fill:#4682b4;stroke:#4682b4;" x="108.053787" xlink:href="#m5a9d6f5e79" y="149.765244"/>
     <use style="fill:#4682b4;stroke:#4682b4;" x="59.135533" xlink:href="#m5a9d6f5e79" y="55.378171"/>
     <use style="fill:#4682b4;stroke:#4682b4;" x="64.719339" xlink:href="#m5a9d6f5e79" y="80.06339"/>
     <use style="fill:#4682b4;stroke:#4682b4;" x="92.719268" xlink:href="#m5a9d6f5e79" y="133.381831"/>
     <use style="fill:#4682b4;stroke:#4682b4;" x="311.61075" xlink:href="#m5a9d6f5e79" y="216.842448"/>
     <use style="fill:#4682b4;stroke:#4682b4;" x="125.432012" xlink:href="#m5a9d6f5e79" y="163.924101"/>
     <use style="fill:#4682b4;stroke:#4682b4;" x="65.618954" xlink:href="#m5a9d6f5e79" y="82.950986"/>
     <use style="fill:#4682b4;stroke:#4682b4;" x="282.239363" xlink:href="#m5a9d6f5e79" y="214.442985"/>
     <use style="fill:#4682b4;stroke:#4682b4;" x="57.261433" xlink:href="#m5a9d6f5e79" y="39.313954"/>
     <use style="fill:#4682b4;stroke:#4682b4;" x="122.704368" xlink:href="#m5a9d6f5e79" y="161.934305"/>
     <use style="fill:#4682b4;stroke:#4682b4;" x="102.446976" xlink:href="#m5a9d6f5e79" y="144.299976"/>
     <use style="fill:#4682b4;stroke:#4682b4;" x="66.365765" xlink:href="#m5a9d6f5e79" y="85.219305"/>
     <use style="fill:#4682b4;stroke:#4682b4;" x="115.534736" xlink:href="#m5a9d6f5e79" y="156.316925"/>
     <use style="fill:#4682b4;stroke:#4682b4;" x="75.913461" xlink:href="#m5a9d6f5e79" y="107.732293"/>
     <use style="fill:#4682b4;stroke:#4682b4;" x="56.543182" xlink:href="#m5a9d6f5e79" y="20.583636"/>
     <use style="fill:#4682b4;stroke:#4682b4;" x="227.799162" xlink:href="#m5a9d6f5e79" y="205.911159"/>
     <use style="fill:#4682b4;stroke:#4682b4;" x="59.84288" xlink:href="#m5a9d6f5e79" y="59.59681"/>
     <use style="fill:#4682b4;stroke:#4682b4;" x="63.317534" xlink:href="#m5a9d6f5e79" y="75.157931"/>
     <use style="fill:#4682b4;stroke:#4682b4;" x="69.85534" xlink:href="#m5a9d6f5e79" y="94.611996"/>
     <use style="fill:#4682b4;stroke:#4682b4;" x="326.126248" xlink:href="#m5a9d6f5e79" y="217.570914"/>
     <use style="fill:#4682b4;stroke:#4682b4;" x="95.446321" xlink:href="#m5a9d6f5e79" y="136.654785"/>
     <use style="fill:#4682b4;stroke:#4682b4;" x="61.560961" xlink:href="#m5a9d6f5e79" y="68.078945"/>
     <use style="fill:#4682b4;stroke:#4682b4;" x="77.410451" xlink:href="#m5a9d6f5e79" y="110.542345"/>
     <use style="fill:#4682b4;stroke:#4682b4;" x="118.55942" xlink:href="#m5a9d6f5e79" y="158.758895"/>
    </g>
   </g>
   <g id="patch_3">
    <path d="M 41.325 228.14 
L 41.325 10.7 
" style="fill:none;stroke:#000000;stroke-linecap:square;stroke-linejoin:miter;stroke-width:0.8;"/>
   </g>
   <g id="patch_4">
    <path d="M 376.125 228.14 
L 376.125 10.7 
" style="fill:none;stroke:#000000;stroke-linecap:square;stroke-linejoin:miter;stroke-width:0.8;"/>
   </g>
   <g id="patch_5">
    <path d="M 41.325 228.14 
L 376.125 228.14 
" style="fill:none;stroke:#000000;stroke-linecap:square;stroke-linejoin:miter;stroke-width:0.8;"/>
   </g>
   <g id="patch_6">
    <path d="M 41.325 10.7 
L 376.125 10.7 
" style="fill:none;stroke:#000000;stroke-linecap:square;stroke-linejoin:miter;stroke-width:0.8;"/>
   </g>
  </g>
 </g>
 <defs>
  <clipPath id="pd60adff916">
   <rect height="217.44" width="334.8" x="41.325" y="10.7"/>
  </clipPath>
 </defs>
</svg>
