<?xml version="1.0" encoding="utf-8" standalone="no"?>
<!DOCTYPE svg PUBLIC "-//W3C//DTD SVG 1.1//EN"
  "http://www.w3.org/Graphics/SVG/1.1/DTD/svg11.dtd">
<!-- Created with matplotlib (https://matplotlib.org/) -->
<svg height="262.59pt" version="1.1" viewBox="0 0 386.825 262.59" width="386.825pt" xmlns="http://www.w3.org/2000/svg" xmlns:xlink="http://www.w3.org/1999/xlink">
 <defs>
  <style type="text/css">
*{stroke-linecap:butt;stroke-linejoin:round;}
  </style>
 </defs>
 <g id="figure_1">
  <g id="patch_1">
   <path d="M 0 262.59 
L 386.825 262.59 
L 386.825 0 
L 0 0 
z
" style="fill:#ffffff;"/>
  </g>
  <g id="axes_1">
   <g id="patch_2">
    <path d="M 41.325 228.14 
L 376.125 228.14 
L 376.125 10.7 
L 41.325 10.7 
z
" style="fill:#ffffff;"/>
   </g>
   <g id="matplotlib.axis_1">
    <g id="xtick_1">
     <g id="line2d_1">
      <path clip-path="url(#paca71b53a9)" d="M 56.543182 228.14 
L 56.543182 10.7 
" style="fill:none;stroke:#b0b0b0;stroke-linecap:square;stroke-width:0.8;"/>
     </g>
     <g id="line2d_2">
      <defs>
       <path d="M 0 0 
L 0 3.5 
" id="m4fff78b1a6" style="stroke:#000000;stroke-width:0.8;"/>
      </defs>
      <g>
       <use style="stroke:#000000;stroke-width:0.8;" x="56.543182" xlink:href="#m4fff78b1a6" y="228.14"/>
      </g>
     </g>
     <g id="text_1">
      <!-- 0.0 -->
      <defs>
       <path d="M 3.125 29.296875 
Q 3.90625 50 6.4375 56.046875 
Q 8.984375 62.109375 13.671875 66.015625 
Q 18.359375 69.921875 25.1875 69.921875 
Q 32.03125 69.921875 37.109375 64.25 
Q 42.1875 58.59375 43.75 50 
Q 45.3125 41.40625 44.71875 30.265625 
Q 44.140625 19.140625 40.8125 12.109375 
Q 37.5 5.078125 30.859375 2.34375 
Q 24.21875 -0.390625 17.578125 2.921875 
Q 10.9375 6.25 8.203125 11.71875 
Q 5.46875 17.1875 4.296875 23.234375 
Q 3.125 29.296875 3.90625 50 
z
M 12.890625 52.734375 
Q 10.546875 31.25 12.5 22.84375 
Q 14.453125 14.453125 18.9375 10.9375 
Q 23.4375 7.421875 28.125 9.5625 
Q 32.8125 11.71875 34.953125 18.15625 
Q 37.109375 24.609375 37.109375 32.21875 
Q 37.109375 39.84375 36.515625 46.09375 
Q 35.9375 52.34375 33 57.421875 
Q 30.078125 62.5 25.1875 62.6875 
Q 20.3125 62.890625 16.59375 57.8125 
Q 12.890625 52.734375 10.546875 31.25 
z
" id="SimHei-48"/>
       <path d="M 16.796875 1.953125 
L 7.8125 1.953125 
L 7.8125 10.546875 
L 16.796875 10.546875 
z
" id="SimHei-46"/>
      </defs>
      <g transform="translate(49.043182 242.015)scale(0.1 -0.1)">
       <use xlink:href="#SimHei-48"/>
       <use x="50" xlink:href="#SimHei-46"/>
       <use x="100" xlink:href="#SimHei-48"/>
      </g>
     </g>
    </g>
    <g id="xtick_2">
     <g id="line2d_3">
      <path clip-path="url(#paca71b53a9)" d="M 94.572613 228.14 
L 94.572613 10.7 
" style="fill:none;stroke:#b0b0b0;stroke-linecap:square;stroke-width:0.8;"/>
     </g>
     <g id="line2d_4">
      <g>
       <use style="stroke:#000000;stroke-width:0.8;" x="94.572613" xlink:href="#m4fff78b1a6" y="228.14"/>
      </g>
     </g>
     <g id="text_2">
      <!-- 0.5 -->
      <defs>
       <path d="M 8.59375 20.703125 
Q 11.328125 10.15625 17.96875 8.984375 
Q 24.609375 7.8125 28.703125 10.34375 
Q 32.8125 12.890625 34.5625 16.984375 
Q 36.328125 21.09375 36.125 26.171875 
Q 35.9375 31.25 33.390625 34.765625 
Q 30.859375 38.28125 26.953125 39.453125 
Q 23.046875 40.625 18.15625 39.453125 
Q 13.28125 38.28125 10.15625 33.984375 
L 3.515625 34.765625 
Q 4.296875 37.109375 10.9375 68.359375 
L 41.796875 68.359375 
L 41.796875 61.328125 
L 16.796875 61.328125 
Q 14.84375 50.78125 12.890625 44.53125 
Q 18.75 47.265625 23.828125 47.0625 
Q 28.90625 46.875 33.59375 44.71875 
Q 38.28125 42.578125 40.421875 38.859375 
Q 42.578125 35.15625 43.546875 31.4375 
Q 44.53125 27.734375 44.328125 23.4375 
Q 44.140625 19.140625 42.578125 14.640625 
Q 41.015625 10.15625 37.890625 7.21875 
Q 34.765625 4.296875 30.265625 2.53125 
Q 25.78125 0.78125 19.921875 1.171875 
Q 14.0625 1.5625 8.78125 5.46875 
Q 3.515625 9.375 1.5625 18.75 
z
" id="SimHei-53"/>
      </defs>
      <g transform="translate(87.072613 242.015)scale(0.1 -0.1)">
       <use xlink:href="#SimHei-48"/>
       <use x="50" xlink:href="#SimHei-46"/>
       <use x="100" xlink:href="#SimHei-53"/>
      </g>
     </g>
    </g>
    <g id="xtick_3">
     <g id="line2d_5">
      <path clip-path="url(#paca71b53a9)" d="M 132.602045 228.14 
L 132.602045 10.7 
" style="fill:none;stroke:#b0b0b0;stroke-linecap:square;stroke-width:0.8;"/>
     </g>
     <g id="line2d_6">
      <g>
       <use style="stroke:#000000;stroke-width:0.8;" x="132.602045" xlink:href="#m4fff78b1a6" y="228.14"/>
      </g>
     </g>
     <g id="text_3">
      <!-- 1.0 -->
      <defs>
       <path d="M 21.875 56.25 
Q 16.796875 51.171875 8.984375 46.484375 
L 8.984375 53.90625 
Q 18.75 60.546875 25 69.53125 
L 29.6875 69.53125 
L 29.6875 2.34375 
L 21.875 2.34375 
z
" id="SimHei-49"/>
      </defs>
      <g transform="translate(125.102045 242.015)scale(0.1 -0.1)">
       <use xlink:href="#SimHei-49"/>
       <use x="50" xlink:href="#SimHei-46"/>
       <use x="100" xlink:href="#SimHei-48"/>
      </g>
     </g>
    </g>
    <g id="xtick_4">
     <g id="line2d_7">
      <path clip-path="url(#paca71b53a9)" d="M 170.631476 228.14 
L 170.631476 10.7 
" style="fill:none;stroke:#b0b0b0;stroke-linecap:square;stroke-width:0.8;"/>
     </g>
     <g id="line2d_8">
      <g>
       <use style="stroke:#000000;stroke-width:0.8;" x="170.631476" xlink:href="#m4fff78b1a6" y="228.14"/>
      </g>
     </g>
     <g id="text_4">
      <!-- 1.5 -->
      <g transform="translate(163.131476 242.015)scale(0.1 -0.1)">
       <use xlink:href="#SimHei-49"/>
       <use x="50" xlink:href="#SimHei-46"/>
       <use x="100" xlink:href="#SimHei-53"/>
      </g>
     </g>
    </g>
    <g id="xtick_5">
     <g id="line2d_9">
      <path clip-path="url(#paca71b53a9)" d="M 208.660908 228.14 
L 208.660908 10.7 
" style="fill:none;stroke:#b0b0b0;stroke-linecap:square;stroke-width:0.8;"/>
     </g>
     <g id="line2d_10">
      <g>
       <use style="stroke:#000000;stroke-width:0.8;" x="208.660908" xlink:href="#m4fff78b1a6" y="228.14"/>
      </g>
     </g>
     <g id="text_5">
      <!-- 2.0 -->
      <defs>
       <path d="M 4.6875 3.90625 
Q 5.078125 9.765625 10.15625 14.453125 
Q 15.234375 19.140625 23.046875 29.09375 
Q 30.859375 39.0625 33.203125 44.53125 
Q 35.546875 50 34.953125 53.90625 
Q 34.375 57.8125 31.25 60.34375 
Q 28.125 62.890625 24.015625 62.5 
Q 19.921875 62.109375 16.203125 59.375 
Q 12.5 56.640625 10.546875 51.171875 
L 3.125 52.34375 
Q 6.25 61.328125 11.125 65.421875 
Q 16.015625 69.53125 22.65625 69.921875 
Q 26.5625 70.3125 29.6875 69.71875 
Q 32.8125 69.140625 36.125 66.984375 
Q 39.453125 64.84375 41.59375 60.546875 
Q 43.75 56.25 43.15625 50.1875 
Q 42.578125 44.140625 37.109375 35.734375 
Q 31.640625 27.34375 16.015625 9.375 
L 44.140625 9.375 
L 44.140625 2.34375 
L 4.6875 2.34375 
z
" id="SimHei-50"/>
      </defs>
      <g transform="translate(201.160908 242.015)scale(0.1 -0.1)">
       <use xlink:href="#SimHei-50"/>
       <use x="50" xlink:href="#SimHei-46"/>
       <use x="100" xlink:href="#SimHei-48"/>
      </g>
     </g>
    </g>
    <g id="xtick_6">
     <g id="line2d_11">
      <path clip-path="url(#paca71b53a9)" d="M 246.690339 228.14 
L 246.690339 10.7 
" style="fill:none;stroke:#b0b0b0;stroke-linecap:square;stroke-width:0.8;"/>
     </g>
     <g id="line2d_12">
      <g>
       <use style="stroke:#000000;stroke-width:0.8;" x="246.690339" xlink:href="#m4fff78b1a6" y="228.14"/>
      </g>
     </g>
     <g id="text_6">
      <!-- 2.5 -->
      <g transform="translate(239.190339 242.015)scale(0.1 -0.1)">
       <use xlink:href="#SimHei-50"/>
       <use x="50" xlink:href="#SimHei-46"/>
       <use x="100" xlink:href="#SimHei-53"/>
      </g>
     </g>
    </g>
    <g id="xtick_7">
     <g id="line2d_13">
      <path clip-path="url(#paca71b53a9)" d="M 284.719771 228.14 
L 284.719771 10.7 
" style="fill:none;stroke:#b0b0b0;stroke-linecap:square;stroke-width:0.8;"/>
     </g>
     <g id="line2d_14">
      <g>
       <use style="stroke:#000000;stroke-width:0.8;" x="284.719771" xlink:href="#m4fff78b1a6" y="228.14"/>
      </g>
     </g>
     <g id="text_7">
      <!-- 3.0 -->
      <defs>
       <path d="M 3.90625 19.140625 
L 10.9375 20.3125 
Q 12.5 15.234375 16.015625 11.90625 
Q 19.53125 8.59375 24.796875 8.78125 
Q 30.078125 8.984375 33.203125 13.078125 
Q 36.328125 17.1875 35.9375 22.453125 
Q 35.546875 27.734375 31.828125 30.65625 
Q 28.125 33.59375 19.921875 34.765625 
L 19.921875 39.84375 
Q 28.125 40.625 31.828125 44.140625 
Q 35.546875 47.65625 35.15625 53.3125 
Q 34.765625 58.984375 30.078125 61.515625 
Q 25.390625 64.0625 20.109375 62.109375 
Q 14.84375 60.15625 11.71875 51.171875 
L 4.6875 52.34375 
Q 7.03125 59.375 11.125 64.0625 
Q 15.234375 68.75 22.265625 69.53125 
Q 29.296875 70.3125 34.5625 67.765625 
Q 39.84375 65.234375 41.984375 59.953125 
Q 44.140625 54.6875 42.578125 48.4375 
Q 41.015625 42.1875 33.59375 37.5 
Q 39.0625 35.15625 41.984375 30.46875 
Q 44.921875 25.78125 43.9375 18.15625 
Q 42.96875 10.546875 37.109375 5.859375 
Q 31.25 1.171875 23.828125 1.359375 
Q 16.40625 1.5625 10.9375 6.046875 
Q 5.46875 10.546875 3.90625 19.140625 
z
" id="SimHei-51"/>
      </defs>
      <g transform="translate(277.219771 242.015)scale(0.1 -0.1)">
       <use xlink:href="#SimHei-51"/>
       <use x="50" xlink:href="#SimHei-46"/>
       <use x="100" xlink:href="#SimHei-48"/>
      </g>
     </g>
    </g>
    <g id="xtick_8">
     <g id="line2d_15">
      <path clip-path="url(#paca71b53a9)" d="M 322.749202 228.14 
L 322.749202 10.7 
" style="fill:none;stroke:#b0b0b0;stroke-linecap:square;stroke-width:0.8;"/>
     </g>
     <g id="line2d_16">
      <g>
       <use style="stroke:#000000;stroke-width:0.8;" x="322.749202" xlink:href="#m4fff78b1a6" y="228.14"/>
      </g>
     </g>
     <g id="text_8">
      <!-- 3.5 -->
      <g transform="translate(315.249202 242.015)scale(0.1 -0.1)">
       <use xlink:href="#SimHei-51"/>
       <use x="50" xlink:href="#SimHei-46"/>
       <use x="100" xlink:href="#SimHei-53"/>
      </g>
     </g>
    </g>
    <g id="xtick_9">
     <g id="line2d_17">
      <path clip-path="url(#paca71b53a9)" d="M 360.778634 228.14 
L 360.778634 10.7 
" style="fill:none;stroke:#b0b0b0;stroke-linecap:square;stroke-width:0.8;"/>
     </g>
     <g id="line2d_18">
      <g>
       <use style="stroke:#000000;stroke-width:0.8;" x="360.778634" xlink:href="#m4fff78b1a6" y="228.14"/>
      </g>
     </g>
     <g id="text_9">
      <!-- 4.0 -->
      <defs>
       <path d="M 31.25 17.1875 
L 1.171875 17.1875 
L 1.171875 23.828125 
L 32.8125 69.53125 
L 38.671875 69.53125 
L 38.671875 23.828125 
L 48.046875 23.828125 
L 48.046875 17.1875 
L 38.671875 17.1875 
L 38.671875 2.34375 
L 31.25 2.34375 
z
M 31.25 23.828125 
L 31.25 54.6875 
L 9.375 23.828125 
z
" id="SimHei-52"/>
      </defs>
      <g transform="translate(353.278634 242.015)scale(0.1 -0.1)">
       <use xlink:href="#SimHei-52"/>
       <use x="50" xlink:href="#SimHei-46"/>
       <use x="100" xlink:href="#SimHei-48"/>
      </g>
     </g>
    </g>
    <g id="text_10">
     <!-- F1 -->
     <defs>
      <path d="M 45.703125 61.328125 
L 13.671875 61.328125 
L 13.671875 39.453125 
L 37.890625 39.453125 
L 37.890625 32.03125 
L 13.671875 32.03125 
L 13.671875 1.953125 
L 4.6875 1.953125 
L 4.6875 68.75 
L 45.703125 68.75 
z
" id="SimHei-70"/>
     </defs>
     <g transform="translate(203.725 254.14)scale(0.1 -0.1)">
      <use xlink:href="#SimHei-70"/>
      <use x="50" xlink:href="#SimHei-49"/>
     </g>
    </g>
   </g>
   <g id="matplotlib.axis_2">
    <g id="ytick_1">
     <g id="line2d_19">
      <path clip-path="url(#paca71b53a9)" d="M 41.325 218.256372 
L 376.125 218.256372 
" style="fill:none;stroke:#b0b0b0;stroke-linecap:square;stroke-width:0.8;"/>
     </g>
     <g id="line2d_20">
      <defs>
       <path d="M 0 0 
L -3.5 0 
" id="mfa2b77e6b2" style="stroke:#000000;stroke-width:0.8;"/>
      </defs>
      <g>
       <use style="stroke:#000000;stroke-width:0.8;" x="41.325" xlink:href="#mfa2b77e6b2" y="218.256372"/>
      </g>
     </g>
     <g id="text_11">
      <!-- 0.0 -->
      <g transform="translate(19.325 221.693872)scale(0.1 -0.1)">
       <use xlink:href="#SimHei-48"/>
       <use x="50" xlink:href="#SimHei-46"/>
       <use x="100" xlink:href="#SimHei-48"/>
      </g>
     </g>
    </g>
    <g id="ytick_2">
     <g id="line2d_21">
      <path clip-path="url(#paca71b53a9)" d="M 41.325 193.546237 
L 376.125 193.546237 
" style="fill:none;stroke:#b0b0b0;stroke-linecap:square;stroke-width:0.8;"/>
     </g>
     <g id="line2d_22">
      <g>
       <use style="stroke:#000000;stroke-width:0.8;" x="41.325" xlink:href="#mfa2b77e6b2" y="193.546237"/>
      </g>
     </g>
     <g id="text_12">
      <!-- 0.5 -->
      <g transform="translate(19.325 196.983737)scale(0.1 -0.1)">
       <use xlink:href="#SimHei-48"/>
       <use x="50" xlink:href="#SimHei-46"/>
       <use x="100" xlink:href="#SimHei-53"/>
      </g>
     </g>
    </g>
    <g id="ytick_3">
     <g id="line2d_23">
      <path clip-path="url(#paca71b53a9)" d="M 41.325 168.836102 
L 376.125 168.836102 
" style="fill:none;stroke:#b0b0b0;stroke-linecap:square;stroke-width:0.8;"/>
     </g>
     <g id="line2d_24">
      <g>
       <use style="stroke:#000000;stroke-width:0.8;" x="41.325" xlink:href="#mfa2b77e6b2" y="168.836102"/>
      </g>
     </g>
     <g id="text_13">
      <!-- 1.0 -->
      <g transform="translate(19.325 172.273602)scale(0.1 -0.1)">
       <use xlink:href="#SimHei-49"/>
       <use x="50" xlink:href="#SimHei-46"/>
       <use x="100" xlink:href="#SimHei-48"/>
      </g>
     </g>
    </g>
    <g id="ytick_4">
     <g id="line2d_25">
      <path clip-path="url(#paca71b53a9)" d="M 41.325 144.125967 
L 376.125 144.125967 
" style="fill:none;stroke:#b0b0b0;stroke-linecap:square;stroke-width:0.8;"/>
     </g>
     <g id="line2d_26">
      <g>
       <use style="stroke:#000000;stroke-width:0.8;" x="41.325" xlink:href="#mfa2b77e6b2" y="144.125967"/>
      </g>
     </g>
     <g id="text_14">
      <!-- 1.5 -->
      <g transform="translate(19.325 147.563467)scale(0.1 -0.1)">
       <use xlink:href="#SimHei-49"/>
       <use x="50" xlink:href="#SimHei-46"/>
       <use x="100" xlink:href="#SimHei-53"/>
      </g>
     </g>
    </g>
    <g id="ytick_5">
     <g id="line2d_27">
      <path clip-path="url(#paca71b53a9)" d="M 41.325 119.415832 
L 376.125 119.415832 
" style="fill:none;stroke:#b0b0b0;stroke-linecap:square;stroke-width:0.8;"/>
     </g>
     <g id="line2d_28">
      <g>
       <use style="stroke:#000000;stroke-width:0.8;" x="41.325" xlink:href="#mfa2b77e6b2" y="119.415832"/>
      </g>
     </g>
     <g id="text_15">
      <!-- 2.0 -->
      <g transform="translate(19.325 122.853332)scale(0.1 -0.1)">
       <use xlink:href="#SimHei-50"/>
       <use x="50" xlink:href="#SimHei-46"/>
       <use x="100" xlink:href="#SimHei-48"/>
      </g>
     </g>
    </g>
    <g id="ytick_6">
     <g id="line2d_29">
      <path clip-path="url(#paca71b53a9)" d="M 41.325 94.705697 
L 376.125 94.705697 
" style="fill:none;stroke:#b0b0b0;stroke-linecap:square;stroke-width:0.8;"/>
     </g>
     <g id="line2d_30">
      <g>
       <use style="stroke:#000000;stroke-width:0.8;" x="41.325" xlink:href="#mfa2b77e6b2" y="94.705697"/>
      </g>
     </g>
     <g id="text_16">
      <!-- 2.5 -->
      <g transform="translate(19.325 98.143197)scale(0.1 -0.1)">
       <use xlink:href="#SimHei-50"/>
       <use x="50" xlink:href="#SimHei-46"/>
       <use x="100" xlink:href="#SimHei-53"/>
      </g>
     </g>
    </g>
    <g id="ytick_7">
     <g id="line2d_31">
      <path clip-path="url(#paca71b53a9)" d="M 41.325 69.995561 
L 376.125 69.995561 
" style="fill:none;stroke:#b0b0b0;stroke-linecap:square;stroke-width:0.8;"/>
     </g>
     <g id="line2d_32">
      <g>
       <use style="stroke:#000000;stroke-width:0.8;" x="41.325" xlink:href="#mfa2b77e6b2" y="69.995561"/>
      </g>
     </g>
     <g id="text_17">
      <!-- 3.0 -->
      <g transform="translate(19.325 73.433061)scale(0.1 -0.1)">
       <use xlink:href="#SimHei-51"/>
       <use x="50" xlink:href="#SimHei-46"/>
       <use x="100" xlink:href="#SimHei-48"/>
      </g>
     </g>
    </g>
    <g id="ytick_8">
     <g id="line2d_33">
      <path clip-path="url(#paca71b53a9)" d="M 41.325 45.285426 
L 376.125 45.285426 
" style="fill:none;stroke:#b0b0b0;stroke-linecap:square;stroke-width:0.8;"/>
     </g>
     <g id="line2d_34">
      <g>
       <use style="stroke:#000000;stroke-width:0.8;" x="41.325" xlink:href="#mfa2b77e6b2" y="45.285426"/>
      </g>
     </g>
     <g id="text_18">
      <!-- 3.5 -->
      <g transform="translate(19.325 48.722926)scale(0.1 -0.1)">
       <use xlink:href="#SimHei-51"/>
       <use x="50" xlink:href="#SimHei-46"/>
       <use x="100" xlink:href="#SimHei-53"/>
      </g>
     </g>
    </g>
    <g id="ytick_9">
     <g id="line2d_35">
      <path clip-path="url(#paca71b53a9)" d="M 41.325 20.575291 
L 376.125 20.575291 
" style="fill:none;stroke:#b0b0b0;stroke-linecap:square;stroke-width:0.8;"/>
     </g>
     <g id="line2d_36">
      <g>
       <use style="stroke:#000000;stroke-width:0.8;" x="41.325" xlink:href="#mfa2b77e6b2" y="20.575291"/>
      </g>
     </g>
     <g id="text_19">
      <!-- 4.0 -->
      <g transform="translate(19.325 24.012791)scale(0.1 -0.1)">
       <use xlink:href="#SimHei-52"/>
       <use x="50" xlink:href="#SimHei-46"/>
       <use x="100" xlink:href="#SimHei-48"/>
      </g>
     </g>
    </g>
    <g id="text_20">
     <!-- F2 -->
     <g transform="translate(14.075 124.42)rotate(-90)scale(0.1 -0.1)">
      <use xlink:href="#SimHei-70"/>
      <use x="50" xlink:href="#SimHei-50"/>
     </g>
    </g>
   </g>
   <g id="line2d_37">
    <defs>
     <path d="M 0 1.5 
C 0.397805 1.5 0.77937 1.341951 1.06066 1.06066 
C 1.341951 0.77937 1.5 0.397805 1.5 0 
C 1.5 -0.397805 1.341951 -0.77937 1.06066 -1.06066 
C 0.77937 -1.341951 0.397805 -1.5 0 -1.5 
C -0.397805 -1.5 -0.77937 -1.341951 -1.06066 -1.06066 
C -1.341951 -0.77937 -1.5 -0.397805 -1.5 0 
C -1.5 0.397805 -1.341951 0.77937 -1.06066 1.06066 
C -0.77937 1.341951 -0.397805 1.5 0 1.5 
z
" id="m4b619403da" style="stroke:#4682b4;"/>
    </defs>
    <g clip-path="url(#paca71b53a9)">
     <use style="fill:#4682b4;stroke:#4682b4;" x="116.897074" xlink:href="#m4b619403da" y="157.452838"/>
     <use style="fill:#4682b4;stroke:#4682b4;" x="100.23787" xlink:href="#m4b619403da" y="142.016059"/>
     <use style="fill:#4682b4;stroke:#4682b4;" x="61.109711" xlink:href="#m4b619403da" y="66.045804"/>
     <use style="fill:#4682b4;stroke:#4682b4;" x="227.676684" xlink:href="#m4b619403da" y="205.901534"/>
     <use style="fill:#4682b4;stroke:#4682b4;" x="58.068028" xlink:href="#m4b619403da" y="47.574526"/>
     <use style="fill:#4682b4;stroke:#4682b4;" x="111.905747" xlink:href="#m4b619403da" y="153.25736"/>
     <use style="fill:#4682b4;stroke:#4682b4;" x="56.741368" xlink:href="#m4b619403da" y="30.537341"/>
     <use style="fill:#4682b4;stroke:#4682b4;" x="250.520178" xlink:href="#m4b619403da" y="210.229385"/>
     <use style="fill:#4682b4;stroke:#4682b4;" x="97.272517" xlink:href="#m4b619403da" y="138.769322"/>
     <use style="fill:#4682b4;stroke:#4682b4;" x="132.246595" xlink:href="#m4b619403da" y="168.604603"/>
     <use style="fill:#4682b4;stroke:#4682b4;" x="58.999468" xlink:href="#m4b619403da" y="54.503923"/>
     <use style="fill:#4682b4;stroke:#4682b4;" x="314.341921" xlink:href="#m4b619403da" y="217.007757"/>
     <use style="fill:#4682b4;stroke:#4682b4;" x="351.278071" xlink:href="#m4b619403da" y="218.207412"/>
     <use style="fill:#4682b4;stroke:#4682b4;" x="340.021009" xlink:href="#m4b619403da" y="218.018113"/>
     <use style="fill:#4682b4;stroke:#4682b4;" x="262.559022" xlink:href="#m4b619403da" y="212.056001"/>
     <use style="fill:#4682b4;stroke:#4682b4;" x="298.211493" xlink:href="#m4b619403da" y="215.918961"/>
     <use style="fill:#4682b4;stroke:#4682b4;" x="59.693972" xlink:href="#m4b619403da" y="58.762646"/>
     <use style="fill:#4682b4;stroke:#4682b4;" x="88.863651" xlink:href="#m4b619403da" y="128.437864"/>
     <use style="fill:#4682b4;stroke:#4682b4;" x="103.275351" xlink:href="#m4b619403da" y="145.162784"/>
     <use style="fill:#4682b4;stroke:#4682b4;" x="106.577859" xlink:href="#m4b619403da" y="148.398629"/>
     <use style="fill:#4682b4;stroke:#4682b4;" x="303.546332" xlink:href="#m4b619403da" y="216.320649"/>
     <use style="fill:#4682b4;stroke:#4682b4;" x="132.527149" xlink:href="#m4b619403da" y="168.787414"/>
     <use style="fill:#4682b4;stroke:#4682b4;" x="330.523549" xlink:href="#m4b619403da" y="217.741701"/>
     <use style="fill:#4682b4;stroke:#4682b4;" x="126.597431" xlink:href="#m4b619403da" y="164.774118"/>
     <use style="fill:#4682b4;stroke:#4682b4;" x="58.497693" xlink:href="#m4b619403da" y="50.994377"/>
     <use style="fill:#4682b4;stroke:#4682b4;" x="84.573906" xlink:href="#m4b619403da" y="122.369164"/>
     <use style="fill:#4682b4;stroke:#4682b4;" x="66.409767" xlink:href="#m4b619403da" y="85.363301"/>
     <use style="fill:#4682b4;stroke:#4682b4;" x="121.352851" xlink:href="#m4b619403da" y="160.942161"/>
     <use style="fill:#4682b4;stroke:#4682b4;" x="360.906818" xlink:href="#m4b619403da" y="218.256364"/>
     <use style="fill:#4682b4;stroke:#4682b4;" x="89.032524" xlink:href="#m4b619403da" y="128.66435"/>
     <use style="fill:#4682b4;stroke:#4682b4;" x="81.869564" xlink:href="#m4b619403da" y="118.190534"/>
     <use style="fill:#4682b4;stroke:#4682b4;" x="73.819146" xlink:href="#m4b619403da" y="103.563111"/>
     <use style="fill:#4682b4;stroke:#4682b4;" x="68.954419" xlink:href="#m4b619403da" y="92.365117"/>
     <use style="fill:#4682b4;stroke:#4682b4;" x="63.991568" xlink:href="#m4b619403da" y="77.597221"/>
     <use style="fill:#4682b4;stroke:#4682b4;" x="320.661257" xlink:href="#m4b619403da" y="217.335258"/>
     <use style="fill:#4682b4;stroke:#4682b4;" x="57.19372" xlink:href="#m4b619403da" y="38.434716"/>
     <use style="fill:#4682b4;stroke:#4682b4;" x="283.645085" xlink:href="#m4b619403da" y="214.599179"/>
     <use style="fill:#4682b4;stroke:#4682b4;" x="341.7887" xlink:href="#m4b619403da" y="218.057573"/>
     <use style="fill:#4682b4;stroke:#4682b4;" x="239.541231" xlink:href="#m4b619403da" y="208.298984"/>
     <use style="fill:#4682b4;stroke:#4682b4;" x="270.731806" xlink:href="#m4b619403da" y="213.136133"/>
     <use style="fill:#4682b4;stroke:#4682b4;" x="56.543182" xlink:href="#m4b619403da" y="20.583636"/>
     <use style="fill:#4682b4;stroke:#4682b4;" x="93.847711" xlink:href="#m4b619403da" y="134.779163"/>
     <use style="fill:#4682b4;stroke:#4682b4;" x="112.404499" xlink:href="#m4b619403da" y="153.691276"/>
     <use style="fill:#4682b4;stroke:#4682b4;" x="76.127003" xlink:href="#m4b619403da" y="108.159211"/>
     <use style="fill:#4682b4;stroke:#4682b4;" x="56.972492" xlink:href="#m4b619403da" y="35.148023"/>
     <use style="fill:#4682b4;stroke:#4682b4;" x="70.687303" xlink:href="#m4b619403da" y="96.631776"/>
     <use style="fill:#4682b4;stroke:#4682b4;" x="56.556433" xlink:href="#m4b619403da" y="23.175935"/>
     <use style="fill:#4682b4;stroke:#4682b4;" x="77.977036" xlink:href="#m4b619403da" y="111.58818"/>
     <use style="fill:#4682b4;stroke:#4682b4;" x="63.229197" xlink:href="#m4b619403da" y="74.841254"/>
     <use style="fill:#4682b4;stroke:#4682b4;" x="278.731246" xlink:href="#m4b619403da" y="214.076324"/>
    </g>
   </g>
   <g id="patch_3">
    <path d="M 41.325 228.14 
L 41.325 10.7 
" style="fill:none;stroke:#000000;stroke-linecap:square;stroke-linejoin:miter;stroke-width:0.8;"/>
   </g>
   <g id="patch_4">
    <path d="M 376.125 228.14 
L 376.125 10.7 
" style="fill:none;stroke:#000000;stroke-linecap:square;stroke-linejoin:miter;stroke-width:0.8;"/>
   </g>
   <g id="patch_5">
    <path d="M 41.325 228.14 
L 376.125 228.14 
" style="fill:none;stroke:#000000;stroke-linecap:square;stroke-linejoin:miter;stroke-width:0.8;"/>
   </g>
   <g id="patch_6">
    <path d="M 41.325 10.7 
L 376.125 10.7 
" style="fill:none;stroke:#000000;stroke-linecap:square;stroke-linejoin:miter;stroke-width:0.8;"/>
   </g>
  </g>
 </g>
 <defs>
  <clipPath id="paca71b53a9">
   <rect height="217.44" width="334.8" x="41.325" y="10.7"/>
  </clipPath>
 </defs>
</svg>
