<?xml version="1.0" encoding="utf-8" standalone="no"?>
<!DOCTYPE svg PUBLIC "-//W3C//DTD SVG 1.1//EN"
  "http://www.w3.org/Graphics/SVG/1.1/DTD/svg11.dtd">
<!-- Created with matplotlib (https://matplotlib.org/) -->
<svg height="259.09pt" version="1.1" viewBox="0 0 383.325 259.09" width="383.325pt" xmlns="http://www.w3.org/2000/svg" xmlns:xlink="http://www.w3.org/1999/xlink">
 <defs>
  <style type="text/css">
*{stroke-linecap:butt;stroke-linejoin:round;}
  </style>
 </defs>
 <g id="figure_1">
  <g id="patch_1">
   <path d="M 0 259.09 
L 383.325 259.09 
L 383.325 0 
L 0 0 
z
" style="fill:#ffffff;"/>
  </g>
  <g id="axes_1">
   <g id="patch_2">
    <path d="M 41.325 224.64 
L 376.125 224.64 
L 376.125 7.2 
L 41.325 7.2 
z
" style="fill:#ffffff;"/>
   </g>
   <g id="matplotlib.axis_1">
    <g id="xtick_1">
     <g id="line2d_1">
      <path clip-path="url(#p2ece85a0de)" d="M 56.54318 224.64 
L 56.54318 7.2 
" style="fill:none;stroke:#b0b0b0;stroke-linecap:square;stroke-width:0.8;"/>
     </g>
     <g id="line2d_2">
      <defs>
       <path d="M 0 0 
L 0 3.5 
" id="m1c1d497a94" style="stroke:#000000;stroke-width:0.8;"/>
      </defs>
      <g>
       <use style="stroke:#000000;stroke-width:0.8;" x="56.54318" xlink:href="#m1c1d497a94" y="224.64"/>
      </g>
     </g>
     <g id="text_1">
      <!-- 0.0 -->
      <defs>
       <path d="M 3.125 29.296875 
Q 3.90625 50 6.4375 56.046875 
Q 8.984375 62.109375 13.671875 66.015625 
Q 18.359375 69.921875 25.1875 69.921875 
Q 32.03125 69.921875 37.109375 64.25 
Q 42.1875 58.59375 43.75 50 
Q 45.3125 41.40625 44.71875 30.265625 
Q 44.140625 19.140625 40.8125 12.109375 
Q 37.5 5.078125 30.859375 2.34375 
Q 24.21875 -0.390625 17.578125 2.921875 
Q 10.9375 6.25 8.203125 11.71875 
Q 5.46875 17.1875 4.296875 23.234375 
Q 3.125 29.296875 3.90625 50 
z
M 12.890625 52.734375 
Q 10.546875 31.25 12.5 22.84375 
Q 14.453125 14.453125 18.9375 10.9375 
Q 23.4375 7.421875 28.125 9.5625 
Q 32.8125 11.71875 34.953125 18.15625 
Q 37.109375 24.609375 37.109375 32.21875 
Q 37.109375 39.84375 36.515625 46.09375 
Q 35.9375 52.34375 33 57.421875 
Q 30.078125 62.5 25.1875 62.6875 
Q 20.3125 62.890625 16.59375 57.8125 
Q 12.890625 52.734375 10.546875 31.25 
z
" id="SimHei-48"/>
       <path d="M 16.796875 1.953125 
L 7.8125 1.953125 
L 7.8125 10.546875 
L 16.796875 10.546875 
z
" id="SimHei-46"/>
      </defs>
      <g transform="translate(49.04318 238.515)scale(0.1 -0.1)">
       <use xlink:href="#SimHei-48"/>
       <use x="50" xlink:href="#SimHei-46"/>
       <use x="100" xlink:href="#SimHei-48"/>
      </g>
     </g>
    </g>
    <g id="xtick_2">
     <g id="line2d_3">
      <path clip-path="url(#p2ece85a0de)" d="M 94.590872 224.64 
L 94.590872 7.2 
" style="fill:none;stroke:#b0b0b0;stroke-linecap:square;stroke-width:0.8;"/>
     </g>
     <g id="line2d_4">
      <g>
       <use style="stroke:#000000;stroke-width:0.8;" x="94.590872" xlink:href="#m1c1d497a94" y="224.64"/>
      </g>
     </g>
     <g id="text_2">
      <!-- 0.5 -->
      <defs>
       <path d="M 8.59375 20.703125 
Q 11.328125 10.15625 17.96875 8.984375 
Q 24.609375 7.8125 28.703125 10.34375 
Q 32.8125 12.890625 34.5625 16.984375 
Q 36.328125 21.09375 36.125 26.171875 
Q 35.9375 31.25 33.390625 34.765625 
Q 30.859375 38.28125 26.953125 39.453125 
Q 23.046875 40.625 18.15625 39.453125 
Q 13.28125 38.28125 10.15625 33.984375 
L 3.515625 34.765625 
Q 4.296875 37.109375 10.9375 68.359375 
L 41.796875 68.359375 
L 41.796875 61.328125 
L 16.796875 61.328125 
Q 14.84375 50.78125 12.890625 44.53125 
Q 18.75 47.265625 23.828125 47.0625 
Q 28.90625 46.875 33.59375 44.71875 
Q 38.28125 42.578125 40.421875 38.859375 
Q 42.578125 35.15625 43.546875 31.4375 
Q 44.53125 27.734375 44.328125 23.4375 
Q 44.140625 19.140625 42.578125 14.640625 
Q 41.015625 10.15625 37.890625 7.21875 
Q 34.765625 4.296875 30.265625 2.53125 
Q 25.78125 0.78125 19.921875 1.171875 
Q 14.0625 1.5625 8.78125 5.46875 
Q 3.515625 9.375 1.5625 18.75 
z
" id="SimHei-53"/>
      </defs>
      <g transform="translate(87.090872 238.515)scale(0.1 -0.1)">
       <use xlink:href="#SimHei-48"/>
       <use x="50" xlink:href="#SimHei-46"/>
       <use x="100" xlink:href="#SimHei-53"/>
      </g>
     </g>
    </g>
    <g id="xtick_3">
     <g id="line2d_5">
      <path clip-path="url(#p2ece85a0de)" d="M 132.638564 224.64 
L 132.638564 7.2 
" style="fill:none;stroke:#b0b0b0;stroke-linecap:square;stroke-width:0.8;"/>
     </g>
     <g id="line2d_6">
      <g>
       <use style="stroke:#000000;stroke-width:0.8;" x="132.638564" xlink:href="#m1c1d497a94" y="224.64"/>
      </g>
     </g>
     <g id="text_3">
      <!-- 1.0 -->
      <defs>
       <path d="M 21.875 56.25 
Q 16.796875 51.171875 8.984375 46.484375 
L 8.984375 53.90625 
Q 18.75 60.546875 25 69.53125 
L 29.6875 69.53125 
L 29.6875 2.34375 
L 21.875 2.34375 
z
" id="SimHei-49"/>
      </defs>
      <g transform="translate(125.138564 238.515)scale(0.1 -0.1)">
       <use xlink:href="#SimHei-49"/>
       <use x="50" xlink:href="#SimHei-46"/>
       <use x="100" xlink:href="#SimHei-48"/>
      </g>
     </g>
    </g>
    <g id="xtick_4">
     <g id="line2d_7">
      <path clip-path="url(#p2ece85a0de)" d="M 170.686256 224.64 
L 170.686256 7.2 
" style="fill:none;stroke:#b0b0b0;stroke-linecap:square;stroke-width:0.8;"/>
     </g>
     <g id="line2d_8">
      <g>
       <use style="stroke:#000000;stroke-width:0.8;" x="170.686256" xlink:href="#m1c1d497a94" y="224.64"/>
      </g>
     </g>
     <g id="text_4">
      <!-- 1.5 -->
      <g transform="translate(163.186256 238.515)scale(0.1 -0.1)">
       <use xlink:href="#SimHei-49"/>
       <use x="50" xlink:href="#SimHei-46"/>
       <use x="100" xlink:href="#SimHei-53"/>
      </g>
     </g>
    </g>
    <g id="xtick_5">
     <g id="line2d_9">
      <path clip-path="url(#p2ece85a0de)" d="M 208.733949 224.64 
L 208.733949 7.2 
" style="fill:none;stroke:#b0b0b0;stroke-linecap:square;stroke-width:0.8;"/>
     </g>
     <g id="line2d_10">
      <g>
       <use style="stroke:#000000;stroke-width:0.8;" x="208.733949" xlink:href="#m1c1d497a94" y="224.64"/>
      </g>
     </g>
     <g id="text_5">
      <!-- 2.0 -->
      <defs>
       <path d="M 4.6875 3.90625 
Q 5.078125 9.765625 10.15625 14.453125 
Q 15.234375 19.140625 23.046875 29.09375 
Q 30.859375 39.0625 33.203125 44.53125 
Q 35.546875 50 34.953125 53.90625 
Q 34.375 57.8125 31.25 60.34375 
Q 28.125 62.890625 24.015625 62.5 
Q 19.921875 62.109375 16.203125 59.375 
Q 12.5 56.640625 10.546875 51.171875 
L 3.125 52.34375 
Q 6.25 61.328125 11.125 65.421875 
Q 16.015625 69.53125 22.65625 69.921875 
Q 26.5625 70.3125 29.6875 69.71875 
Q 32.8125 69.140625 36.125 66.984375 
Q 39.453125 64.84375 41.59375 60.546875 
Q 43.75 56.25 43.15625 50.1875 
Q 42.578125 44.140625 37.109375 35.734375 
Q 31.640625 27.34375 16.015625 9.375 
L 44.140625 9.375 
L 44.140625 2.34375 
L 4.6875 2.34375 
z
" id="SimHei-50"/>
      </defs>
      <g transform="translate(201.233949 238.515)scale(0.1 -0.1)">
       <use xlink:href="#SimHei-50"/>
       <use x="50" xlink:href="#SimHei-46"/>
       <use x="100" xlink:href="#SimHei-48"/>
      </g>
     </g>
    </g>
    <g id="xtick_6">
     <g id="line2d_11">
      <path clip-path="url(#p2ece85a0de)" d="M 246.781641 224.64 
L 246.781641 7.2 
" style="fill:none;stroke:#b0b0b0;stroke-linecap:square;stroke-width:0.8;"/>
     </g>
     <g id="line2d_12">
      <g>
       <use style="stroke:#000000;stroke-width:0.8;" x="246.781641" xlink:href="#m1c1d497a94" y="224.64"/>
      </g>
     </g>
     <g id="text_6">
      <!-- 2.5 -->
      <g transform="translate(239.281641 238.515)scale(0.1 -0.1)">
       <use xlink:href="#SimHei-50"/>
       <use x="50" xlink:href="#SimHei-46"/>
       <use x="100" xlink:href="#SimHei-53"/>
      </g>
     </g>
    </g>
    <g id="xtick_7">
     <g id="line2d_13">
      <path clip-path="url(#p2ece85a0de)" d="M 284.829333 224.64 
L 284.829333 7.2 
" style="fill:none;stroke:#b0b0b0;stroke-linecap:square;stroke-width:0.8;"/>
     </g>
     <g id="line2d_14">
      <g>
       <use style="stroke:#000000;stroke-width:0.8;" x="284.829333" xlink:href="#m1c1d497a94" y="224.64"/>
      </g>
     </g>
     <g id="text_7">
      <!-- 3.0 -->
      <defs>
       <path d="M 3.90625 19.140625 
L 10.9375 20.3125 
Q 12.5 15.234375 16.015625 11.90625 
Q 19.53125 8.59375 24.796875 8.78125 
Q 30.078125 8.984375 33.203125 13.078125 
Q 36.328125 17.1875 35.9375 22.453125 
Q 35.546875 27.734375 31.828125 30.65625 
Q 28.125 33.59375 19.921875 34.765625 
L 19.921875 39.84375 
Q 28.125 40.625 31.828125 44.140625 
Q 35.546875 47.65625 35.15625 53.3125 
Q 34.765625 58.984375 30.078125 61.515625 
Q 25.390625 64.0625 20.109375 62.109375 
Q 14.84375 60.15625 11.71875 51.171875 
L 4.6875 52.34375 
Q 7.03125 59.375 11.125 64.0625 
Q 15.234375 68.75 22.265625 69.53125 
Q 29.296875 70.3125 34.5625 67.765625 
Q 39.84375 65.234375 41.984375 59.953125 
Q 44.140625 54.6875 42.578125 48.4375 
Q 41.015625 42.1875 33.59375 37.5 
Q 39.0625 35.15625 41.984375 30.46875 
Q 44.921875 25.78125 43.9375 18.15625 
Q 42.96875 10.546875 37.109375 5.859375 
Q 31.25 1.171875 23.828125 1.359375 
Q 16.40625 1.5625 10.9375 6.046875 
Q 5.46875 10.546875 3.90625 19.140625 
z
" id="SimHei-51"/>
      </defs>
      <g transform="translate(277.329333 238.515)scale(0.1 -0.1)">
       <use xlink:href="#SimHei-51"/>
       <use x="50" xlink:href="#SimHei-46"/>
       <use x="100" xlink:href="#SimHei-48"/>
      </g>
     </g>
    </g>
    <g id="xtick_8">
     <g id="line2d_15">
      <path clip-path="url(#p2ece85a0de)" d="M 322.877025 224.64 
L 322.877025 7.2 
" style="fill:none;stroke:#b0b0b0;stroke-linecap:square;stroke-width:0.8;"/>
     </g>
     <g id="line2d_16">
      <g>
       <use style="stroke:#000000;stroke-width:0.8;" x="322.877025" xlink:href="#m1c1d497a94" y="224.64"/>
      </g>
     </g>
     <g id="text_8">
      <!-- 3.5 -->
      <g transform="translate(315.377025 238.515)scale(0.1 -0.1)">
       <use xlink:href="#SimHei-51"/>
       <use x="50" xlink:href="#SimHei-46"/>
       <use x="100" xlink:href="#SimHei-53"/>
      </g>
     </g>
    </g>
    <g id="xtick_9">
     <g id="line2d_17">
      <path clip-path="url(#p2ece85a0de)" d="M 360.924717 224.64 
L 360.924717 7.2 
" style="fill:none;stroke:#b0b0b0;stroke-linecap:square;stroke-width:0.8;"/>
     </g>
     <g id="line2d_18">
      <g>
       <use style="stroke:#000000;stroke-width:0.8;" x="360.924717" xlink:href="#m1c1d497a94" y="224.64"/>
      </g>
     </g>
     <g id="text_9">
      <!-- 4.0 -->
      <defs>
       <path d="M 31.25 17.1875 
L 1.171875 17.1875 
L 1.171875 23.828125 
L 32.8125 69.53125 
L 38.671875 69.53125 
L 38.671875 23.828125 
L 48.046875 23.828125 
L 48.046875 17.1875 
L 38.671875 17.1875 
L 38.671875 2.34375 
L 31.25 2.34375 
z
M 31.25 23.828125 
L 31.25 54.6875 
L 9.375 23.828125 
z
" id="SimHei-52"/>
      </defs>
      <g transform="translate(353.424717 238.515)scale(0.1 -0.1)">
       <use xlink:href="#SimHei-52"/>
       <use x="50" xlink:href="#SimHei-46"/>
       <use x="100" xlink:href="#SimHei-48"/>
      </g>
     </g>
    </g>
    <g id="text_10">
     <!-- F1 -->
     <defs>
      <path d="M 45.703125 61.328125 
L 13.671875 61.328125 
L 13.671875 39.453125 
L 37.890625 39.453125 
L 37.890625 32.03125 
L 13.671875 32.03125 
L 13.671875 1.953125 
L 4.6875 1.953125 
L 4.6875 68.75 
L 45.703125 68.75 
z
" id="SimHei-70"/>
     </defs>
     <g transform="translate(203.725 250.64)scale(0.1 -0.1)">
      <use xlink:href="#SimHei-70"/>
      <use x="50" xlink:href="#SimHei-49"/>
     </g>
    </g>
   </g>
   <g id="matplotlib.axis_2">
    <g id="ytick_1">
     <g id="line2d_19">
      <path clip-path="url(#p2ece85a0de)" d="M 41.325 214.756364 
L 376.125 214.756364 
" style="fill:none;stroke:#b0b0b0;stroke-linecap:square;stroke-width:0.8;"/>
     </g>
     <g id="line2d_20">
      <defs>
       <path d="M 0 0 
L -3.5 0 
" id="m0fc3416693" style="stroke:#000000;stroke-width:0.8;"/>
      </defs>
      <g>
       <use style="stroke:#000000;stroke-width:0.8;" x="41.325" xlink:href="#m0fc3416693" y="214.756364"/>
      </g>
     </g>
     <g id="text_11">
      <!-- 0.0 -->
      <g transform="translate(19.325 218.193864)scale(0.1 -0.1)">
       <use xlink:href="#SimHei-48"/>
       <use x="50" xlink:href="#SimHei-46"/>
       <use x="100" xlink:href="#SimHei-48"/>
      </g>
     </g>
    </g>
    <g id="ytick_2">
     <g id="line2d_21">
      <path clip-path="url(#p2ece85a0de)" d="M 41.325 190.043682 
L 376.125 190.043682 
" style="fill:none;stroke:#b0b0b0;stroke-linecap:square;stroke-width:0.8;"/>
     </g>
     <g id="line2d_22">
      <g>
       <use style="stroke:#000000;stroke-width:0.8;" x="41.325" xlink:href="#m0fc3416693" y="190.043682"/>
      </g>
     </g>
     <g id="text_12">
      <!-- 0.5 -->
      <g transform="translate(19.325 193.481182)scale(0.1 -0.1)">
       <use xlink:href="#SimHei-48"/>
       <use x="50" xlink:href="#SimHei-46"/>
       <use x="100" xlink:href="#SimHei-53"/>
      </g>
     </g>
    </g>
    <g id="ytick_3">
     <g id="line2d_23">
      <path clip-path="url(#p2ece85a0de)" d="M 41.325 165.330999 
L 376.125 165.330999 
" style="fill:none;stroke:#b0b0b0;stroke-linecap:square;stroke-width:0.8;"/>
     </g>
     <g id="line2d_24">
      <g>
       <use style="stroke:#000000;stroke-width:0.8;" x="41.325" xlink:href="#m0fc3416693" y="165.330999"/>
      </g>
     </g>
     <g id="text_13">
      <!-- 1.0 -->
      <g transform="translate(19.325 168.768499)scale(0.1 -0.1)">
       <use xlink:href="#SimHei-49"/>
       <use x="50" xlink:href="#SimHei-46"/>
       <use x="100" xlink:href="#SimHei-48"/>
      </g>
     </g>
    </g>
    <g id="ytick_4">
     <g id="line2d_25">
      <path clip-path="url(#p2ece85a0de)" d="M 41.325 140.618317 
L 376.125 140.618317 
" style="fill:none;stroke:#b0b0b0;stroke-linecap:square;stroke-width:0.8;"/>
     </g>
     <g id="line2d_26">
      <g>
       <use style="stroke:#000000;stroke-width:0.8;" x="41.325" xlink:href="#m0fc3416693" y="140.618317"/>
      </g>
     </g>
     <g id="text_14">
      <!-- 1.5 -->
      <g transform="translate(19.325 144.055817)scale(0.1 -0.1)">
       <use xlink:href="#SimHei-49"/>
       <use x="50" xlink:href="#SimHei-46"/>
       <use x="100" xlink:href="#SimHei-53"/>
      </g>
     </g>
    </g>
    <g id="ytick_5">
     <g id="line2d_27">
      <path clip-path="url(#p2ece85a0de)" d="M 41.325 115.905635 
L 376.125 115.905635 
" style="fill:none;stroke:#b0b0b0;stroke-linecap:square;stroke-width:0.8;"/>
     </g>
     <g id="line2d_28">
      <g>
       <use style="stroke:#000000;stroke-width:0.8;" x="41.325" xlink:href="#m0fc3416693" y="115.905635"/>
      </g>
     </g>
     <g id="text_15">
      <!-- 2.0 -->
      <g transform="translate(19.325 119.343135)scale(0.1 -0.1)">
       <use xlink:href="#SimHei-50"/>
       <use x="50" xlink:href="#SimHei-46"/>
       <use x="100" xlink:href="#SimHei-48"/>
      </g>
     </g>
    </g>
    <g id="ytick_6">
     <g id="line2d_29">
      <path clip-path="url(#p2ece85a0de)" d="M 41.325 91.192952 
L 376.125 91.192952 
" style="fill:none;stroke:#b0b0b0;stroke-linecap:square;stroke-width:0.8;"/>
     </g>
     <g id="line2d_30">
      <g>
       <use style="stroke:#000000;stroke-width:0.8;" x="41.325" xlink:href="#m0fc3416693" y="91.192952"/>
      </g>
     </g>
     <g id="text_16">
      <!-- 2.5 -->
      <g transform="translate(19.325 94.630452)scale(0.1 -0.1)">
       <use xlink:href="#SimHei-50"/>
       <use x="50" xlink:href="#SimHei-46"/>
       <use x="100" xlink:href="#SimHei-53"/>
      </g>
     </g>
    </g>
    <g id="ytick_7">
     <g id="line2d_31">
      <path clip-path="url(#p2ece85a0de)" d="M 41.325 66.48027 
L 376.125 66.48027 
" style="fill:none;stroke:#b0b0b0;stroke-linecap:square;stroke-width:0.8;"/>
     </g>
     <g id="line2d_32">
      <g>
       <use style="stroke:#000000;stroke-width:0.8;" x="41.325" xlink:href="#m0fc3416693" y="66.48027"/>
      </g>
     </g>
     <g id="text_17">
      <!-- 3.0 -->
      <g transform="translate(19.325 69.91777)scale(0.1 -0.1)">
       <use xlink:href="#SimHei-51"/>
       <use x="50" xlink:href="#SimHei-46"/>
       <use x="100" xlink:href="#SimHei-48"/>
      </g>
     </g>
    </g>
    <g id="ytick_8">
     <g id="line2d_33">
      <path clip-path="url(#p2ece85a0de)" d="M 41.325 41.767588 
L 376.125 41.767588 
" style="fill:none;stroke:#b0b0b0;stroke-linecap:square;stroke-width:0.8;"/>
     </g>
     <g id="line2d_34">
      <g>
       <use style="stroke:#000000;stroke-width:0.8;" x="41.325" xlink:href="#m0fc3416693" y="41.767588"/>
      </g>
     </g>
     <g id="text_18">
      <!-- 3.5 -->
      <g transform="translate(19.325 45.205088)scale(0.1 -0.1)">
       <use xlink:href="#SimHei-51"/>
       <use x="50" xlink:href="#SimHei-46"/>
       <use x="100" xlink:href="#SimHei-53"/>
      </g>
     </g>
    </g>
    <g id="ytick_9">
     <g id="line2d_35">
      <path clip-path="url(#p2ece85a0de)" d="M 41.325 17.054905 
L 376.125 17.054905 
" style="fill:none;stroke:#b0b0b0;stroke-linecap:square;stroke-width:0.8;"/>
     </g>
     <g id="line2d_36">
      <g>
       <use style="stroke:#000000;stroke-width:0.8;" x="41.325" xlink:href="#m0fc3416693" y="17.054905"/>
      </g>
     </g>
     <g id="text_19">
      <!-- 4.0 -->
      <g transform="translate(19.325 20.492405)scale(0.1 -0.1)">
       <use xlink:href="#SimHei-52"/>
       <use x="50" xlink:href="#SimHei-46"/>
       <use x="100" xlink:href="#SimHei-48"/>
      </g>
     </g>
    </g>
    <g id="text_20">
     <!-- F2 -->
     <g transform="translate(14.075 120.92)rotate(-90)scale(0.1 -0.1)">
      <use xlink:href="#SimHei-70"/>
      <use x="50" xlink:href="#SimHei-50"/>
     </g>
    </g>
   </g>
   <g id="line2d_37">
    <defs>
     <path d="M 0 1.5 
C 0.397805 1.5 0.77937 1.341951 1.06066 1.06066 
C 1.341951 0.77937 1.5 0.397805 1.5 0 
C 1.5 -0.397805 1.341951 -0.77937 1.06066 -1.06066 
C 0.77937 -1.341951 0.397805 -1.5 0 -1.5 
C -0.397805 -1.5 -0.77937 -1.341951 -1.06066 -1.06066 
C -1.341951 -0.77937 -1.5 -0.397805 -1.5 0 
C -1.5 0.397805 -1.341951 0.77937 -1.06066 1.06066 
C -0.77937 1.341951 -0.397805 1.5 0 1.5 
z
" id="mc5209c1fcf" style="stroke:#4682b4;"/>
    </defs>
    <g clip-path="url(#p2ece85a0de)">
     <use style="fill:#4682b4;stroke:#4682b4;" x="62.8875" xlink:href="#mc5209c1fcf" y="70.019315"/>
     <use style="fill:#4682b4;stroke:#4682b4;" x="86.974528" xlink:href="#mc5209c1fcf" y="122.312581"/>
     <use style="fill:#4682b4;stroke:#4682b4;" x="99.917819" xlink:href="#mc5209c1fcf" y="138.144064"/>
     <use style="fill:#4682b4;stroke:#4682b4;" x="254.829673" xlink:href="#mc5209c1fcf" y="207.401238"/>
     <use style="fill:#4682b4;stroke:#4682b4;" x="352.495848" xlink:href="#mc5209c1fcf" y="214.717929"/>
     <use style="fill:#4682b4;stroke:#4682b4;" x="340.21046" xlink:href="#mc5209c1fcf" y="214.519324"/>
     <use style="fill:#4682b4;stroke:#4682b4;" x="57.020366" xlink:href="#mc5209c1fcf" y="32.40073"/>
     <use style="fill:#4682b4;stroke:#4682b4;" x="285.50927" xlink:href="#mc5209c1fcf" y="211.275724"/>
     <use style="fill:#4682b4;stroke:#4682b4;" x="62.36209" xlink:href="#mc5209c1fcf" y="67.945723"/>
     <use style="fill:#4682b4;stroke:#4682b4;" x="60.252058" xlink:href="#mc5209c1fcf" y="58.292676"/>
     <use style="fill:#4682b4;stroke:#4682b4;" x="227.79448" xlink:href="#mc5209c1fcf" y="202.407964"/>
     <use style="fill:#4682b4;stroke:#4682b4;" x="233.1713" xlink:href="#mc5209c1fcf" y="203.535596"/>
     <use style="fill:#4682b4;stroke:#4682b4;" x="76.857857" xlink:href="#mc5209c1fcf" y="106.009512"/>
     <use style="fill:#4682b4;stroke:#4682b4;" x="103.151546" xlink:href="#mc5209c1fcf" y="141.507678"/>
     <use style="fill:#4682b4;stroke:#4682b4;" x="124.673305" xlink:href="#mc5209c1fcf" y="159.871471"/>
     <use style="fill:#4682b4;stroke:#4682b4;" x="336.454044" xlink:href="#mc5209c1fcf" y="214.423387"/>
     <use style="fill:#4682b4;stroke:#4682b4;" x="88.417098" xlink:href="#mc5209c1fcf" y="124.304605"/>
     <use style="fill:#4682b4;stroke:#4682b4;" x="67.039804" xlink:href="#mc5209c1fcf" y="83.664112"/>
     <use style="fill:#4682b4;stroke:#4682b4;" x="92.390523" xlink:href="#mc5209c1fcf" y="129.46494"/>
     <use style="fill:#4682b4;stroke:#4682b4;" x="360.906818" xlink:href="#mc5209c1fcf" y="214.756364"/>
     <use style="fill:#4682b4;stroke:#4682b4;" x="116.388045" xlink:href="#mc5209c1fcf" y="153.509682"/>
     <use style="fill:#4682b4;stroke:#4682b4;" x="120.09658" xlink:href="#mc5209c1fcf" y="156.451644"/>
     <use style="fill:#4682b4;stroke:#4682b4;" x="59.312192" xlink:href="#mc5209c1fcf" y="52.969559"/>
     <use style="fill:#4682b4;stroke:#4682b4;" x="114.629287" xlink:href="#mc5209c1fcf" y="152.056534"/>
     <use style="fill:#4682b4;stroke:#4682b4;" x="76.057357" xlink:href="#mc5209c1fcf" y="104.496626"/>
     <use style="fill:#4682b4;stroke:#4682b4;" x="110.202343" xlink:href="#mc5209c1fcf" y="148.219322"/>
     <use style="fill:#4682b4;stroke:#4682b4;" x="58.582433" xlink:href="#mc5209c1fcf" y="48.094672"/>
     <use style="fill:#4682b4;stroke:#4682b4;" x="271.382055" xlink:href="#mc5209c1fcf" y="209.703524"/>
     <use style="fill:#4682b4;stroke:#4682b4;" x="72.91357" xlink:href="#mc5209c1fcf" y="98.120109"/>
     <use style="fill:#4682b4;stroke:#4682b4;" x="105.892478" xlink:href="#mc5209c1fcf" y="144.211937"/>
     <use style="fill:#4682b4;stroke:#4682b4;" x="64.198435" xlink:href="#mc5209c1fcf" y="74.788885"/>
     <use style="fill:#4682b4;stroke:#4682b4;" x="247.25844" xlink:href="#mc5209c1fcf" y="206.166742"/>
     <use style="fill:#4682b4;stroke:#4682b4;" x="56.543182" xlink:href="#mc5209c1fcf" y="17.083636"/>
     <use style="fill:#4682b4;stroke:#4682b4;" x="272.0849" xlink:href="#mc5209c1fcf" y="209.78995"/>
     <use style="fill:#4682b4;stroke:#4682b4;" x="81.912022" xlink:href="#mc5209c1fcf" y="114.728717"/>
     <use style="fill:#4682b4;stroke:#4682b4;" x="56.860805" xlink:href="#mc5209c1fcf" y="29.621456"/>
     <use style="fill:#4682b4;stroke:#4682b4;" x="128.463743" xlink:href="#mc5209c1fcf" y="162.542878"/>
     <use style="fill:#4682b4;stroke:#4682b4;" x="95.397254" xlink:href="#mc5209c1fcf" y="133.088154"/>
     <use style="fill:#4682b4;stroke:#4682b4;" x="61.155813" xlink:href="#mc5209c1fcf" y="62.733826"/>
     <use style="fill:#4682b4;stroke:#4682b4;" x="299.10745" xlink:href="#mc5209c1fcf" y="212.480059"/>
     <use style="fill:#4682b4;stroke:#4682b4;" x="259.440829" xlink:href="#mc5209c1fcf" y="208.09565"/>
     <use style="fill:#4682b4;stroke:#4682b4;" x="315.364826" xlink:href="#mc5209c1fcf" y="213.557488"/>
     <use style="fill:#4682b4;stroke:#4682b4;" x="56.569483" xlink:href="#mc5209c1fcf" y="20.713471"/>
     <use style="fill:#4682b4;stroke:#4682b4;" x="293.754869" xlink:href="#mc5209c1fcf" y="212.040445"/>
     <use style="fill:#4682b4;stroke:#4682b4;" x="85.193861" xlink:href="#mc5209c1fcf" y="119.756199"/>
     <use style="fill:#4682b4;stroke:#4682b4;" x="307.260279" xlink:href="#mc5209c1fcf" y="213.067546"/>
     <use style="fill:#4682b4;stroke:#4682b4;" x="57.400158" xlink:href="#mc5209c1fcf" y="37.478764"/>
     <use style="fill:#4682b4;stroke:#4682b4;" x="132.609796" xlink:href="#mc5209c1fcf" y="165.31231"/>
     <use style="fill:#4682b4;stroke:#4682b4;" x="323.411269" xlink:href="#mc5209c1fcf" y="213.955463"/>
     <use style="fill:#4682b4;stroke:#4682b4;" x="91.61107" xlink:href="#mc5209c1fcf" y="128.487862"/>
    </g>
   </g>
   <g id="patch_3">
    <path d="M 41.325 224.64 
L 41.325 7.2 
" style="fill:none;stroke:#000000;stroke-linecap:square;stroke-linejoin:miter;stroke-width:0.8;"/>
   </g>
   <g id="patch_4">
    <path d="M 376.125 224.64 
L 376.125 7.2 
" style="fill:none;stroke:#000000;stroke-linecap:square;stroke-linejoin:miter;stroke-width:0.8;"/>
   </g>
   <g id="patch_5">
    <path d="M 41.325 224.64 
L 376.125 224.64 
" style="fill:none;stroke:#000000;stroke-linecap:square;stroke-linejoin:miter;stroke-width:0.8;"/>
   </g>
   <g id="patch_6">
    <path d="M 41.325 7.2 
L 376.125 7.2 
" style="fill:none;stroke:#000000;stroke-linecap:square;stroke-linejoin:miter;stroke-width:0.8;"/>
   </g>
  </g>
 </g>
 <defs>
  <clipPath id="p2ece85a0de">
   <rect height="217.44" width="334.8" x="41.325" y="7.2"/>
  </clipPath>
 </defs>
</svg>
