<?xml version="1.0" encoding="utf-8" standalone="no"?>
<!DOCTYPE svg PUBLIC "-//W3C//DTD SVG 1.1//EN"
        "http://www.w3.org/Graphics/SVG/1.1/DTD/svg11.dtd">
<!-- Created with matplotlib (https://matplotlib.org/) -->
<svg height="259.09pt" version="1.1" viewBox="0 0 388.325 259.09" width="388.325pt" xmlns="http://www.w3.org/2000/svg"
     xmlns:xlink="http://www.w3.org/1999/xlink">
    <defs>
        <style type="text/css">
            *{stroke-linecap:butt;stroke-linejoin:round;}
        </style>
    </defs>
    <g id="figure_1">
        <g id="patch_1">
            <path d="M 0 259.09
L 388.325 259.09 
L 388.325 0 
L 0 0 
z
" style="fill:#ffffff;"/>
        </g>
        <g id="axes_1">
            <g id="patch_2">
                <path d="M 46.325 224.64
L 381.125 224.64 
L 381.125 7.2 
L 46.325 7.2 
z
" style="fill:#ffffff;"/>
            </g>
            <g id="matplotlib.axis_1">
                <g id="xtick_1">
                    <g id="line2d_1">
                        <path clip-path="url(#p536f5cb2cf)" d="M 89.212603 224.64
L 89.212603 7.2 
" style="fill:none;stroke:#b0b0b0;stroke-linecap:square;stroke-width:0.8;"/>
                    </g>
                    <g id="line2d_2">
                        <defs>
                            <path d="M 0 0
L 0 3.5 
" id="m681db634f2" style="stroke:#000000;stroke-width:0.8;"/>
                        </defs>
                        <g>
                            <use style="stroke:#000000;stroke-width:0.8;" x="89.212603" xlink:href="#m681db634f2"
                                 y="224.64"/>
                        </g>
                    </g>
                    <g id="text_1">
                        <!-- 28 -->
                        <defs>
                            <path d="M 4.6875 3.90625
Q 5.078125 9.765625 10.15625 14.453125 
Q 15.234375 19.140625 23.046875 29.09375 
Q 30.859375 39.0625 33.203125 44.53125 
Q 35.546875 50 34.953125 53.90625 
Q 34.375 57.8125 31.25 60.34375 
Q 28.125 62.890625 24.015625 62.5 
Q 19.921875 62.109375 16.203125 59.375 
Q 12.5 56.640625 10.546875 51.171875 
L 3.125 52.34375 
Q 6.25 61.328125 11.125 65.421875 
Q 16.015625 69.53125 22.65625 69.921875 
Q 26.5625 70.3125 29.6875 69.71875 
Q 32.8125 69.140625 36.125 66.984375 
Q 39.453125 64.84375 41.59375 60.546875 
Q 43.75 56.25 43.15625 50.1875 
Q 42.578125 44.140625 37.109375 35.734375 
Q 31.640625 27.34375 16.015625 9.375 
L 44.140625 9.375 
L 44.140625 2.34375 
L 4.6875 2.34375 
z
" id="SimHei-50"/>
                            <path d="M 2.734375 16.796875
Q 2.734375 26.171875 5.078125 30.65625 
Q 7.421875 35.15625 12.890625 37.890625 
Q 8.203125 40.625 6.640625 43.9375 
Q 5.078125 47.265625 4.875 51.5625 
Q 4.6875 55.859375 6.046875 58.984375 
Q 7.421875 62.109375 10.15625 64.84375 
Q 12.890625 67.578125 16.203125 68.546875 
Q 19.53125 69.53125 23.4375 69.53125 
Q 27.34375 69.53125 30.46875 68.75 
Q 33.59375 67.96875 37.109375 65.421875 
Q 40.625 62.890625 42.1875 58.203125 
Q 43.75 53.515625 41.984375 47.265625 
Q 40.234375 41.015625 32.8125 37.5 
Q 39.453125 35.546875 42.1875 31.4375 
Q 44.921875 27.34375 44.921875 21.484375 
Q 44.921875 15.625 43.15625 12.109375 
Q 41.40625 8.59375 39.25 6.25 
Q 37.109375 3.90625 33.390625 2.53125 
Q 29.6875 1.171875 24.015625 1.171875 
Q 18.359375 1.171875 14.25 2.53125 
Q 10.15625 3.90625 7.421875 6.640625 
Q 4.6875 9.375 3.703125 13.078125 
Q 2.734375 16.796875 2.734375 26.171875 
z
M 10.9375 26.5625 
Q 10.546875 17.1875 12.296875 13.671875 
Q 14.0625 10.15625 18.75 9.171875 
Q 23.4375 8.203125 28.515625 9.375 
Q 33.59375 10.546875 35.546875 14.84375 
Q 37.5 19.140625 36.90625 23.4375 
Q 36.328125 27.734375 32.03125 30.65625 
Q 27.734375 33.59375 22.65625 33.203125 
Q 17.578125 32.8125 14.25 29.6875 
Q 10.9375 26.5625 10.546875 17.1875 
z
M 12.109375 56.25 
Q 12.109375 48.4375 14.84375 44.921875 
Q 17.578125 41.40625 23.4375 41.40625 
Q 29.296875 41.40625 32.21875 44.921875 
Q 35.15625 48.4375 34.953125 53.3125 
Q 34.765625 58.203125 31.4375 60.546875 
Q 28.125 62.890625 22.453125 62.5 
Q 16.796875 62.109375 14.453125 59.171875 
Q 12.109375 56.25 12.109375 48.4375 
z
" id="SimHei-56"/>
                        </defs>
                        <g transform="translate(84.212603 238.515)scale(0.1 -0.1)">
                            <use xlink:href="#SimHei-50"/>
                            <use x="50" xlink:href="#SimHei-56"/>
                        </g>
                    </g>
                </g>
                <g id="xtick_2">
                    <g id="line2d_3">
                        <path clip-path="url(#p536f5cb2cf)" d="M 144.551446 224.64
L 144.551446 7.2 
" style="fill:none;stroke:#b0b0b0;stroke-linecap:square;stroke-width:0.8;"/>
                    </g>
                    <g id="line2d_4">
                        <g>
                            <use style="stroke:#000000;stroke-width:0.8;" x="144.551446" xlink:href="#m681db634f2"
                                 y="224.64"/>
                        </g>
                    </g>
                    <g id="text_2">
                        <!-- 30 -->
                        <defs>
                            <path d="M 3.90625 19.140625
L 10.9375 20.3125 
Q 12.5 15.234375 16.015625 11.90625 
Q 19.53125 8.59375 24.796875 8.78125 
Q 30.078125 8.984375 33.203125 13.078125 
Q 36.328125 17.1875 35.9375 22.453125 
Q 35.546875 27.734375 31.828125 30.65625 
Q 28.125 33.59375 19.921875 34.765625 
L 19.921875 39.84375 
Q 28.125 40.625 31.828125 44.140625 
Q 35.546875 47.65625 35.15625 53.3125 
Q 34.765625 58.984375 30.078125 61.515625 
Q 25.390625 64.0625 20.109375 62.109375 
Q 14.84375 60.15625 11.71875 51.171875 
L 4.6875 52.34375 
Q 7.03125 59.375 11.125 64.0625 
Q 15.234375 68.75 22.265625 69.53125 
Q 29.296875 70.3125 34.5625 67.765625 
Q 39.84375 65.234375 41.984375 59.953125 
Q 44.140625 54.6875 42.578125 48.4375 
Q 41.015625 42.1875 33.59375 37.5 
Q 39.0625 35.15625 41.984375 30.46875 
Q 44.921875 25.78125 43.9375 18.15625 
Q 42.96875 10.546875 37.109375 5.859375 
Q 31.25 1.171875 23.828125 1.359375 
Q 16.40625 1.5625 10.9375 6.046875 
Q 5.46875 10.546875 3.90625 19.140625 
z
" id="SimHei-51"/>
                            <path d="M 3.125 29.296875
Q 3.90625 50 6.4375 56.046875 
Q 8.984375 62.109375 13.671875 66.015625 
Q 18.359375 69.921875 25.1875 69.921875 
Q 32.03125 69.921875 37.109375 64.25 
Q 42.1875 58.59375 43.75 50 
Q 45.3125 41.40625 44.71875 30.265625 
Q 44.140625 19.140625 40.8125 12.109375 
Q 37.5 5.078125 30.859375 2.34375 
Q 24.21875 -0.390625 17.578125 2.921875 
Q 10.9375 6.25 8.203125 11.71875 
Q 5.46875 17.1875 4.296875 23.234375 
Q 3.125 29.296875 3.90625 50 
z
M 12.890625 52.734375 
Q 10.546875 31.25 12.5 22.84375 
Q 14.453125 14.453125 18.9375 10.9375 
Q 23.4375 7.421875 28.125 9.5625 
Q 32.8125 11.71875 34.953125 18.15625 
Q 37.109375 24.609375 37.109375 32.21875 
Q 37.109375 39.84375 36.515625 46.09375 
Q 35.9375 52.34375 33 57.421875 
Q 30.078125 62.5 25.1875 62.6875 
Q 20.3125 62.890625 16.59375 57.8125 
Q 12.890625 52.734375 10.546875 31.25 
z
" id="SimHei-48"/>
                        </defs>
                        <g transform="translate(139.551446 238.515)scale(0.1 -0.1)">
                            <use xlink:href="#SimHei-51"/>
                            <use x="50" xlink:href="#SimHei-48"/>
                        </g>
                    </g>
                </g>
                <g id="xtick_3">
                    <g id="line2d_5">
                        <path clip-path="url(#p536f5cb2cf)" d="M 199.890289 224.64
L 199.890289 7.2 
" style="fill:none;stroke:#b0b0b0;stroke-linecap:square;stroke-width:0.8;"/>
                    </g>
                    <g id="line2d_6">
                        <g>
                            <use style="stroke:#000000;stroke-width:0.8;" x="199.890289" xlink:href="#m681db634f2"
                                 y="224.64"/>
                        </g>
                    </g>
                    <g id="text_3">
                        <!-- 32 -->
                        <g transform="translate(194.890289 238.515)scale(0.1 -0.1)">
                            <use xlink:href="#SimHei-51"/>
                            <use x="50" xlink:href="#SimHei-50"/>
                        </g>
                    </g>
                </g>
                <g id="xtick_4">
                    <g id="line2d_7">
                        <path clip-path="url(#p536f5cb2cf)" d="M 255.229132 224.64
L 255.229132 7.2 
" style="fill:none;stroke:#b0b0b0;stroke-linecap:square;stroke-width:0.8;"/>
                    </g>
                    <g id="line2d_8">
                        <g>
                            <use style="stroke:#000000;stroke-width:0.8;" x="255.229132" xlink:href="#m681db634f2"
                                 y="224.64"/>
                        </g>
                    </g>
                    <g id="text_4">
                        <!-- 34 -->
                        <defs>
                            <path d="M 31.25 17.1875
L 1.171875 17.1875 
L 1.171875 23.828125 
L 32.8125 69.53125 
L 38.671875 69.53125 
L 38.671875 23.828125 
L 48.046875 23.828125 
L 48.046875 17.1875 
L 38.671875 17.1875 
L 38.671875 2.34375 
L 31.25 2.34375 
z
M 31.25 23.828125 
L 31.25 54.6875 
L 9.375 23.828125 
z
" id="SimHei-52"/>
                        </defs>
                        <g transform="translate(250.229132 238.515)scale(0.1 -0.1)">
                            <use xlink:href="#SimHei-51"/>
                            <use x="50" xlink:href="#SimHei-52"/>
                        </g>
                    </g>
                </g>
                <g id="xtick_5">
                    <g id="line2d_9">
                        <path clip-path="url(#p536f5cb2cf)" d="M 310.567975 224.64
L 310.567975 7.2 
" style="fill:none;stroke:#b0b0b0;stroke-linecap:square;stroke-width:0.8;"/>
                    </g>
                    <g id="line2d_10">
                        <g>
                            <use style="stroke:#000000;stroke-width:0.8;" x="310.567975" xlink:href="#m681db634f2"
                                 y="224.64"/>
                        </g>
                    </g>
                    <g id="text_5">
                        <!-- 36 -->
                        <defs>
                            <path d="M 3.515625 19.53125
Q 4.296875 30.859375 6.046875 34.765625 
Q 7.8125 38.671875 11.328125 44.53125 
L 27.34375 69.53125 
L 36.328125 69.53125 
L 19.921875 43.75 
Q 30.46875 46.484375 36.71875 42.96875 
Q 42.96875 39.453125 45.109375 34.953125 
Q 47.265625 30.46875 47.453125 25.1875 
Q 47.65625 19.921875 45.890625 14.84375 
Q 44.140625 9.765625 39.640625 5.65625 
Q 35.15625 1.5625 27.140625 1.171875 
Q 19.140625 0.78125 13.46875 4.09375 
Q 7.8125 7.421875 5.65625 13.46875 
Q 3.515625 19.53125 4.296875 30.859375 
z
M 12.5 16.015625 
Q 19.53125 8.59375 25.390625 8.203125 
Q 31.25 7.8125 35.15625 12.109375 
Q 39.0625 16.40625 39.0625 24.609375 
Q 39.0625 32.8125 34.171875 35.9375 
Q 29.296875 39.0625 23.234375 38.28125 
Q 17.1875 37.5 14.453125 32.421875 
Q 11.71875 27.34375 12.109375 21.671875 
Q 12.5 16.015625 19.53125 8.59375 
z
" id="SimHei-54"/>
                        </defs>
                        <g transform="translate(305.567975 238.515)scale(0.1 -0.1)">
                            <use xlink:href="#SimHei-51"/>
                            <use x="50" xlink:href="#SimHei-54"/>
                        </g>
                    </g>
                </g>
                <g id="xtick_6">
                    <g id="line2d_11">
                        <path clip-path="url(#p536f5cb2cf)" d="M 365.906818 224.64
L 365.906818 7.2 
" style="fill:none;stroke:#b0b0b0;stroke-linecap:square;stroke-width:0.8;"/>
                    </g>
                    <g id="line2d_12">
                        <g>
                            <use style="stroke:#000000;stroke-width:0.8;" x="365.906818" xlink:href="#m681db634f2"
                                 y="224.64"/>
                        </g>
                    </g>
                    <g id="text_6">
                        <!-- 38 -->
                        <g transform="translate(360.906818 238.515)scale(0.1 -0.1)">
                            <use xlink:href="#SimHei-51"/>
                            <use x="50" xlink:href="#SimHei-56"/>
                        </g>
                    </g>
                </g>
                <g id="text_7">
                    <!-- F1 -->
                    <defs>
                        <path d="M 45.703125 61.328125
L 13.671875 61.328125 
L 13.671875 39.453125 
L 37.890625 39.453125 
L 37.890625 32.03125 
L 13.671875 32.03125 
L 13.671875 1.953125 
L 4.6875 1.953125 
L 4.6875 68.75 
L 45.703125 68.75 
z
" id="SimHei-70"/>
                        <path d="M 21.875 56.25
Q 16.796875 51.171875 8.984375 46.484375 
L 8.984375 53.90625 
Q 18.75 60.546875 25 69.53125 
L 29.6875 69.53125 
L 29.6875 2.34375 
L 21.875 2.34375 
z
" id="SimHei-49"/>
                    </defs>
                    <g transform="translate(208.725 250.64)scale(0.1 -0.1)">
                        <use xlink:href="#SimHei-70"/>
                        <use x="50" xlink:href="#SimHei-49"/>
                    </g>
                </g>
            </g>
            <g id="matplotlib.axis_2">
                <g id="ytick_1">
                    <g id="line2d_13">
                        <path clip-path="url(#p536f5cb2cf)" d="M 46.325 203.128556
L 381.125 203.128556 
" style="fill:none;stroke:#b0b0b0;stroke-linecap:square;stroke-width:0.8;"/>
                    </g>
                    <g id="line2d_14">
                        <defs>
                            <path d="M 0 0
L -3.5 0 
" id="mfdff7bcbb5" style="stroke:#000000;stroke-width:0.8;"/>
                        </defs>
                        <g>
                            <use style="stroke:#000000;stroke-width:0.8;" x="46.325" xlink:href="#mfdff7bcbb5"
                                 y="203.128556"/>
                        </g>
                    </g>
                    <g id="text_8">
                        <!-- 1.45 -->
                        <defs>
                            <path d="M 16.796875 1.953125
L 7.8125 1.953125 
L 7.8125 10.546875 
L 16.796875 10.546875 
z
" id="SimHei-46"/>
                            <path d="M 8.59375 20.703125
Q 11.328125 10.15625 17.96875 8.984375 
Q 24.609375 7.8125 28.703125 10.34375 
Q 32.8125 12.890625 34.5625 16.984375 
Q 36.328125 21.09375 36.125 26.171875 
Q 35.9375 31.25 33.390625 34.765625 
Q 30.859375 38.28125 26.953125 39.453125 
Q 23.046875 40.625 18.15625 39.453125 
Q 13.28125 38.28125 10.15625 33.984375 
L 3.515625 34.765625 
Q 4.296875 37.109375 10.9375 68.359375 
L 41.796875 68.359375 
L 41.796875 61.328125 
L 16.796875 61.328125 
Q 14.84375 50.78125 12.890625 44.53125 
Q 18.75 47.265625 23.828125 47.0625 
Q 28.90625 46.875 33.59375 44.71875 
Q 38.28125 42.578125 40.421875 38.859375 
Q 42.578125 35.15625 43.546875 31.4375 
Q 44.53125 27.734375 44.328125 23.4375 
Q 44.140625 19.140625 42.578125 14.640625 
Q 41.015625 10.15625 37.890625 7.21875 
Q 34.765625 4.296875 30.265625 2.53125 
Q 25.78125 0.78125 19.921875 1.171875 
Q 14.0625 1.5625 8.78125 5.46875 
Q 3.515625 9.375 1.5625 18.75 
z
" id="SimHei-53"/>
                        </defs>
                        <g transform="translate(19.325 206.566056)scale(0.1 -0.1)">
                            <use xlink:href="#SimHei-49"/>
                            <use x="50" xlink:href="#SimHei-46"/>
                            <use x="100" xlink:href="#SimHei-52"/>
                            <use x="150" xlink:href="#SimHei-53"/>
                        </g>
                    </g>
                </g>
                <g id="ytick_2">
                    <g id="line2d_15">
                        <path clip-path="url(#p536f5cb2cf)" d="M 46.325 174.059037
L 381.125 174.059037 
" style="fill:none;stroke:#b0b0b0;stroke-linecap:square;stroke-width:0.8;"/>
                    </g>
                    <g id="line2d_16">
                        <g>
                            <use style="stroke:#000000;stroke-width:0.8;" x="46.325" xlink:href="#mfdff7bcbb5"
                                 y="174.059037"/>
                        </g>
                    </g>
                    <g id="text_9">
                        <!-- 1.50 -->
                        <g transform="translate(19.325 177.496537)scale(0.1 -0.1)">
                            <use xlink:href="#SimHei-49"/>
                            <use x="50" xlink:href="#SimHei-46"/>
                            <use x="100" xlink:href="#SimHei-53"/>
                            <use x="150" xlink:href="#SimHei-48"/>
                        </g>
                    </g>
                </g>
                <g id="ytick_3">
                    <g id="line2d_17">
                        <path clip-path="url(#p536f5cb2cf)" d="M 46.325 144.989519
L 381.125 144.989519 
" style="fill:none;stroke:#b0b0b0;stroke-linecap:square;stroke-width:0.8;"/>
                    </g>
                    <g id="line2d_18">
                        <g>
                            <use style="stroke:#000000;stroke-width:0.8;" x="46.325" xlink:href="#mfdff7bcbb5"
                                 y="144.989519"/>
                        </g>
                    </g>
                    <g id="text_10">
                        <!-- 1.55 -->
                        <g transform="translate(19.325 148.427019)scale(0.1 -0.1)">
                            <use xlink:href="#SimHei-49"/>
                            <use x="50" xlink:href="#SimHei-46"/>
                            <use x="100" xlink:href="#SimHei-53"/>
                            <use x="150" xlink:href="#SimHei-53"/>
                        </g>
                    </g>
                </g>
                <g id="ytick_4">
                    <g id="line2d_19">
                        <path clip-path="url(#p536f5cb2cf)" d="M 46.325 115.92
L 381.125 115.92 
" style="fill:none;stroke:#b0b0b0;stroke-linecap:square;stroke-width:0.8;"/>
                    </g>
                    <g id="line2d_20">
                        <g>
                            <use style="stroke:#000000;stroke-width:0.8;" x="46.325" xlink:href="#mfdff7bcbb5"
                                 y="115.92"/>
                        </g>
                    </g>
                    <g id="text_11">
                        <!-- 1.60 -->
                        <g transform="translate(19.325 119.3575)scale(0.1 -0.1)">
                            <use xlink:href="#SimHei-49"/>
                            <use x="50" xlink:href="#SimHei-46"/>
                            <use x="100" xlink:href="#SimHei-54"/>
                            <use x="150" xlink:href="#SimHei-48"/>
                        </g>
                    </g>
                </g>
                <g id="ytick_5">
                    <g id="line2d_21">
                        <path clip-path="url(#p536f5cb2cf)" d="M 46.325 86.850481
L 381.125 86.850481 
" style="fill:none;stroke:#b0b0b0;stroke-linecap:square;stroke-width:0.8;"/>
                    </g>
                    <g id="line2d_22">
                        <g>
                            <use style="stroke:#000000;stroke-width:0.8;" x="46.325" xlink:href="#mfdff7bcbb5"
                                 y="86.850481"/>
                        </g>
                    </g>
                    <g id="text_12">
                        <!-- 1.65 -->
                        <g transform="translate(19.325 90.287981)scale(0.1 -0.1)">
                            <use xlink:href="#SimHei-49"/>
                            <use x="50" xlink:href="#SimHei-46"/>
                            <use x="100" xlink:href="#SimHei-54"/>
                            <use x="150" xlink:href="#SimHei-53"/>
                        </g>
                    </g>
                </g>
                <g id="ytick_6">
                    <g id="line2d_23">
                        <path clip-path="url(#p536f5cb2cf)" d="M 46.325 57.780963
L 381.125 57.780963 
" style="fill:none;stroke:#b0b0b0;stroke-linecap:square;stroke-width:0.8;"/>
                    </g>
                    <g id="line2d_24">
                        <g>
                            <use style="stroke:#000000;stroke-width:0.8;" x="46.325" xlink:href="#mfdff7bcbb5"
                                 y="57.780963"/>
                        </g>
                    </g>
                    <g id="text_13">
                        <!-- 1.70 -->
                        <defs>
                            <path d="M 13.28125 2.34375
Q 20.3125 32.03125 37.890625 61.328125 
L 4.296875 61.328125 
L 4.296875 68.359375 
L 46.09375 68.359375 
L 46.09375 61.71875 
Q 27.734375 32.03125 21.875 2.34375 
L 13.28125 2.34375 
z
" id="SimHei-55"/>
                        </defs>
                        <g transform="translate(19.325 61.218463)scale(0.1 -0.1)">
                            <use xlink:href="#SimHei-49"/>
                            <use x="50" xlink:href="#SimHei-46"/>
                            <use x="100" xlink:href="#SimHei-55"/>
                            <use x="150" xlink:href="#SimHei-48"/>
                        </g>
                    </g>
                </g>
                <g id="ytick_7">
                    <g id="line2d_25">
                        <path clip-path="url(#p536f5cb2cf)" d="M 46.325 28.711444
L 381.125 28.711444 
" style="fill:none;stroke:#b0b0b0;stroke-linecap:square;stroke-width:0.8;"/>
                    </g>
                    <g id="line2d_26">
                        <g>
                            <use style="stroke:#000000;stroke-width:0.8;" x="46.325" xlink:href="#mfdff7bcbb5"
                                 y="28.711444"/>
                        </g>
                    </g>
                    <g id="text_14">
                        <!-- 1.75 -->
                        <g transform="translate(19.325 32.148944)scale(0.1 -0.1)">
                            <use xlink:href="#SimHei-49"/>
                            <use x="50" xlink:href="#SimHei-46"/>
                            <use x="100" xlink:href="#SimHei-55"/>
                            <use x="150" xlink:href="#SimHei-53"/>
                        </g>
                    </g>
                </g>
                <g id="text_15">
                    <!-- F2 -->
                    <g transform="translate(14.075 120.92)rotate(-90)scale(0.1 -0.1)">
                        <use xlink:href="#SimHei-70"/>
                        <use x="50" xlink:href="#SimHei-50"/>
                    </g>
                </g>
            </g>
            <g id="line2d_27">
                <defs>
                    <path d="M 0 1.5
C 0.397805 1.5 0.77937 1.341951 1.06066 1.06066 
C 1.341951 0.77937 1.5 0.397805 1.5 0 
C 1.5 -0.397805 1.341951 -0.77937 1.06066 -1.06066 
C 0.77937 -1.341951 0.397805 -1.5 0 -1.5 
C -0.397805 -1.5 -0.77937 -1.341951 -1.06066 -1.06066 
C -1.341951 -0.77937 -1.5 -0.397805 -1.5 0 
C -1.5 0.397805 -1.341951 0.77937 -1.06066 1.06066 
C -0.77937 1.341951 -0.397805 1.5 0 1.5 
z
" id="m6478c09968" style="stroke:#4682b4;"/>
                </defs>
                <g clip-path="url(#p536f5cb2cf)">
                    <use style="fill:#4682b4;stroke:#4682b4;" x="61.543182" xlink:href="#m6478c09968" y="214.756364"/>
                    <use style="fill:#4682b4;stroke:#4682b4;" x="282.898554" xlink:href="#m6478c09968" y="86.850481"/>
                    <use style="fill:#4682b4;stroke:#4682b4;" x="365.906818" xlink:href="#m6478c09968" y="17.083636"/>
                    <use style="fill:#4682b4;stroke:#4682b4;" x="89.212603" xlink:href="#m6478c09968" y="203.128556"/>
                    <use style="fill:#4682b4;stroke:#4682b4;" x="89.212603" xlink:href="#m6478c09968" y="203.128556"/>
                    <use style="fill:#4682b4;stroke:#4682b4;" x="227.559711" xlink:href="#m6478c09968" y="133.361711"/>
                    <use style="fill:#4682b4;stroke:#4682b4;" x="324.402686" xlink:href="#m6478c09968" y="46.153155"/>
                    <use style="fill:#4682b4;stroke:#4682b4;" x="255.229132" xlink:href="#m6478c09968" y="104.292193"/>
                    <use style="fill:#4682b4;stroke:#4682b4;" x="61.543182" xlink:href="#m6478c09968" y="214.756364"/>
                    <use style="fill:#4682b4;stroke:#4682b4;" x="144.551446" xlink:href="#m6478c09968" y="174.059037"/>
                    <use style="fill:#4682b4;stroke:#4682b4;" x="116.882025" xlink:href="#m6478c09968" y="191.500749"/>
                    <use style="fill:#4682b4;stroke:#4682b4;" x="324.402686" xlink:href="#m6478c09968" y="46.153155"/>
                    <use style="fill:#4682b4;stroke:#4682b4;" x="116.882025" xlink:href="#m6478c09968" y="191.500749"/>
                    <use style="fill:#4682b4;stroke:#4682b4;" x="61.543182" xlink:href="#m6478c09968" y="214.756364"/>
                    <use style="fill:#4682b4;stroke:#4682b4;" x="172.220868" xlink:href="#m6478c09968" y="162.43123"/>
                    <use style="fill:#4682b4;stroke:#4682b4;" x="310.567975" xlink:href="#m6478c09968" y="75.222674"/>
                    <use style="fill:#4682b4;stroke:#4682b4;" x="338.237397" xlink:href="#m6478c09968" y="46.153155"/>
                    <use style="fill:#4682b4;stroke:#4682b4;" x="338.237397" xlink:href="#m6478c09968" y="46.153155"/>
                    <use style="fill:#4682b4;stroke:#4682b4;" x="89.212603" xlink:href="#m6478c09968" y="203.128556"/>
                    <use style="fill:#4682b4;stroke:#4682b4;" x="199.890289" xlink:href="#m6478c09968" y="144.989519"/>
                    <use style="fill:#4682b4;stroke:#4682b4;" x="310.567975" xlink:href="#m6478c09968" y="75.222674"/>
                    <use style="fill:#4682b4;stroke:#4682b4;" x="255.229132" xlink:href="#m6478c09968" y="104.292193"/>
                    <use style="fill:#4682b4;stroke:#4682b4;" x="199.890289" xlink:href="#m6478c09968" y="144.989519"/>
                    <use style="fill:#4682b4;stroke:#4682b4;" x="282.898554" xlink:href="#m6478c09968" y="86.850481"/>
                    <use style="fill:#4682b4;stroke:#4682b4;" x="310.567975" xlink:href="#m6478c09968" y="75.222674"/>
                    <use style="fill:#4682b4;stroke:#4682b4;" x="227.559711" xlink:href="#m6478c09968" y="133.361711"/>
                    <use style="fill:#4682b4;stroke:#4682b4;" x="144.551446" xlink:href="#m6478c09968" y="174.059037"/>
                    <use style="fill:#4682b4;stroke:#4682b4;" x="365.906818" xlink:href="#m6478c09968" y="17.083636"/>
                    <use style="fill:#4682b4;stroke:#4682b4;" x="144.551446" xlink:href="#m6478c09968" y="174.059037"/>
                    <use style="fill:#4682b4;stroke:#4682b4;" x="172.220868" xlink:href="#m6478c09968" y="162.43123"/>
                </g>
            </g>
            <g id="patch_3">
                <path d="M 46.325 224.64
L 46.325 7.2 
" style="fill:none;stroke:#000000;stroke-linecap:square;stroke-linejoin:miter;stroke-width:0.8;"/>
            </g>
            <g id="patch_4">
                <path d="M 381.125 224.64
L 381.125 7.2 
" style="fill:none;stroke:#000000;stroke-linecap:square;stroke-linejoin:miter;stroke-width:0.8;"/>
            </g>
            <g id="patch_5">
                <path d="M 46.325 224.64
L 381.125 224.64 
" style="fill:none;stroke:#000000;stroke-linecap:square;stroke-linejoin:miter;stroke-width:0.8;"/>
            </g>
            <g id="patch_6">
                <path d="M 46.325 7.2
L 381.125 7.2 
" style="fill:none;stroke:#000000;stroke-linecap:square;stroke-linejoin:miter;stroke-width:0.8;"/>
            </g>
            <g id="legend_1">
                <g id="patch_7">
                    <path d="M 53.325 28.45
L 145.325 28.45 
Q 147.325 28.45 147.325 26.45 
L 147.325 14.2 
Q 147.325 12.2 145.325 12.2 
L 53.325 12.2 
Q 51.325 12.2 51.325 14.2 
L 51.325 26.45 
Q 51.325 28.45 53.325 28.45 
z
" style="fill:#ffffff;opacity:0.8;stroke:#cccccc;stroke-linejoin:miter;"/>
                </g>
                <g id="line2d_28"/>
                <g id="line2d_29">
                    <g>
                        <use style="fill:#4682b4;stroke:#4682b4;" x="65.325" xlink:href="#m6478c09968" y="19.7"/>
                    </g>
                </g>
                <g id="text_16">
                    <!-- Pareto Front -->
                    <defs>
                        <path d="M 46.09375 48.4375
Q 46.09375 39.0625 40.625 33.59375 
Q 35.15625 28.125 25.390625 28.125 
L 14.0625 28.125 
L 14.0625 1.953125 
L 5.078125 1.953125 
L 5.078125 68.75 
L 25.390625 68.75 
Q 35.15625 68.75 40.625 63.28125 
Q 46.09375 57.8125 46.09375 48.4375 
z
M 37.109375 48.4375 
Q 37.109375 55.859375 33.59375 58.59375 
Q 30.078125 61.328125 23.046875 61.328125 
L 14.0625 61.328125 
L 14.0625 35.546875 
L 23.046875 35.546875 
Q 30.078125 35.546875 33.59375 38.28125 
Q 37.109375 41.015625 37.109375 48.4375 
z
" id="SimHei-80"/>
                        <path d="M 44.921875 1.953125
L 35.546875 1.953125 
Q 34.765625 2.734375 34.375 4.09375 
Q 33.984375 5.46875 33.984375 7.421875 
Q 31.25 4.296875 27.34375 2.734375 
Q 23.4375 1.171875 19.140625 1.171875 
Q 12.890625 1.171875 8.59375 4.296875 
Q 4.296875 7.421875 4.296875 13.28125 
Q 4.296875 19.140625 8.203125 22.65625 
Q 12.109375 26.171875 20.3125 27.34375 
Q 25.78125 28.125 29.875 29.296875 
Q 33.984375 30.46875 33.984375 32.421875 
Q 33.984375 34.765625 32.21875 37.109375 
Q 30.46875 39.453125 24.609375 39.453125 
Q 19.921875 39.453125 17.765625 37.6875 
Q 15.625 35.9375 14.84375 32.8125 
L 6.25 32.8125 
Q 7.03125 39.0625 11.90625 42.765625 
Q 16.796875 46.484375 24.609375 46.484375 
Q 33.203125 46.484375 37.5 42.578125 
Q 41.796875 38.671875 41.796875 31.640625 
L 41.796875 10.15625 
Q 41.796875 7.8125 42.578125 5.859375 
Q 43.359375 3.90625 44.921875 1.953125 
z
M 33.984375 16.40625 
L 33.984375 24.21875 
Q 31.640625 23.4375 29.484375 22.84375 
Q 27.34375 22.265625 22.265625 21.484375 
Q 16.40625 20.703125 14.640625 18.75 
Q 12.890625 16.796875 12.890625 14.0625 
Q 12.890625 11.71875 14.640625 9.953125 
Q 16.40625 8.203125 19.921875 8.203125 
Q 23.4375 8.203125 27.53125 10.15625 
Q 31.640625 12.109375 33.984375 16.40625 
z
" id="SimHei-97"/>
                        <path d="M 39.0625 37.890625
Q 31.640625 39.0625 26.5625 35.734375 
Q 21.484375 32.421875 17.96875 24.21875 
L 17.96875 1.953125 
L 10.15625 1.953125 
L 10.15625 45.703125 
L 17.96875 45.703125 
L 17.96875 34.375 
Q 21.484375 40.625 26.75 43.546875 
Q 32.03125 46.484375 39.0625 46.484375 
z
" id="SimHei-114"/>
                        <path d="M 44.53125 16.796875
Q 43.75 9.765625 38.28125 5.46875 
Q 32.8125 1.171875 25.390625 1.171875 
Q 16.015625 1.171875 9.953125 7.21875 
Q 3.90625 13.28125 3.90625 23.828125 
Q 3.90625 34.375 9.953125 40.421875 
Q 16.015625 46.484375 25.390625 46.484375 
Q 33.59375 46.484375 38.859375 41.203125 
Q 44.140625 35.9375 44.140625 23.828125 
L 12.5 23.828125 
Q 12.5 15.234375 16.203125 11.71875 
Q 19.921875 8.203125 25.390625 8.203125 
Q 29.6875 8.203125 32.421875 10.34375 
Q 35.15625 12.5 35.9375 16.796875 
z
M 35.15625 30.078125 
Q 34.375 35.546875 31.640625 37.6875 
Q 28.90625 39.84375 24.609375 39.84375 
Q 20.703125 39.84375 17.578125 37.6875 
Q 14.453125 35.546875 12.890625 30.078125 
z
" id="SimHei-101"/>
                        <path d="M 42.96875 3.125
Q 41.015625 2.34375 38.46875 1.75 
Q 35.9375 1.171875 31.640625 1.171875 
Q 24.609375 1.171875 20.3125 5.078125 
Q 16.015625 8.984375 16.015625 16.015625 
L 16.015625 39.453125 
L 2.734375 39.453125 
L 2.734375 45.703125 
L 16.015625 45.703125 
L 16.015625 60.9375 
L 23.828125 60.9375 
L 23.828125 45.703125 
L 39.84375 45.703125 
L 39.84375 39.453125 
L 23.828125 39.453125 
L 23.828125 15.625 
Q 23.828125 12.5 25.390625 10.34375 
Q 26.953125 8.203125 31.25 8.203125 
Q 35.546875 8.203125 38.28125 8.984375 
Q 41.015625 9.765625 42.96875 10.9375 
z
" id="SimHei-116"/>
                        <path d="M 45.703125 23.828125
Q 45.703125 13.671875 39.453125 7.421875 
Q 33.203125 1.171875 24.609375 1.171875 
Q 16.015625 1.171875 9.765625 7.421875 
Q 3.515625 13.671875 3.515625 23.828125 
Q 3.515625 33.984375 9.765625 40.234375 
Q 16.015625 46.484375 24.609375 46.484375 
Q 33.203125 46.484375 39.453125 40.234375 
Q 45.703125 33.984375 45.703125 23.828125 
z
M 37.109375 23.828125 
Q 37.109375 31.640625 33.203125 35.546875 
Q 29.296875 39.453125 24.609375 39.453125 
Q 19.921875 39.453125 16.015625 35.546875 
Q 12.109375 31.640625 12.109375 23.828125 
Q 12.109375 16.015625 16.015625 12.109375 
Q 19.921875 8.203125 24.609375 8.203125 
Q 29.296875 8.203125 33.203125 12.109375 
Q 37.109375 16.015625 37.109375 23.828125 
z
" id="SimHei-111"/>
                        <path id="SimHei-32"/>
                        <path d="M 43.75 1.953125
L 35.9375 1.953125 
L 35.9375 30.078125 
Q 35.9375 34.765625 33.59375 37.5 
Q 31.25 40.234375 27.34375 40.234375 
Q 22.265625 40.234375 17.765625 34.953125 
Q 13.28125 29.6875 13.28125 21.875 
L 13.28125 1.953125 
L 5.46875 1.953125 
L 5.46875 45.703125 
L 13.28125 45.703125 
L 13.28125 37.5 
Q 16.40625 41.796875 20.109375 44.140625 
Q 23.828125 46.484375 29.6875 46.484375 
Q 36.71875 46.484375 40.234375 42.578125 
Q 43.75 38.671875 43.75 32.8125 
z
" id="SimHei-110"/>
                    </defs>
                    <g transform="translate(83.325 23.2)scale(0.1 -0.1)">
                        <use xlink:href="#SimHei-80"/>
                        <use x="50" xlink:href="#SimHei-97"/>
                        <use x="100" xlink:href="#SimHei-114"/>
                        <use x="150" xlink:href="#SimHei-101"/>
                        <use x="200" xlink:href="#SimHei-116"/>
                        <use x="250" xlink:href="#SimHei-111"/>
                        <use x="300" xlink:href="#SimHei-32"/>
                        <use x="350" xlink:href="#SimHei-70"/>
                        <use x="400" xlink:href="#SimHei-114"/>
                        <use x="450" xlink:href="#SimHei-111"/>
                        <use x="500" xlink:href="#SimHei-110"/>
                        <use x="550" xlink:href="#SimHei-116"/>
                    </g>
                </g>
            </g>
        </g>
    </g>
    <defs>
        <clipPath id="p536f5cb2cf">
            <rect height="217.44" width="334.8" x="46.325" y="7.2"/>
        </clipPath>
    </defs>
</svg>
