<?xml version="1.0" encoding="utf-8" standalone="no"?>
<!DOCTYPE svg PUBLIC "-//W3C//DTD SVG 1.1//EN"
  "http://www.w3.org/Graphics/SVG/1.1/DTD/svg11.dtd">
<!-- Created with matplotlib (https://matplotlib.org/) -->
<svg height="259.09pt" version="1.1" viewBox="0 0 388.325 259.09" width="388.325pt" xmlns="http://www.w3.org/2000/svg" xmlns:xlink="http://www.w3.org/1999/xlink">
 <defs>
  <style type="text/css">
*{stroke-linecap:butt;stroke-linejoin:round;}
  </style>
 </defs>
 <g id="figure_1">
  <g id="patch_1">
   <path d="M 0 259.09 
L 388.325 259.09 
L 388.325 0 
L 0 0 
z
" style="fill:#ffffff;"/>
  </g>
  <g id="axes_1">
   <g id="patch_2">
    <path d="M 46.325 224.64 
L 381.125 224.64 
L 381.125 7.2 
L 46.325 7.2 
z
" style="fill:#ffffff;"/>
   </g>
   <g id="matplotlib.axis_1">
    <g id="xtick_1">
     <g id="line2d_1">
      <defs>
       <path d="M 0 0 
L 0 3.5 
" id="m3a31b690b7" style="stroke:#000000;stroke-width:0.8;"/>
      </defs>
      <g>
       <use style="stroke:#000000;stroke-width:0.8;" x="61.543182" xlink:href="#m3a31b690b7" y="224.64"/>
      </g>
     </g>
     <g id="text_1">
      <!-- 0 -->
      <defs>
       <path d="M 3.125 29.296875 
Q 3.90625 50 6.4375 56.046875 
Q 8.984375 62.109375 13.671875 66.015625 
Q 18.359375 69.921875 25.1875 69.921875 
Q 32.03125 69.921875 37.109375 64.25 
Q 42.1875 58.59375 43.75 50 
Q 45.3125 41.40625 44.71875 30.265625 
Q 44.140625 19.140625 40.8125 12.109375 
Q 37.5 5.078125 30.859375 2.34375 
Q 24.21875 -0.390625 17.578125 2.921875 
Q 10.9375 6.25 8.203125 11.71875 
Q 5.46875 17.1875 4.296875 23.234375 
Q 3.125 29.296875 3.90625 50 
z
M 12.890625 52.734375 
Q 10.546875 31.25 12.5 22.84375 
Q 14.453125 14.453125 18.9375 10.9375 
Q 23.4375 7.421875 28.125 9.5625 
Q 32.8125 11.71875 34.953125 18.15625 
Q 37.109375 24.609375 37.109375 32.21875 
Q 37.109375 39.84375 36.515625 46.09375 
Q 35.9375 52.34375 33 57.421875 
Q 30.078125 62.5 25.1875 62.6875 
Q 20.3125 62.890625 16.59375 57.8125 
Q 12.890625 52.734375 10.546875 31.25 
z
" id="SimHei-48"/>
      </defs>
      <g transform="translate(59.043182 238.515)scale(0.1 -0.1)">
       <use xlink:href="#SimHei-48"/>
      </g>
     </g>
    </g>
    <g id="xtick_2">
     <g id="line2d_2">
      <g>
       <use style="stroke:#000000;stroke-width:0.8;" x="99.77982" xlink:href="#m3a31b690b7" y="224.64"/>
      </g>
     </g>
     <g id="text_2">
      <!-- 25 -->
      <defs>
       <path d="M 4.6875 3.90625 
Q 5.078125 9.765625 10.15625 14.453125 
Q 15.234375 19.140625 23.046875 29.09375 
Q 30.859375 39.0625 33.203125 44.53125 
Q 35.546875 50 34.953125 53.90625 
Q 34.375 57.8125 31.25 60.34375 
Q 28.125 62.890625 24.015625 62.5 
Q 19.921875 62.109375 16.203125 59.375 
Q 12.5 56.640625 10.546875 51.171875 
L 3.125 52.34375 
Q 6.25 61.328125 11.125 65.421875 
Q 16.015625 69.53125 22.65625 69.921875 
Q 26.5625 70.3125 29.6875 69.71875 
Q 32.8125 69.140625 36.125 66.984375 
Q 39.453125 64.84375 41.59375 60.546875 
Q 43.75 56.25 43.15625 50.1875 
Q 42.578125 44.140625 37.109375 35.734375 
Q 31.640625 27.34375 16.015625 9.375 
L 44.140625 9.375 
L 44.140625 2.34375 
L 4.6875 2.34375 
z
" id="SimHei-50"/>
       <path d="M 8.59375 20.703125 
Q 11.328125 10.15625 17.96875 8.984375 
Q 24.609375 7.8125 28.703125 10.34375 
Q 32.8125 12.890625 34.5625 16.984375 
Q 36.328125 21.09375 36.125 26.171875 
Q 35.9375 31.25 33.390625 34.765625 
Q 30.859375 38.28125 26.953125 39.453125 
Q 23.046875 40.625 18.15625 39.453125 
Q 13.28125 38.28125 10.15625 33.984375 
L 3.515625 34.765625 
Q 4.296875 37.109375 10.9375 68.359375 
L 41.796875 68.359375 
L 41.796875 61.328125 
L 16.796875 61.328125 
Q 14.84375 50.78125 12.890625 44.53125 
Q 18.75 47.265625 23.828125 47.0625 
Q 28.90625 46.875 33.59375 44.71875 
Q 38.28125 42.578125 40.421875 38.859375 
Q 42.578125 35.15625 43.546875 31.4375 
Q 44.53125 27.734375 44.328125 23.4375 
Q 44.140625 19.140625 42.578125 14.640625 
Q 41.015625 10.15625 37.890625 7.21875 
Q 34.765625 4.296875 30.265625 2.53125 
Q 25.78125 0.78125 19.921875 1.171875 
Q 14.0625 1.5625 8.78125 5.46875 
Q 3.515625 9.375 1.5625 18.75 
z
" id="SimHei-53"/>
      </defs>
      <g transform="translate(94.77982 238.515)scale(0.1 -0.1)">
       <use xlink:href="#SimHei-50"/>
       <use x="50" xlink:href="#SimHei-53"/>
      </g>
     </g>
    </g>
    <g id="xtick_3">
     <g id="line2d_3">
      <g>
       <use style="stroke:#000000;stroke-width:0.8;" x="138.016457" xlink:href="#m3a31b690b7" y="224.64"/>
      </g>
     </g>
     <g id="text_3">
      <!-- 50 -->
      <g transform="translate(133.016457 238.515)scale(0.1 -0.1)">
       <use xlink:href="#SimHei-53"/>
       <use x="50" xlink:href="#SimHei-48"/>
      </g>
     </g>
    </g>
    <g id="xtick_4">
     <g id="line2d_4">
      <g>
       <use style="stroke:#000000;stroke-width:0.8;" x="176.253095" xlink:href="#m3a31b690b7" y="224.64"/>
      </g>
     </g>
     <g id="text_4">
      <!-- 75 -->
      <defs>
       <path d="M 13.28125 2.34375 
Q 20.3125 32.03125 37.890625 61.328125 
L 4.296875 61.328125 
L 4.296875 68.359375 
L 46.09375 68.359375 
L 46.09375 61.71875 
Q 27.734375 32.03125 21.875 2.34375 
L 13.28125 2.34375 
z
" id="SimHei-55"/>
      </defs>
      <g transform="translate(171.253095 238.515)scale(0.1 -0.1)">
       <use xlink:href="#SimHei-55"/>
       <use x="50" xlink:href="#SimHei-53"/>
      </g>
     </g>
    </g>
    <g id="xtick_5">
     <g id="line2d_5">
      <g>
       <use style="stroke:#000000;stroke-width:0.8;" x="214.489733" xlink:href="#m3a31b690b7" y="224.64"/>
      </g>
     </g>
     <g id="text_5">
      <!-- 100 -->
      <defs>
       <path d="M 21.875 56.25 
Q 16.796875 51.171875 8.984375 46.484375 
L 8.984375 53.90625 
Q 18.75 60.546875 25 69.53125 
L 29.6875 69.53125 
L 29.6875 2.34375 
L 21.875 2.34375 
z
" id="SimHei-49"/>
      </defs>
      <g transform="translate(206.989733 238.515)scale(0.1 -0.1)">
       <use xlink:href="#SimHei-49"/>
       <use x="50" xlink:href="#SimHei-48"/>
       <use x="100" xlink:href="#SimHei-48"/>
      </g>
     </g>
    </g>
    <g id="xtick_6">
     <g id="line2d_6">
      <g>
       <use style="stroke:#000000;stroke-width:0.8;" x="252.72637" xlink:href="#m3a31b690b7" y="224.64"/>
      </g>
     </g>
     <g id="text_6">
      <!-- 125 -->
      <g transform="translate(245.22637 238.515)scale(0.1 -0.1)">
       <use xlink:href="#SimHei-49"/>
       <use x="50" xlink:href="#SimHei-50"/>
       <use x="100" xlink:href="#SimHei-53"/>
      </g>
     </g>
    </g>
    <g id="xtick_7">
     <g id="line2d_7">
      <g>
       <use style="stroke:#000000;stroke-width:0.8;" x="290.963008" xlink:href="#m3a31b690b7" y="224.64"/>
      </g>
     </g>
     <g id="text_7">
      <!-- 150 -->
      <g transform="translate(283.463008 238.515)scale(0.1 -0.1)">
       <use xlink:href="#SimHei-49"/>
       <use x="50" xlink:href="#SimHei-53"/>
       <use x="100" xlink:href="#SimHei-48"/>
      </g>
     </g>
    </g>
    <g id="xtick_8">
     <g id="line2d_8">
      <g>
       <use style="stroke:#000000;stroke-width:0.8;" x="329.199646" xlink:href="#m3a31b690b7" y="224.64"/>
      </g>
     </g>
     <g id="text_8">
      <!-- 175 -->
      <g transform="translate(321.699646 238.515)scale(0.1 -0.1)">
       <use xlink:href="#SimHei-49"/>
       <use x="50" xlink:href="#SimHei-55"/>
       <use x="100" xlink:href="#SimHei-53"/>
      </g>
     </g>
    </g>
    <g id="xtick_9">
     <g id="line2d_9">
      <g>
       <use style="stroke:#000000;stroke-width:0.8;" x="367.436284" xlink:href="#m3a31b690b7" y="224.64"/>
      </g>
     </g>
     <g id="text_9">
      <!-- 200 -->
      <g transform="translate(359.936284 238.515)scale(0.1 -0.1)">
       <use xlink:href="#SimHei-50"/>
       <use x="50" xlink:href="#SimHei-48"/>
       <use x="100" xlink:href="#SimHei-48"/>
      </g>
     </g>
    </g>
    <g id="text_10">
     <!-- Number of Generation -->
     <defs>
      <path d="M 44.53125 1.953125 
L 34.765625 1.953125 
L 13.28125 50.390625 
L 12.890625 50.390625 
L 12.890625 1.953125 
L 3.90625 1.953125 
L 3.90625 68.75 
L 13.671875 68.75 
L 35.15625 20.3125 
L 35.546875 20.3125 
L 35.546875 68.75 
L 44.53125 68.75 
z
" id="SimHei-78"/>
      <path d="M 43.75 1.953125 
L 35.9375 1.953125 
L 35.9375 10.15625 
Q 32.8125 5.859375 29.09375 3.515625 
Q 25.390625 1.171875 19.53125 1.171875 
Q 12.5 1.171875 8.984375 5.078125 
Q 5.46875 8.984375 5.46875 14.84375 
L 5.46875 45.703125 
L 13.28125 45.703125 
L 13.28125 17.578125 
Q 13.28125 12.890625 15.625 10.15625 
Q 17.96875 7.421875 21.875 7.421875 
Q 26.953125 7.421875 31.4375 12.6875 
Q 35.9375 17.96875 35.9375 25.78125 
L 35.9375 45.703125 
L 43.75 45.703125 
z
" id="SimHei-117"/>
      <path d="M 47.65625 1.953125 
L 39.84375 1.953125 
L 39.84375 33.59375 
Q 39.84375 35.9375 39.0625 37.5 
Q 38.28125 39.0625 35.9375 39.0625 
Q 33.203125 39.0625 30.859375 36.125 
Q 28.515625 33.203125 28.515625 28.515625 
L 28.515625 1.953125 
L 20.703125 1.953125 
L 20.703125 33.59375 
Q 20.703125 35.9375 19.921875 37.5 
Q 19.140625 39.0625 16.796875 39.0625 
Q 14.0625 39.0625 11.71875 36.125 
Q 9.375 33.203125 9.375 28.515625 
L 9.375 1.953125 
L 1.5625 1.953125 
L 1.5625 45.703125 
L 9.375 45.703125 
L 9.375 39.84375 
Q 11.328125 42.96875 14.0625 44.71875 
Q 16.796875 46.484375 19.921875 46.484375 
Q 23.046875 46.484375 25.1875 44.71875 
Q 27.34375 42.96875 28.125 39.84375 
Q 30.078125 42.96875 32.609375 44.71875 
Q 35.15625 46.484375 38.28125 46.484375 
Q 42.96875 46.484375 45.3125 43.9375 
Q 47.65625 41.40625 47.65625 36.71875 
z
" id="SimHei-109"/>
      <path d="M 44.140625 23.828125 
Q 44.140625 12.5 38.671875 6.828125 
Q 33.203125 1.171875 25.390625 1.171875 
Q 21.09375 1.171875 17.96875 2.734375 
Q 14.84375 4.296875 12.5 7.8125 
L 12.5 1.953125 
L 4.6875 1.953125 
L 4.6875 68.75 
L 12.5 68.75 
L 12.5 39.84375 
Q 14.84375 43.359375 17.96875 45.109375 
Q 21.09375 46.875 25.390625 46.875 
Q 33.203125 46.875 38.671875 41.015625 
Q 44.140625 35.15625 44.140625 23.828125 
z
M 35.546875 23.828125 
Q 35.546875 31.25 32.609375 35.546875 
Q 29.6875 39.84375 23.828125 39.84375 
Q 19.140625 39.84375 15.8125 35.546875 
Q 12.5 31.25 12.5 23.828125 
Q 12.5 16.40625 15.8125 12.296875 
Q 19.140625 8.203125 23.828125 8.203125 
Q 29.6875 8.203125 32.609375 12.296875 
Q 35.546875 16.40625 35.546875 23.828125 
z
" id="SimHei-98"/>
      <path d="M 44.53125 16.796875 
Q 43.75 9.765625 38.28125 5.46875 
Q 32.8125 1.171875 25.390625 1.171875 
Q 16.015625 1.171875 9.953125 7.21875 
Q 3.90625 13.28125 3.90625 23.828125 
Q 3.90625 34.375 9.953125 40.421875 
Q 16.015625 46.484375 25.390625 46.484375 
Q 33.59375 46.484375 38.859375 41.203125 
Q 44.140625 35.9375 44.140625 23.828125 
L 12.5 23.828125 
Q 12.5 15.234375 16.203125 11.71875 
Q 19.921875 8.203125 25.390625 8.203125 
Q 29.6875 8.203125 32.421875 10.34375 
Q 35.15625 12.5 35.9375 16.796875 
z
M 35.15625 30.078125 
Q 34.375 35.546875 31.640625 37.6875 
Q 28.90625 39.84375 24.609375 39.84375 
Q 20.703125 39.84375 17.578125 37.6875 
Q 14.453125 35.546875 12.890625 30.078125 
z
" id="SimHei-101"/>
      <path d="M 39.0625 37.890625 
Q 31.640625 39.0625 26.5625 35.734375 
Q 21.484375 32.421875 17.96875 24.21875 
L 17.96875 1.953125 
L 10.15625 1.953125 
L 10.15625 45.703125 
L 17.96875 45.703125 
L 17.96875 34.375 
Q 21.484375 40.625 26.75 43.546875 
Q 32.03125 46.484375 39.0625 46.484375 
z
" id="SimHei-114"/>
      <path id="SimHei-32"/>
      <path d="M 45.703125 23.828125 
Q 45.703125 13.671875 39.453125 7.421875 
Q 33.203125 1.171875 24.609375 1.171875 
Q 16.015625 1.171875 9.765625 7.421875 
Q 3.515625 13.671875 3.515625 23.828125 
Q 3.515625 33.984375 9.765625 40.234375 
Q 16.015625 46.484375 24.609375 46.484375 
Q 33.203125 46.484375 39.453125 40.234375 
Q 45.703125 33.984375 45.703125 23.828125 
z
M 37.109375 23.828125 
Q 37.109375 31.640625 33.203125 35.546875 
Q 29.296875 39.453125 24.609375 39.453125 
Q 19.921875 39.453125 16.015625 35.546875 
Q 12.109375 31.640625 12.109375 23.828125 
Q 12.109375 16.015625 16.015625 12.109375 
Q 19.921875 8.203125 24.609375 8.203125 
Q 29.296875 8.203125 33.203125 12.109375 
Q 37.109375 16.015625 37.109375 23.828125 
z
" id="SimHei-111"/>
      <path d="M 44.53125 59.765625 
Q 42.578125 60.9375 39.84375 61.71875 
Q 37.109375 62.5 32.8125 62.5 
Q 28.515625 62.5 26.953125 60.34375 
Q 25.390625 58.203125 25.390625 55.078125 
L 25.390625 45.703125 
L 41.40625 45.703125 
L 41.40625 39.453125 
L 25.390625 39.453125 
L 25.390625 1.953125 
L 17.578125 1.953125 
L 17.578125 39.453125 
L 4.296875 39.453125 
L 4.296875 45.703125 
L 17.578125 45.703125 
L 17.578125 54.6875 
Q 17.578125 61.71875 21.875 65.625 
Q 26.171875 69.53125 33.203125 69.53125 
Q 37.5 69.53125 40.03125 68.9375 
Q 42.578125 68.359375 44.53125 67.578125 
z
" id="SimHei-102"/>
      <path d="M 44.53125 1.171875 
L 37.890625 1.171875 
L 36.71875 6.640625 
Q 35.15625 4.296875 31.828125 2.734375 
Q 28.515625 1.171875 24.609375 1.171875 
Q 16.40625 1.171875 9.953125 8.78125 
Q 3.515625 16.40625 3.515625 33.203125 
Q 3.515625 51.5625 9.375 60.546875 
Q 15.234375 69.53125 25.390625 69.53125 
Q 34.375 69.53125 39.453125 62.890625 
Q 44.53125 56.25 44.53125 45.703125 
L 35.9375 45.703125 
Q 35.9375 53.90625 33.203125 58 
Q 30.46875 62.109375 25.390625 62.109375 
Q 19.140625 62.109375 16.015625 55.65625 
Q 12.890625 49.21875 12.890625 33.984375 
Q 12.890625 19.53125 16.796875 14.0625 
Q 20.703125 8.59375 25.78125 8.59375 
Q 30.859375 8.59375 33.78125 12.296875 
Q 36.71875 16.015625 36.71875 23.828125 
L 36.71875 28.125 
L 24.609375 28.125 
L 24.609375 35.546875 
L 44.53125 35.546875 
z
" id="SimHei-71"/>
      <path d="M 43.75 1.953125 
L 35.9375 1.953125 
L 35.9375 30.078125 
Q 35.9375 34.765625 33.59375 37.5 
Q 31.25 40.234375 27.34375 40.234375 
Q 22.265625 40.234375 17.765625 34.953125 
Q 13.28125 29.6875 13.28125 21.875 
L 13.28125 1.953125 
L 5.46875 1.953125 
L 5.46875 45.703125 
L 13.28125 45.703125 
L 13.28125 37.5 
Q 16.40625 41.796875 20.109375 44.140625 
Q 23.828125 46.484375 29.6875 46.484375 
Q 36.71875 46.484375 40.234375 42.578125 
Q 43.75 38.671875 43.75 32.8125 
z
" id="SimHei-110"/>
      <path d="M 44.921875 1.953125 
L 35.546875 1.953125 
Q 34.765625 2.734375 34.375 4.09375 
Q 33.984375 5.46875 33.984375 7.421875 
Q 31.25 4.296875 27.34375 2.734375 
Q 23.4375 1.171875 19.140625 1.171875 
Q 12.890625 1.171875 8.59375 4.296875 
Q 4.296875 7.421875 4.296875 13.28125 
Q 4.296875 19.140625 8.203125 22.65625 
Q 12.109375 26.171875 20.3125 27.34375 
Q 25.78125 28.125 29.875 29.296875 
Q 33.984375 30.46875 33.984375 32.421875 
Q 33.984375 34.765625 32.21875 37.109375 
Q 30.46875 39.453125 24.609375 39.453125 
Q 19.921875 39.453125 17.765625 37.6875 
Q 15.625 35.9375 14.84375 32.8125 
L 6.25 32.8125 
Q 7.03125 39.0625 11.90625 42.765625 
Q 16.796875 46.484375 24.609375 46.484375 
Q 33.203125 46.484375 37.5 42.578125 
Q 41.796875 38.671875 41.796875 31.640625 
L 41.796875 10.15625 
Q 41.796875 7.8125 42.578125 5.859375 
Q 43.359375 3.90625 44.921875 1.953125 
z
M 33.984375 16.40625 
L 33.984375 24.21875 
Q 31.640625 23.4375 29.484375 22.84375 
Q 27.34375 22.265625 22.265625 21.484375 
Q 16.40625 20.703125 14.640625 18.75 
Q 12.890625 16.796875 12.890625 14.0625 
Q 12.890625 11.71875 14.640625 9.953125 
Q 16.40625 8.203125 19.921875 8.203125 
Q 23.4375 8.203125 27.53125 10.15625 
Q 31.640625 12.109375 33.984375 16.40625 
z
" id="SimHei-97"/>
      <path d="M 42.96875 3.125 
Q 41.015625 2.34375 38.46875 1.75 
Q 35.9375 1.171875 31.640625 1.171875 
Q 24.609375 1.171875 20.3125 5.078125 
Q 16.015625 8.984375 16.015625 16.015625 
L 16.015625 39.453125 
L 2.734375 39.453125 
L 2.734375 45.703125 
L 16.015625 45.703125 
L 16.015625 60.9375 
L 23.828125 60.9375 
L 23.828125 45.703125 
L 39.84375 45.703125 
L 39.84375 39.453125 
L 23.828125 39.453125 
L 23.828125 15.625 
Q 23.828125 12.5 25.390625 10.34375 
Q 26.953125 8.203125 31.25 8.203125 
Q 35.546875 8.203125 38.28125 8.984375 
Q 41.015625 9.765625 42.96875 10.9375 
z
" id="SimHei-116"/>
      <path d="M 28.125 58.203125 
L 20.3125 58.203125 
L 20.3125 68.359375 
L 28.125 68.359375 
z
M 28.125 1.953125 
L 20.3125 1.953125 
L 20.3125 45.703125 
L 28.125 45.703125 
z
" id="SimHei-105"/>
     </defs>
     <g transform="translate(163.725 250.64)scale(0.1 -0.1)">
      <use xlink:href="#SimHei-78"/>
      <use x="50" xlink:href="#SimHei-117"/>
      <use x="100" xlink:href="#SimHei-109"/>
      <use x="150" xlink:href="#SimHei-98"/>
      <use x="200" xlink:href="#SimHei-101"/>
      <use x="250" xlink:href="#SimHei-114"/>
      <use x="300" xlink:href="#SimHei-32"/>
      <use x="350" xlink:href="#SimHei-111"/>
      <use x="400" xlink:href="#SimHei-102"/>
      <use x="450" xlink:href="#SimHei-32"/>
      <use x="500" xlink:href="#SimHei-71"/>
      <use x="550" xlink:href="#SimHei-101"/>
      <use x="600" xlink:href="#SimHei-110"/>
      <use x="650" xlink:href="#SimHei-101"/>
      <use x="700" xlink:href="#SimHei-114"/>
      <use x="750" xlink:href="#SimHei-97"/>
      <use x="800" xlink:href="#SimHei-116"/>
      <use x="850" xlink:href="#SimHei-105"/>
      <use x="900" xlink:href="#SimHei-111"/>
      <use x="950" xlink:href="#SimHei-110"/>
     </g>
    </g>
   </g>
   <g id="matplotlib.axis_2">
    <g id="ytick_1">
     <g id="line2d_10">
      <defs>
       <path d="M 0 0 
L -3.5 0 
" id="mca80f90187" style="stroke:#000000;stroke-width:0.8;"/>
      </defs>
      <g>
       <use style="stroke:#000000;stroke-width:0.8;" x="46.325" xlink:href="#mca80f90187" y="208.879934"/>
      </g>
     </g>
     <g id="text_11">
      <!-- 2.75 -->
      <defs>
       <path d="M 16.796875 1.953125 
L 7.8125 1.953125 
L 7.8125 10.546875 
L 16.796875 10.546875 
z
" id="SimHei-46"/>
      </defs>
      <g transform="translate(19.325 212.317434)scale(0.1 -0.1)">
       <use xlink:href="#SimHei-50"/>
       <use x="50" xlink:href="#SimHei-46"/>
       <use x="100" xlink:href="#SimHei-55"/>
       <use x="150" xlink:href="#SimHei-53"/>
      </g>
     </g>
    </g>
    <g id="ytick_2">
     <g id="line2d_11">
      <g>
       <use style="stroke:#000000;stroke-width:0.8;" x="46.325" xlink:href="#mca80f90187" y="184.118039"/>
      </g>
     </g>
     <g id="text_12">
      <!-- 3.00 -->
      <defs>
       <path d="M 3.90625 19.140625 
L 10.9375 20.3125 
Q 12.5 15.234375 16.015625 11.90625 
Q 19.53125 8.59375 24.796875 8.78125 
Q 30.078125 8.984375 33.203125 13.078125 
Q 36.328125 17.1875 35.9375 22.453125 
Q 35.546875 27.734375 31.828125 30.65625 
Q 28.125 33.59375 19.921875 34.765625 
L 19.921875 39.84375 
Q 28.125 40.625 31.828125 44.140625 
Q 35.546875 47.65625 35.15625 53.3125 
Q 34.765625 58.984375 30.078125 61.515625 
Q 25.390625 64.0625 20.109375 62.109375 
Q 14.84375 60.15625 11.71875 51.171875 
L 4.6875 52.34375 
Q 7.03125 59.375 11.125 64.0625 
Q 15.234375 68.75 22.265625 69.53125 
Q 29.296875 70.3125 34.5625 67.765625 
Q 39.84375 65.234375 41.984375 59.953125 
Q 44.140625 54.6875 42.578125 48.4375 
Q 41.015625 42.1875 33.59375 37.5 
Q 39.0625 35.15625 41.984375 30.46875 
Q 44.921875 25.78125 43.9375 18.15625 
Q 42.96875 10.546875 37.109375 5.859375 
Q 31.25 1.171875 23.828125 1.359375 
Q 16.40625 1.5625 10.9375 6.046875 
Q 5.46875 10.546875 3.90625 19.140625 
z
" id="SimHei-51"/>
      </defs>
      <g transform="translate(19.325 187.555539)scale(0.1 -0.1)">
       <use xlink:href="#SimHei-51"/>
       <use x="50" xlink:href="#SimHei-46"/>
       <use x="100" xlink:href="#SimHei-48"/>
       <use x="150" xlink:href="#SimHei-48"/>
      </g>
     </g>
    </g>
    <g id="ytick_3">
     <g id="line2d_12">
      <g>
       <use style="stroke:#000000;stroke-width:0.8;" x="46.325" xlink:href="#mca80f90187" y="159.356143"/>
      </g>
     </g>
     <g id="text_13">
      <!-- 3.25 -->
      <g transform="translate(19.325 162.793643)scale(0.1 -0.1)">
       <use xlink:href="#SimHei-51"/>
       <use x="50" xlink:href="#SimHei-46"/>
       <use x="100" xlink:href="#SimHei-50"/>
       <use x="150" xlink:href="#SimHei-53"/>
      </g>
     </g>
    </g>
    <g id="ytick_4">
     <g id="line2d_13">
      <g>
       <use style="stroke:#000000;stroke-width:0.8;" x="46.325" xlink:href="#mca80f90187" y="134.594248"/>
      </g>
     </g>
     <g id="text_14">
      <!-- 3.50 -->
      <g transform="translate(19.325 138.031748)scale(0.1 -0.1)">
       <use xlink:href="#SimHei-51"/>
       <use x="50" xlink:href="#SimHei-46"/>
       <use x="100" xlink:href="#SimHei-53"/>
       <use x="150" xlink:href="#SimHei-48"/>
      </g>
     </g>
    </g>
    <g id="ytick_5">
     <g id="line2d_14">
      <g>
       <use style="stroke:#000000;stroke-width:0.8;" x="46.325" xlink:href="#mca80f90187" y="109.832353"/>
      </g>
     </g>
     <g id="text_15">
      <!-- 3.75 -->
      <g transform="translate(19.325 113.269853)scale(0.1 -0.1)">
       <use xlink:href="#SimHei-51"/>
       <use x="50" xlink:href="#SimHei-46"/>
       <use x="100" xlink:href="#SimHei-55"/>
       <use x="150" xlink:href="#SimHei-53"/>
      </g>
     </g>
    </g>
    <g id="ytick_6">
     <g id="line2d_15">
      <g>
       <use style="stroke:#000000;stroke-width:0.8;" x="46.325" xlink:href="#mca80f90187" y="85.070458"/>
      </g>
     </g>
     <g id="text_16">
      <!-- 4.00 -->
      <defs>
       <path d="M 31.25 17.1875 
L 1.171875 17.1875 
L 1.171875 23.828125 
L 32.8125 69.53125 
L 38.671875 69.53125 
L 38.671875 23.828125 
L 48.046875 23.828125 
L 48.046875 17.1875 
L 38.671875 17.1875 
L 38.671875 2.34375 
L 31.25 2.34375 
z
M 31.25 23.828125 
L 31.25 54.6875 
L 9.375 23.828125 
z
" id="SimHei-52"/>
      </defs>
      <g transform="translate(19.325 88.507958)scale(0.1 -0.1)">
       <use xlink:href="#SimHei-52"/>
       <use x="50" xlink:href="#SimHei-46"/>
       <use x="100" xlink:href="#SimHei-48"/>
       <use x="150" xlink:href="#SimHei-48"/>
      </g>
     </g>
    </g>
    <g id="ytick_7">
     <g id="line2d_16">
      <g>
       <use style="stroke:#000000;stroke-width:0.8;" x="46.325" xlink:href="#mca80f90187" y="60.308562"/>
      </g>
     </g>
     <g id="text_17">
      <!-- 4.25 -->
      <g transform="translate(19.325 63.746062)scale(0.1 -0.1)">
       <use xlink:href="#SimHei-52"/>
       <use x="50" xlink:href="#SimHei-46"/>
       <use x="100" xlink:href="#SimHei-50"/>
       <use x="150" xlink:href="#SimHei-53"/>
      </g>
     </g>
    </g>
    <g id="ytick_8">
     <g id="line2d_17">
      <g>
       <use style="stroke:#000000;stroke-width:0.8;" x="46.325" xlink:href="#mca80f90187" y="35.546667"/>
      </g>
     </g>
     <g id="text_18">
      <!-- 4.50 -->
      <g transform="translate(19.325 38.984167)scale(0.1 -0.1)">
       <use xlink:href="#SimHei-52"/>
       <use x="50" xlink:href="#SimHei-46"/>
       <use x="100" xlink:href="#SimHei-53"/>
       <use x="150" xlink:href="#SimHei-48"/>
      </g>
     </g>
    </g>
    <g id="ytick_9">
     <g id="line2d_18">
      <g>
       <use style="stroke:#000000;stroke-width:0.8;" x="46.325" xlink:href="#mca80f90187" y="10.784772"/>
      </g>
     </g>
     <g id="text_19">
      <!-- 4.75 -->
      <g transform="translate(19.325 14.222272)scale(0.1 -0.1)">
       <use xlink:href="#SimHei-52"/>
       <use x="50" xlink:href="#SimHei-46"/>
       <use x="100" xlink:href="#SimHei-55"/>
       <use x="150" xlink:href="#SimHei-53"/>
      </g>
     </g>
    </g>
    <g id="text_20">
     <!-- Value -->
     <defs>
      <path d="M 47.65625 68.75 
L 28.125 1.171875 
L 20.3125 1.171875 
L 0.78125 68.75 
L 10.15625 68.75 
L 23.828125 17.578125 
L 24.609375 17.578125 
L 38.28125 68.75 
z
" id="SimHei-86"/>
      <path d="M 28.515625 1.953125 
L 20.703125 1.953125 
L 20.703125 68.75 
L 28.515625 68.75 
z
" id="SimHei-108"/>
     </defs>
     <g transform="translate(14.075 128.42)rotate(-90)scale(0.1 -0.1)">
      <use xlink:href="#SimHei-86"/>
      <use x="50" xlink:href="#SimHei-97"/>
      <use x="100" xlink:href="#SimHei-108"/>
      <use x="150" xlink:href="#SimHei-117"/>
      <use x="200" xlink:href="#SimHei-101"/>
     </g>
    </g>
   </g>
   <g id="line2d_19">
    <path clip-path="url(#p334854e65a)" d="M 61.543182 17.083636 
L 63.072647 33.232844 
L 64.602113 33.728296 
L 66.131578 43.255225 
L 67.661044 56.530058 
L 69.190509 78.035221 
L 70.719975 96.658862 
L 72.24944 109.011472 
L 73.778906 117.741451 
L 75.308371 152.70697 
L 78.367302 193.834325 
L 79.896768 203.807985 
L 81.426233 209.059099 
L 82.955699 208.484504 
L 84.485164 212.593195 
L 87.544095 211.527008 
L 90.603026 212.807353 
L 92.132492 211.444832 
L 93.661958 213.2205 
L 95.191423 212.405427 
L 96.720889 213.905721 
L 98.250354 214.756364 
L 101.309285 214.269791 
L 102.838751 213.170017 
L 104.368216 209.141443 
L 105.897682 210.867591 
L 107.427147 208.826638 
L 110.486078 211.73757 
L 112.015544 209.391564 
L 113.545009 212.743659 
L 115.074475 212.2792 
L 116.60394 212.501674 
L 118.133406 210.390346 
L 119.662871 213.739152 
L 121.192337 213.647135 
L 122.721802 214.756364 
L 124.251268 211.504082 
L 125.780733 211.703544 
L 127.310199 214.514422 
L 128.839664 211.26214 
L 130.36913 211.741899 
L 131.898595 211.658601 
L 133.428061 212.171047 
L 134.957526 211.92279 
L 136.486992 214.756364 
L 138.016457 214.756364 
L 139.545923 210.604116 
L 141.075388 213.42888 
L 142.604854 210.644197 
L 144.134319 210.439657 
L 145.663785 211.148805 
L 147.19325 212.650542 
L 148.722716 213.2301 
L 150.252181 214.756364 
L 151.781647 212.638757 
L 153.311112 214.342683 
L 154.840578 213.014684 
L 156.370043 210.908246 
L 157.899509 213.120811 
L 159.428974 213.895134 
L 160.95844 208.534065 
L 162.487905 206.916036 
L 164.017371 208.94817 
L 165.546836 212.493572 
L 167.076302 214.590941 
L 168.605767 214.100992 
L 170.135233 212.647888 
L 171.664698 212.111756 
L 173.194164 214.444716 
L 174.72363 214.497762 
L 176.253095 210.853388 
L 177.782561 211.136203 
L 179.312026 212.314863 
L 180.841492 214.509485 
L 182.370957 207.871833 
L 183.900423 208.782908 
L 185.429888 213.200304 
L 186.959354 210.595746 
L 188.488819 212.999255 
L 190.018285 211.080407 
L 191.54775 209.948022 
L 193.077216 212.496725 
L 194.606681 211.527354 
L 196.136147 212.68449 
L 197.665612 212.219086 
L 199.195078 213.293913 
L 200.724543 211.645366 
L 202.254009 214.590941 
L 205.31294 214.584048 
L 206.842405 211.397687 
L 208.371871 213.708829 
L 209.901336 213.802682 
L 211.430802 210.877636 
L 212.960267 213.06558 
L 214.489733 213.31483 
L 216.019198 213.764553 
L 217.548664 211.913157 
L 219.078129 210.76578 
L 220.607595 208.325367 
L 222.13706 210.685078 
L 225.195991 211.918684 
L 226.725457 209.529624 
L 228.254922 210.592982 
L 229.784388 210.693835 
L 231.313853 208.046267 
L 232.843319 212.699355 
L 234.372784 212.69984 
L 235.90225 211.255918 
L 237.431715 210.632994 
L 238.961181 208.646699 
L 240.490646 213.53475 
L 242.020112 209.965089 
L 243.549577 212.889409 
L 245.079043 212.283871 
L 246.608508 209.090665 
L 248.137974 212.394113 
L 249.667439 213.91532 
L 251.196905 212.058621 
L 252.72637 213.162561 
L 254.255836 212.586796 
L 255.785302 213.707961 
L 257.314767 210.947992 
L 258.844233 212.343167 
L 260.373698 213.04487 
L 261.903164 214.60054 
L 263.432629 214.756364 
L 264.962095 212.124316 
L 266.49156 213.536492 
L 268.021026 210.846411 
L 269.550491 213.678987 
L 271.079957 214.508106 
L 272.609422 211.464887 
L 274.138888 213.44812 
L 275.668353 212.076411 
L 277.197819 213.00752 
L 278.727284 213.542809 
L 280.25675 211.233182 
L 281.786215 211.945949 
L 283.315681 211.058751 
L 284.845146 213.227138 
L 286.374612 214.259654 
L 287.904077 213.594302 
L 289.433543 206.819583 
L 290.963008 210.704104 
L 292.492474 212.720063 
L 295.551405 213.390306 
L 297.08087 214.269557 
L 298.610336 213.194989 
L 300.139801 214.756364 
L 301.669267 210.155712 
L 303.198732 206.30021 
L 304.728198 208.958106 
L 306.257663 212.541918 
L 307.787129 210.749516 
L 309.316594 212.740758 
L 310.84606 210.090175 
L 312.375525 209.396027 
L 313.904991 209.998553 
L 315.434456 209.981573 
L 316.963922 214.509485 
L 318.493387 214.590941 
L 320.022853 212.398197 
L 321.552318 212.216019 
L 323.081784 211.915522 
L 324.611249 213.529895 
L 326.140715 213.678987 
L 327.67018 212.679079 
L 329.199646 212.108386 
L 330.729111 213.764921 
L 332.258577 212.32112 
L 333.788042 214.632924 
L 335.317508 214.756364 
L 336.846974 208.25628 
L 338.376439 212.727984 
L 339.905905 211.44759 
L 341.43537 213.802682 
L 342.964836 210.151923 
L 344.494301 211.046849 
L 346.023767 212.370296 
L 347.553232 207.997127 
L 349.082698 213.648255 
L 350.612163 210.442381 
L 352.141629 209.438996 
L 353.671094 214.071143 
L 355.20056 213.881785 
L 356.730025 214.020247 
L 358.259491 212.71898 
L 359.788956 212.265124 
L 361.318422 210.712856 
L 362.847887 211.200683 
L 364.377353 210.637807 
L 365.906818 213.43073 
L 365.906818 213.43073 
" style="fill:none;stroke:#1f77b4;stroke-linecap:square;stroke-width:1.5;"/>
   </g>
   <g id="line2d_20">
    <path clip-path="url(#p334854e65a)" d="M 61.543182 133.06607 
L 69.190509 133.06607 
L 70.719975 172.704167 
L 72.24944 206.965174 
L 73.778906 214.756364 
L 365.906818 214.756364 
L 365.906818 214.756364 
" style="fill:none;stroke:#ff7f0e;stroke-linecap:square;stroke-width:1.5;"/>
   </g>
   <g id="patch_3">
    <path d="M 46.325 224.64 
L 46.325 7.2 
" style="fill:none;stroke:#000000;stroke-linecap:square;stroke-linejoin:miter;stroke-width:0.8;"/>
   </g>
   <g id="patch_4">
    <path d="M 381.125 224.64 
L 381.125 7.2 
" style="fill:none;stroke:#000000;stroke-linecap:square;stroke-linejoin:miter;stroke-width:0.8;"/>
   </g>
   <g id="patch_5">
    <path d="M 46.325 224.64 
L 381.125 224.64 
" style="fill:none;stroke:#000000;stroke-linecap:square;stroke-linejoin:miter;stroke-width:0.8;"/>
   </g>
   <g id="patch_6">
    <path d="M 46.325 7.2 
L 381.125 7.2 
" style="fill:none;stroke:#000000;stroke-linecap:square;stroke-linejoin:miter;stroke-width:0.8;"/>
   </g>
   <g id="legend_1">
    <g id="patch_7">
     <path d="M 232.125 43.871875 
L 374.125 43.871875 
Q 376.125 43.871875 376.125 41.871875 
L 376.125 14.2 
Q 376.125 12.2 374.125 12.2 
L 232.125 12.2 
Q 230.125 12.2 230.125 14.2 
L 230.125 41.871875 
Q 230.125 43.871875 232.125 43.871875 
z
" style="fill:#ffffff;opacity:0.8;stroke:#cccccc;stroke-linejoin:miter;"/>
    </g>
    <g id="line2d_21">
     <path d="M 234.125 20.785937 
L 254.125 20.785937 
" style="fill:none;stroke:#1f77b4;stroke-linecap:square;stroke-width:1.5;"/>
    </g>
    <g id="line2d_22"/>
    <g id="text_21">
     <!-- 种群个体平均目标函数值 -->
     <defs>
      <path d="M 66.015625 62.5 
Q 66.015625 77.734375 65.625 82.421875 
L 73.828125 82.421875 
Q 73.4375 78.125 73.4375 62.5 
L 93.75 62.5 
Q 93.359375 58.203125 93.359375 50.78125 
L 93.359375 24.21875 
Q 93.359375 19.921875 93.75 14.453125 
L 85.9375 14.453125 
L 85.9375 22.265625 
L 73.4375 22.265625 
L 73.4375 5.859375 
Q 73.4375 -4.296875 73.828125 -10.9375 
L 65.625 -10.9375 
Q 66.015625 -4.296875 66.015625 5.859375 
L 66.015625 22.265625 
L 53.515625 22.265625 
L 53.515625 12.890625 
L 45.703125 12.890625 
Q 46.09375 17.578125 46.09375 23.4375 
L 46.09375 50 
Q 46.09375 58.203125 45.703125 62.5 
L 66.015625 62.5 
z
M 5.46875 50.78125 
Q 11.328125 50.390625 19.140625 50.390625 
L 22.265625 50.390625 
L 22.265625 67.578125 
Q 18.359375 66.40625 8.984375 64.453125 
Q 7.421875 67.96875 5.46875 71.484375 
Q 14.0625 71.875 22.0625 74.015625 
Q 30.078125 76.171875 36.71875 79.6875 
Q 39.0625 76.5625 42.578125 72.265625 
Q 38.671875 71.875 35.9375 71.09375 
Q 33.203125 70.3125 29.6875 69.53125 
L 29.6875 50.390625 
Q 34.765625 50.390625 42.1875 50.78125 
L 42.1875 43.75 
Q 34.765625 44.140625 29.6875 44.140625 
L 29.6875 3.515625 
Q 29.6875 -1.953125 30.078125 -10.15625 
L 21.875 -10.15625 
Q 22.265625 -1.953125 22.265625 3.515625 
L 22.265625 29.296875 
Q 19.140625 21.484375 16.59375 16.796875 
Q 14.0625 12.109375 9.765625 5.46875 
Q 6.640625 9.765625 3.90625 13.28125 
Q 9.375 19.140625 13.859375 26.953125 
Q 18.359375 34.765625 20.3125 44.140625 
L 14.453125 44.140625 
Q 8.984375 44.140625 5.46875 43.75 
z
M 66.015625 28.515625 
L 66.015625 56.25 
L 53.515625 56.25 
L 53.515625 28.515625 
z
M 85.9375 28.515625 
L 85.9375 56.25 
L 73.4375 56.25 
L 73.4375 28.515625 
z
M 37.109375 38.671875 
Q 38.28125 35.9375 40.234375 33.203125 
Q 42.1875 30.46875 44.53125 25.390625 
Q 41.015625 23.828125 37.890625 21.484375 
Q 35.9375 25.78125 34.5625 28.703125 
Q 33.203125 31.640625 30.859375 34.765625 
Q 33.203125 36.328125 37.109375 38.671875 
z
" id="SimHei-31181"/>
      <path d="M 39.0625 -6.640625 
L 39.0625 0.390625 
L 23.046875 0.390625 
L 23.046875 -9.375 
L 15.625 -9.375 
Q 16.015625 -3.515625 16.015625 21.875 
Q 12.890625 17.1875 9.375 13.28125 
Q 7.03125 16.40625 3.125 17.578125 
Q 7.03125 21.484375 10.9375 26.953125 
Q 14.84375 32.421875 16.40625 37.109375 
Q 13.28125 37.109375 8.59375 36.71875 
L 8.59375 43.359375 
Q 14.0625 42.96875 17.578125 42.96875 
Q 18.75 48.828125 18.75 53.125 
Q 10.546875 53.125 5.859375 52.734375 
L 5.859375 59.375 
Q 10.9375 58.984375 18.75 58.984375 
L 18.75 69.921875 
Q 16.40625 69.921875 10.15625 69.53125 
L 10.15625 76.5625 
Q 16.015625 76.171875 19.921875 76.171875 
L 46.09375 76.171875 
Q 45.703125 70.3125 45.703125 58.984375 
Q 48.046875 58.984375 51.171875 59.375 
L 51.171875 52.734375 
Q 48.046875 53.125 45.703125 53.125 
Q 45.703125 41.796875 46.09375 37.109375 
L 23.4375 37.109375 
Q 21.09375 30.078125 19.140625 27.34375 
L 46.484375 27.34375 
Q 46.09375 22.265625 46.09375 10.546875 
Q 46.09375 -1.171875 46.484375 -6.640625 
z
M 76.171875 19.921875 
Q 91.015625 19.921875 94.921875 20.3125 
L 94.921875 13.671875 
Q 91.015625 14.0625 76.171875 14.0625 
L 76.171875 3.515625 
Q 76.171875 -3.515625 76.5625 -10.9375 
L 68.75 -10.9375 
Q 69.140625 -3.515625 69.140625 3.515625 
L 69.140625 14.0625 
Q 55.46875 14.0625 50 13.671875 
L 50 20.3125 
Q 55.46875 19.921875 69.140625 19.921875 
L 69.140625 35.15625 
Q 57.421875 35.15625 53.125 34.765625 
L 53.125 41.40625 
Q 57.8125 41.015625 69.140625 41.015625 
L 69.140625 54.6875 
Q 58.984375 54.6875 52.734375 54.296875 
L 52.734375 60.9375 
Q 58.984375 60.546875 74.21875 60.546875 
Q 78.515625 69.921875 81.640625 80.859375 
Q 86.328125 78.515625 90.625 77.734375 
Q 89.0625 75.390625 86.71875 71.28125 
Q 84.375 67.1875 81.25 60.546875 
Q 87.890625 60.546875 92.96875 60.9375 
L 92.96875 54.296875 
Q 88.28125 54.6875 76.171875 54.6875 
L 76.171875 41.015625 
L 81.640625 41.015625 
L 91.796875 41.40625 
L 91.796875 34.765625 
Q 86.328125 35.15625 76.171875 35.15625 
z
M 39.0625 6.25 
L 39.0625 21.09375 
L 23.046875 21.09375 
L 23.046875 6.25 
z
M 38.671875 58.984375 
L 38.671875 69.921875 
L 25.78125 69.921875 
L 25.78125 58.984375 
z
M 38.671875 42.96875 
L 38.671875 53.125 
L 25.78125 53.125 
Q 25.390625 48.828125 24.609375 42.96875 
z
M 62.890625 65.234375 
Q 59.375 71.875 55.859375 76.953125 
Q 58.59375 78.125 61.328125 80.46875 
Q 64.84375 76.5625 69.140625 69.53125 
Q 65.234375 67.1875 62.890625 65.234375 
z
" id="SimHei-32676"/>
      <path d="M 53.515625 75.390625 
Q 69.921875 51.171875 96.09375 43.359375 
Q 92.1875 38.671875 90.234375 34.375 
Q 64.84375 45.3125 49.21875 69.140625 
Q 34.765625 46.09375 10.546875 33.203125 
Q 8.59375 36.71875 3.90625 40.625 
Q 22.65625 48.4375 33 60.546875 
Q 43.359375 72.65625 46.875 82.421875 
Q 51.5625 80.46875 56.25 78.90625 
Q 54.6875 76.953125 53.515625 75.390625 
z
M 45.703125 36.71875 
Q 45.703125 42.96875 44.921875 52.734375 
L 53.90625 52.734375 
Q 53.515625 46.09375 53.515625 36.328125 
L 53.515625 8.59375 
Q 53.515625 -0.390625 53.90625 -9.765625 
L 45.3125 -9.765625 
Q 45.703125 0 45.703125 8.203125 
z
" id="SimHei-20010"/>
      <path d="M 57.03125 60.15625 
Q 57.03125 74.21875 56.640625 80.078125 
L 64.453125 80.078125 
Q 64.0625 74.609375 64.0625 60.15625 
L 81.25 60.15625 
Q 89.0625 60.15625 92.578125 60.546875 
L 92.578125 53.515625 
Q 89.0625 53.90625 81.25 53.90625 
L 70.703125 53.90625 
Q 76.953125 28.90625 96.875 18.75 
Q 92.578125 16.40625 90.234375 12.109375 
Q 69.140625 28.125 64.0625 53.515625 
L 64.0625 16.015625 
Q 75.390625 16.015625 78.90625 16.40625 
L 78.90625 9.375 
Q 75.390625 9.765625 64.0625 9.765625 
Q 64.0625 1.171875 64.453125 -8.984375 
L 56.640625 -8.984375 
Q 57.03125 1.5625 57.03125 9.765625 
Q 50 9.765625 42.1875 9.375 
L 42.1875 16.40625 
Q 50 16.015625 57.03125 16.015625 
L 57.03125 53.90625 
Q 52.734375 28.125 31.25 10.15625 
Q 28.90625 13.671875 24.21875 16.015625 
Q 44.53125 29.296875 50 53.90625 
L 41.796875 53.90625 
Q 35.546875 53.90625 30.859375 53.515625 
L 30.859375 60.546875 
Q 35.546875 60.15625 41.796875 60.15625 
z
M 31.25 76.5625 
Q 28.515625 73.046875 23.828125 58.984375 
L 23.828125 8.984375 
Q 23.828125 -3.125 24.21875 -8.59375 
L 16.40625 -8.59375 
Q 16.796875 -3.515625 16.796875 8.59375 
L 16.796875 45.3125 
Q 14.84375 41.015625 8.984375 32.03125 
Q 7.03125 35.546875 3.515625 37.890625 
Q 8.203125 42.578125 14.453125 56.4375 
Q 20.703125 70.3125 22.265625 80.078125 
Q 26.5625 78.125 31.25 76.5625 
z
" id="SimHei-20307"/>
      <path d="M 70.703125 75.390625 
Q 76.5625 75.390625 85.15625 75.78125 
L 85.15625 68.359375 
Q 76.953125 68.75 70.703125 68.75 
L 54.296875 68.75 
L 54.296875 31.640625 
L 78.125 31.640625 
Q 86.71875 31.640625 94.140625 32.03125 
L 94.140625 24.609375 
Q 86.71875 25 78.125 25 
L 54.296875 25 
L 54.296875 7.03125 
Q 54.296875 -1.5625 54.6875 -9.375 
L 45.703125 -9.375 
Q 46.09375 -1.5625 46.09375 7.03125 
L 46.09375 25 
L 17.578125 25 
Q 12.109375 25 5.859375 24.609375 
L 5.859375 32.03125 
Q 12.109375 31.640625 18.359375 31.640625 
L 46.09375 31.640625 
L 46.09375 68.75 
L 27.734375 68.75 
Q 21.875 68.75 13.671875 68.359375 
L 13.671875 75.78125 
Q 21.875 75.390625 27.34375 75.390625 
z
M 61.328125 40.625 
Q 70.3125 51.5625 76.5625 64.453125 
Q 80.46875 61.71875 84.375 59.765625 
Q 74.609375 44.53125 67.96875 35.9375 
Q 64.84375 38.671875 61.328125 40.625 
z
M 30.859375 36.71875 
Q 25 48.4375 16.40625 58.203125 
Q 19.53125 60.546875 22.65625 63.28125 
Q 32.421875 51.5625 38.28125 42.578125 
Q 33.59375 39.0625 30.859375 36.71875 
z
" id="SimHei-24179"/>
      <path d="M 90.234375 4.296875 
Q 90.234375 -5.078125 83.78125 -7.03125 
Q 77.34375 -8.984375 69.140625 -9.375 
Q 68.359375 -4.296875 66.40625 0.390625 
Q 77.34375 -0.390625 80.078125 0.96875 
Q 82.8125 2.34375 82.8125 7.8125 
L 83.984375 57.8125 
L 55.46875 57.8125 
Q 53.515625 52.734375 50.96875 47.453125 
Q 48.4375 42.1875 45.703125 37.5 
Q 41.796875 39.84375 38.671875 41.015625 
Q 49.21875 56.640625 54.6875 81.25 
Q 59.375 79.6875 63.671875 78.515625 
Q 62.109375 76.171875 60.546875 72.65625 
Q 58.984375 69.140625 57.421875 64.453125 
L 92.1875 64.453125 
L 90.234375 4.296875 
z
M 19.53125 56.640625 
L 19.53125 68.359375 
Q 19.53125 74.609375 19.140625 79.6875 
L 27.734375 79.6875 
Q 27.34375 73.828125 27.34375 68.359375 
L 27.34375 56.640625 
L 29.6875 56.640625 
Q 34.375 56.640625 39.453125 57.03125 
L 39.453125 49.21875 
Q 34.375 49.609375 29.6875 49.609375 
L 27.34375 49.609375 
L 27.34375 17.1875 
L 39.0625 21.484375 
Q 38.671875 17.578125 39.453125 14.0625 
Q 19.140625 7.421875 15.03125 5.65625 
Q 10.9375 3.90625 7.421875 2.34375 
Q 5.859375 7.421875 3.90625 11.71875 
Q 8.984375 12.5 12.5 13.28125 
Q 16.015625 14.0625 19.53125 15.234375 
L 19.53125 49.609375 
L 17.578125 49.609375 
Q 13.28125 49.609375 6.25 49.21875 
L 6.25 57.03125 
Q 13.28125 56.640625 17.1875 56.640625 
z
M 77.34375 25.390625 
Q 73.046875 22.265625 64.640625 16.40625 
Q 56.25 10.546875 49.609375 4.6875 
Q 46.875 8.984375 44.53125 12.109375 
Q 52.34375 16.40625 58.78125 20.703125 
Q 65.234375 25 74.609375 32.421875 
Q 75.390625 28.90625 77.34375 25.390625 
z
M 58.984375 49.21875 
Q 64.453125 43.75 69.921875 35.9375 
Q 66.40625 33.203125 64.0625 30.859375 
Q 60.9375 36.328125 53.90625 44.140625 
Q 56.25 46.875 58.984375 49.21875 
z
" id="SimHei-22343"/>
      <path d="M 83.984375 76.5625 
Q 83.59375 65.234375 83.59375 55.078125 
L 83.59375 9.375 
Q 83.59375 3.515625 83.984375 -8.59375 
L 75.390625 -8.59375 
L 75.390625 -1.5625 
L 24.609375 -1.5625 
L 24.609375 -8.203125 
L 16.40625 -8.203125 
Q 16.796875 2.34375 16.796875 8.59375 
L 16.796875 55.078125 
Q 16.796875 67.96875 16.40625 76.5625 
L 83.984375 76.5625 
z
M 75.390625 4.6875 
L 75.390625 23.046875 
L 24.609375 23.046875 
L 24.609375 4.6875 
z
M 75.390625 29.296875 
L 75.390625 46.875 
L 24.609375 46.875 
L 24.609375 29.296875 
z
M 75.390625 53.125 
L 75.390625 70.3125 
L 24.609375 70.3125 
L 24.609375 53.125 
z
" id="SimHei-30446"/>
      <path d="M 19.921875 68.75 
Q 19.921875 75 19.53125 80.859375 
L 27.34375 80.859375 
Q 26.953125 75.390625 26.953125 68.75 
L 26.953125 59.375 
Q 33.203125 59.375 40.234375 59.765625 
L 40.234375 52.34375 
Q 33.203125 52.734375 26.953125 52.734375 
L 26.953125 39.453125 
Q 29.6875 41.40625 32.421875 43.75 
Q 37.5 35.546875 41.40625 27.734375 
Q 37.109375 25.78125 33.984375 23.4375 
Q 31.640625 31.25 26.953125 37.890625 
L 26.953125 7.421875 
Q 26.953125 -0.78125 27.34375 -8.984375 
L 19.53125 -8.984375 
Q 19.921875 -0.390625 19.921875 7.421875 
L 19.921875 32.8125 
Q 16.015625 21.875 7.8125 11.71875 
Q 5.46875 14.84375 1.953125 17.578125 
Q 8.59375 24.21875 12.6875 34.171875 
Q 16.796875 44.140625 17.96875 52.734375 
Q 10.546875 52.734375 5.078125 51.953125 
L 5.078125 59.765625 
Q 12.5 59.375 19.921875 59.375 
z
M 80.859375 48.828125 
Q 88.671875 48.828125 94.53125 49.21875 
L 94.53125 41.796875 
Q 88.671875 42.1875 82.421875 42.1875 
L 70.3125 42.1875 
L 70.3125 2.734375 
Q 70.3125 -3.515625 66.796875 -5.46875 
Q 63.28125 -7.421875 54.296875 -8.59375 
Q 53.515625 -3.90625 51.171875 0.390625 
Q 58.984375 0.390625 60.9375 0.96875 
Q 62.890625 1.5625 62.890625 5.46875 
L 62.890625 42.1875 
L 53.125 42.1875 
Q 43.359375 42.1875 39.0625 41.40625 
L 39.0625 49.21875 
Q 44.140625 48.828125 53.125 48.828125 
z
M 76.5625 74.609375 
Q 84.765625 74.609375 89.84375 75 
L 89.84375 67.1875 
Q 82.421875 67.96875 74.21875 67.96875 
L 55.078125 67.96875 
Q 48.828125 67.96875 42.96875 67.1875 
L 42.96875 75 
Q 48.4375 74.609375 55.078125 74.609375 
z
M 82.421875 31.640625 
Q 91.015625 18.359375 96.875 7.8125 
Q 92.578125 5.859375 88.28125 3.125 
Q 83.984375 14.453125 75.390625 26.953125 
Q 79.296875 28.90625 82.421875 31.640625 
z
M 56.25 27.734375 
Q 54.6875 25.390625 50.390625 15.234375 
Q 46.09375 5.078125 43.75 0.78125 
Q 40.234375 2.734375 35.9375 4.296875 
Q 41.015625 12.109375 43.546875 18.546875 
Q 46.09375 25 47.65625 31.25 
Q 51.953125 29.296875 56.25 27.734375 
z
" id="SimHei-26631"/>
      <path d="M 18.75 3.125 
L 81.25 3.125 
L 81.25 34.765625 
Q 81.25 40.625 80.46875 48.046875 
L 89.0625 48.046875 
Q 88.671875 39.0625 88.671875 34.765625 
L 88.671875 0.78125 
Q 88.671875 -4.296875 89.0625 -9.765625 
L 81.25 -9.765625 
L 81.25 -3.515625 
L 10.9375 -3.515625 
Q 11.328125 0.78125 11.328125 21.484375 
Q 11.328125 42.1875 10.9375 48.046875 
L 19.140625 48.046875 
Q 18.75 43.75 18.75 38.671875 
z
M 85.15625 76.953125 
L 85.15625 69.53125 
Q 79.296875 67.578125 69.921875 63.078125 
Q 60.546875 58.59375 54.296875 55.859375 
L 54.296875 17.1875 
Q 54.296875 10.9375 50 9.171875 
Q 45.703125 7.421875 39.453125 6.25 
Q 38.671875 10.546875 36.71875 14.84375 
Q 42.96875 14.84375 45.109375 15.625 
Q 47.265625 16.40625 47.265625 21.484375 
L 47.265625 48.046875 
Q 47.265625 55.46875 46.484375 60.15625 
Q 50.390625 61.328125 57.8125 64.453125 
Q 65.234375 67.578125 70.3125 70.3125 
L 30.46875 70.3125 
Q 22.265625 70.3125 16.015625 69.921875 
L 16.015625 77.34375 
Q 23.828125 76.953125 30.46875 76.953125 
z
M 70.3125 27.34375 
Q 73.4375 24.609375 78.125 19.921875 
Q 75.390625 17.578125 72.65625 14.0625 
Q 68.75 18.359375 65.625 21.484375 
Q 62.5 24.609375 56.25 30.078125 
Q 58.984375 32.8125 60.9375 35.546875 
z
M 42.1875 28.125 
Q 39.453125 26.171875 34.953125 23.234375 
Q 30.46875 20.3125 25 15.625 
Q 23.828125 18.359375 20.703125 22.265625 
Q 23.4375 23.4375 29.484375 27.140625 
Q 35.546875 30.859375 39.84375 34.765625 
Q 40.625 31.640625 42.1875 28.125 
z
M 77.734375 49.609375 
Q 75 48.4375 71.28125 45.5 
Q 67.578125 42.578125 62.5 38.671875 
Q 60.546875 42.1875 58.59375 44.53125 
Q 62.890625 47.65625 65.625 50 
Q 68.359375 52.34375 71.875 55.859375 
Q 74.609375 52.734375 77.734375 49.609375 
z
M 36.71875 39.84375 
Q 34.375 42.96875 31.25 45.890625 
Q 28.125 48.828125 23.046875 52.34375 
Q 25.78125 55.078125 27.34375 57.8125 
Q 31.640625 54.6875 41.40625 46.09375 
Q 38.671875 42.578125 36.71875 39.84375 
z
" id="SimHei-20989"/>
      <path d="M 70.703125 76.953125 
Q 69.921875 75 68.75 71.671875 
Q 67.578125 68.359375 65.234375 59.765625 
L 83.203125 59.765625 
Q 87.109375 59.765625 92.578125 60.15625 
L 92.578125 53.125 
Q 88.28125 53.515625 85.9375 53.515625 
Q 85.9375 47.265625 83.78125 33.78125 
Q 81.640625 20.3125 76.171875 10.546875 
Q 80.078125 5.859375 84.953125 2.140625 
Q 89.84375 -1.5625 94.140625 -3.125 
Q 89.453125 -6.640625 87.890625 -9.765625 
Q 83.203125 -7.03125 79.296875 -3.515625 
Q 75.390625 0 71.484375 5.078125 
Q 67.1875 0.390625 62.296875 -2.921875 
Q 57.421875 -6.25 50 -10.15625 
Q 48.046875 -6.640625 44.53125 -4.6875 
Q 50.390625 -2.34375 57.03125 1.953125 
Q 63.671875 6.25 67.1875 10.546875 
Q 64.453125 16.015625 61.90625 22.265625 
Q 59.375 28.515625 57.421875 38.671875 
Q 56.25 35.546875 53.515625 30.46875 
Q 50.78125 32.03125 46.875 33.59375 
Q 53.125 44.53125 57.03125 57.421875 
Q 60.9375 70.3125 62.109375 79.6875 
Q 66.796875 77.734375 70.703125 76.953125 
z
M 32.8125 35.15625 
Q 31.25 33.59375 29.296875 30.078125 
L 50.78125 30.078125 
Q 48.4375 20.3125 42.578125 10.546875 
Q 48.828125 8.203125 52.34375 6.25 
Q 50.390625 3.515625 48.828125 0.390625 
Q 45.3125 2.734375 38.28125 5.078125 
Q 30.46875 -3.515625 11.328125 -10.15625 
Q 9.375 -5.859375 6.25 -4.296875 
Q 24.609375 0 31.25 7.421875 
Q 20.3125 10.15625 13.28125 12.109375 
Q 15.625 15.625 19.53125 23.828125 
Q 15.625 23.828125 6.640625 23.4375 
L 6.640625 30.46875 
Q 14.0625 30.078125 21.875 30.078125 
Q 23.4375 33.59375 24.21875 37.890625 
Q 28.515625 36.328125 32.8125 35.15625 
z
M 27.734375 61.71875 
Q 27.734375 71.09375 27.34375 79.6875 
L 35.15625 79.6875 
Q 34.765625 71.484375 34.765625 61.71875 
Q 48.046875 61.71875 53.515625 62.109375 
L 53.515625 55.078125 
Q 48.046875 55.46875 34.765625 55.46875 
Q 34.765625 44.140625 35.15625 37.890625 
L 27.34375 37.890625 
Q 27.734375 43.359375 27.734375 51.5625 
Q 25.78125 48.4375 20.3125 43.546875 
Q 14.84375 38.671875 10.15625 35.9375 
Q 8.203125 39.453125 4.296875 41.015625 
Q 7.8125 42.1875 13.671875 46.484375 
Q 19.53125 50.78125 22.65625 55.46875 
Q 14.84375 55.46875 7.8125 55.078125 
L 7.8125 62.109375 
Q 14.453125 61.71875 27.734375 61.71875 
z
M 62.109375 49.609375 
Q 65.625 26.5625 71.875 17.578125 
Q 75.78125 26.5625 77.140625 35.734375 
Q 78.515625 44.921875 78.90625 53.515625 
L 63.671875 53.515625 
L 62.109375 49.609375 
z
M 22.65625 15.625 
Q 27.34375 14.453125 35.546875 12.5 
Q 38.671875 16.40625 41.40625 23.828125 
L 26.953125 23.828125 
Q 25 19.921875 22.65625 15.625 
z
M 51.953125 75.390625 
Q 50 72.265625 48.828125 69.53125 
Q 47.65625 66.796875 45.703125 62.890625 
Q 42.578125 64.453125 39.453125 65.234375 
Q 42.578125 70.3125 45.3125 78.125 
Q 49.21875 76.171875 51.953125 75.390625 
z
M 40.234375 52.734375 
Q 45.3125 47.65625 50 42.578125 
Q 47.65625 40.625 44.921875 37.890625 
Q 39.453125 44.53125 35.9375 48.4375 
Q 38.28125 50.390625 40.234375 52.734375 
z
M 14.453125 78.125 
Q 19.921875 72.65625 23.4375 67.1875 
L 17.578125 63.671875 
Q 14.84375 69.140625 9.375 73.828125 
Q 12.890625 76.171875 14.453125 78.125 
z
" id="SimHei-25968"/>
      <path d="M 57.421875 69.53125 
L 57.421875 79.6875 
Q 62.109375 79.296875 67.96875 78.90625 
Q 66.015625 76.171875 65.625 69.53125 
L 80.078125 69.53125 
Q 86.71875 69.53125 91.796875 69.921875 
L 91.796875 62.890625 
Q 86.328125 63.28125 80.078125 63.28125 
L 65.234375 63.28125 
L 64.453125 54.6875 
L 84.375 54.6875 
Q 83.984375 50 83.984375 42.1875 
L 83.984375 2.34375 
Q 91.796875 2.34375 95.3125 2.734375 
L 95.3125 -4.296875 
Q 90.234375 -3.90625 81.25 -3.90625 
L 44.53125 -3.90625 
Q 35.546875 -3.90625 29.6875 -4.296875 
L 29.6875 2.734375 
Q 33.203125 2.34375 40.625 2.34375 
L 40.625 42.1875 
Q 40.625 49.609375 40.234375 54.6875 
L 56.25 54.6875 
L 57.03125 63.28125 
L 50 63.28125 
Q 40.234375 63.28125 34.765625 62.890625 
L 34.765625 69.921875 
Q 39.84375 69.53125 50 69.53125 
z
M 34.765625 76.5625 
Q 31.640625 73.046875 25.78125 58.59375 
L 25.78125 7.03125 
Q 25.78125 -1.171875 26.171875 -8.59375 
L 17.96875 -8.59375 
Q 18.359375 -1.953125 18.359375 5.859375 
L 18.359375 46.09375 
Q 13.671875 38.28125 9.765625 33.59375 
Q 6.640625 37.890625 3.90625 40.234375 
Q 7.8125 44.140625 14.640625 55.265625 
Q 21.484375 66.40625 25.390625 80.46875 
Q 30.859375 77.734375 34.765625 76.5625 
z
M 76.953125 41.40625 
L 76.953125 49.21875 
L 48.046875 49.21875 
L 48.046875 41.40625 
z
M 76.953125 2.34375 
L 76.953125 9.765625 
L 48.046875 9.765625 
L 48.046875 2.34375 
z
M 76.953125 15.625 
L 76.953125 22.65625 
L 48.046875 22.65625 
L 48.046875 15.625 
z
M 76.953125 28.515625 
L 76.953125 35.546875 
L 48.046875 35.546875 
L 48.046875 28.515625 
z
" id="SimHei-20540"/>
     </defs>
     <g transform="translate(262.125 24.285937)scale(0.1 -0.1)">
      <use xlink:href="#SimHei-31181"/>
      <use x="100" xlink:href="#SimHei-32676"/>
      <use x="200" xlink:href="#SimHei-20010"/>
      <use x="300" xlink:href="#SimHei-20307"/>
      <use x="400" xlink:href="#SimHei-24179"/>
      <use x="500" xlink:href="#SimHei-22343"/>
      <use x="600" xlink:href="#SimHei-30446"/>
      <use x="700" xlink:href="#SimHei-26631"/>
      <use x="800" xlink:href="#SimHei-20989"/>
      <use x="900" xlink:href="#SimHei-25968"/>
      <use x="1000" xlink:href="#SimHei-20540"/>
     </g>
    </g>
    <g id="line2d_23">
     <path d="M 234.125 35.121875 
L 254.125 35.121875 
" style="fill:none;stroke:#ff7f0e;stroke-linecap:square;stroke-width:1.5;"/>
    </g>
    <g id="line2d_24"/>
    <g id="text_22">
     <!-- 种群最优个体目标函数值 -->
     <defs>
      <path d="M 7.421875 4.296875 
Q 10.546875 4.6875 17.1875 5.46875 
L 17.1875 38.28125 
Q 12.109375 38.28125 6.640625 37.890625 
L 6.640625 44.53125 
Q 12.109375 44.140625 17.578125 44.140625 
L 78.515625 44.140625 
Q 85.546875 44.140625 92.1875 44.53125 
L 92.1875 37.890625 
Q 85.546875 38.28125 78.515625 38.28125 
L 47.65625 38.28125 
L 47.65625 10.546875 
L 53.125 12.109375 
Q 53.125 8.59375 53.515625 6.25 
Q 50.390625 5.46875 47.65625 5.078125 
Q 47.65625 -1.953125 48.046875 -8.59375 
L 40.625 -8.59375 
Q 41.015625 -1.953125 41.015625 3.90625 
Q 36.71875 3.125 28.3125 1.359375 
Q 19.921875 -0.390625 10.15625 -2.734375 
Q 8.984375 1.5625 7.421875 4.296875 
z
M 79.6875 76.953125 
Q 79.296875 71.875 79.296875 67.578125 
L 79.296875 60.546875 
Q 79.296875 56.25 79.6875 50.78125 
L 19.921875 50.78125 
Q 20.3125 56.25 20.3125 60.546875 
L 20.3125 67.578125 
Q 20.3125 71.875 19.921875 76.953125 
L 79.6875 76.953125 
z
M 51.5625 32.03125 
Q 58.59375 31.640625 64.453125 31.640625 
L 83.984375 31.640625 
Q 79.6875 15.234375 73.828125 6.25 
Q 83.59375 0 92.578125 -1.5625 
Q 89.0625 -4.296875 88.28125 -7.8125 
Q 78.515625 -4.6875 69.921875 2.34375 
Q 64.84375 -3.125 56.25 -8.984375 
Q 54.6875 -6.640625 50.78125 -4.296875 
Q 58.984375 -1.5625 64.84375 5.46875 
Q 58.203125 12.109375 54.6875 26.171875 
L 51.5625 26.171875 
z
M 71.875 66.40625 
L 71.875 71.875 
L 27.34375 71.875 
L 27.34375 66.40625 
z
M 71.875 55.859375 
L 71.875 60.9375 
L 27.34375 60.9375 
L 27.34375 55.859375 
z
M 60.9375 26.171875 
Q 62.5 16.796875 68.75 9.765625 
Q 73.4375 16.40625 75.78125 26.171875 
L 60.9375 26.171875 
z
M 41.015625 19.53125 
L 41.015625 26.171875 
L 23.828125 26.171875 
L 23.828125 19.53125 
z
M 41.015625 8.984375 
L 41.015625 14.453125 
L 23.828125 14.453125 
L 23.828125 6.640625 
z
M 41.015625 31.640625 
L 41.015625 38.28125 
L 23.828125 38.28125 
L 23.828125 31.640625 
z
" id="SimHei-26368"/>
      <path d="M 72.65625 5.46875 
Q 72.265625 1.5625 75.390625 0.78125 
Q 78.515625 0 81.25 0.1875 
Q 83.984375 0.390625 85.34375 1.953125 
Q 86.71875 3.515625 88.28125 12.5 
Q 91.015625 9.765625 96.875 8.203125 
Q 94.53125 -0.390625 92.375 -3.125 
Q 90.234375 -5.859375 85.546875 -6.25 
L 73.4375 -6.25 
Q 65.234375 -6.25 65.234375 3.125 
L 65.234375 47.65625 
L 60.15625 47.65625 
Q 58.203125 9.375 37.109375 -8.59375 
Q 34.375 -5.078125 29.296875 -3.515625 
Q 49.609375 10.546875 52.34375 47.65625 
L 45.3125 47.65625 
Q 36.71875 47.65625 30.859375 47.265625 
L 30.859375 54.296875 
Q 36.71875 53.90625 45.3125 53.90625 
L 52.734375 53.90625 
Q 52.734375 73.4375 52.34375 80.46875 
Q 55.078125 79.6875 61.328125 79.296875 
Q 60.15625 73.4375 60.15625 53.90625 
L 81.25 53.90625 
Q 85.546875 53.90625 92.578125 54.296875 
L 92.578125 47.265625 
Q 85.9375 47.65625 81.640625 47.65625 
L 72.65625 47.65625 
L 72.65625 5.46875 
z
M 3.125 37.109375 
Q 8.203125 42.1875 15.625 56.4375 
Q 23.046875 70.703125 25 81.25 
Q 28.90625 78.90625 34.765625 76.953125 
Q 31.25 73.4375 26.5625 59.765625 
L 26.5625 9.375 
Q 26.5625 -2.34375 26.953125 -8.203125 
L 18.75 -8.203125 
Q 19.140625 -2.734375 19.140625 8.984375 
L 19.140625 46.484375 
Q 14.0625 37.890625 8.59375 30.859375 
Q 6.640625 34.375 3.125 37.109375 
z
M 75.78125 78.515625 
Q 78.125 75 80.46875 71.671875 
Q 82.8125 68.359375 85.15625 65.625 
Q 82.03125 63.671875 78.515625 60.546875 
Q 76.171875 65.234375 69.53125 73.828125 
Q 72.265625 75.78125 75.78125 78.515625 
z
" id="SimHei-20248"/>
     </defs>
     <g transform="translate(262.125 38.621875)scale(0.1 -0.1)">
      <use xlink:href="#SimHei-31181"/>
      <use x="100" xlink:href="#SimHei-32676"/>
      <use x="200" xlink:href="#SimHei-26368"/>
      <use x="300" xlink:href="#SimHei-20248"/>
      <use x="400" xlink:href="#SimHei-20010"/>
      <use x="500" xlink:href="#SimHei-20307"/>
      <use x="600" xlink:href="#SimHei-30446"/>
      <use x="700" xlink:href="#SimHei-26631"/>
      <use x="800" xlink:href="#SimHei-20989"/>
      <use x="900" xlink:href="#SimHei-25968"/>
      <use x="1000" xlink:href="#SimHei-20540"/>
     </g>
    </g>
   </g>
  </g>
 </g>
 <defs>
  <clipPath id="p334854e65a">
   <rect height="217.44" width="334.8" x="46.325" y="7.2"/>
  </clipPath>
 </defs>
</svg>
