<?xml version="1.0" encoding="utf-8" standalone="no"?>
<!DOCTYPE svg PUBLIC "-//W3C//DTD SVG 1.1//EN"
  "http://www.w3.org/Graphics/SVG/1.1/DTD/svg11.dtd">
<!-- Created with matplotlib (https://matplotlib.org/) -->
<svg height="345.6pt" version="1.1" viewBox="0 0 460.8 345.6" width="460.8pt" xmlns="http://www.w3.org/2000/svg" xmlns:xlink="http://www.w3.org/1999/xlink">
 <defs>
  <style type="text/css">
*{stroke-linecap:butt;stroke-linejoin:round;}
  </style>
 </defs>
 <g id="figure_1">
  <g id="patch_1">
   <path d="M 0 345.6 
L 460.8 345.6 
L 460.8 0 
L 0 0 
z
" style="fill:#ffffff;"/>
  </g>
  <g id="axes_1">
   <g id="patch_2">
    <path d="M 57.6 307.584 
L 414.72 307.584 
L 414.72 41.472 
L 57.6 41.472 
z
" style="fill:#ffffff;"/>
   </g>
   <g id="PathCollection_1">
    <defs>
     <path d="M 0 1.581139 
C 0.419323 1.581139 0.821528 1.41454 1.118034 1.118034 
C 1.41454 0.821528 1.581139 0.419323 1.581139 0 
C 1.581139 -0.419323 1.41454 -0.821528 1.118034 -1.118034 
C 0.821528 -1.41454 0.419323 -1.581139 0 -1.581139 
C -0.419323 -1.581139 -0.821528 -1.41454 -1.118034 -1.118034 
C -1.41454 -0.821528 -1.581139 -0.419323 -1.581139 0 
C -1.581139 0.419323 -1.41454 0.821528 -1.118034 1.118034 
C -0.821528 1.41454 -0.419323 1.581139 0 1.581139 
z
" id="m19e8e00d6f" style="stroke:#1f77b4;"/>
    </defs>
    <g clip-path="url(#p244bbeb4a9)">
     <use style="fill:#1f77b4;stroke:#1f77b4;" x="73.839404" xlink:href="#m19e8e00d6f" y="53.580468"/>
     <use style="fill:#1f77b4;stroke:#1f77b4;" x="398.480596" xlink:href="#m19e8e00d6f" y="295.475532"/>
     <use style="fill:#1f77b4;stroke:#1f77b4;" x="73.839404" xlink:href="#m19e8e00d6f" y="53.580468"/>
     <use style="fill:#1f77b4;stroke:#1f77b4;" x="398.480596" xlink:href="#m19e8e00d6f" y="295.475532"/>
     <use style="fill:#1f77b4;stroke:#1f77b4;" x="396.386137" xlink:href="#m19e8e00d6f" y="292.561134"/>
     <use style="fill:#1f77b4;stroke:#1f77b4;" x="243.490608" xlink:href="#m19e8e00d6f" y="289.646736"/>
     <use style="fill:#1f77b4;stroke:#1f77b4;" x="124.106427" xlink:href="#m19e8e00d6f" y="123.526029"/>
     <use style="fill:#1f77b4;stroke:#1f77b4;" x="88.500619" xlink:href="#m19e8e00d6f" y="73.981256"/>
     <use style="fill:#1f77b4;stroke:#1f77b4;" x="124.106427" xlink:href="#m19e8e00d6f" y="123.526029"/>
     <use style="fill:#1f77b4;stroke:#1f77b4;" x="88.500619" xlink:href="#m19e8e00d6f" y="73.981256"/>
     <use style="fill:#1f77b4;stroke:#1f77b4;" x="155.523317" xlink:href="#m19e8e00d6f" y="167.242004"/>
     <use style="fill:#1f77b4;stroke:#1f77b4;" x="155.523317" xlink:href="#m19e8e00d6f" y="167.242004"/>
     <use style="fill:#1f77b4;stroke:#1f77b4;" x="109.445212" xlink:href="#m19e8e00d6f" y="103.12524"/>
     <use style="fill:#1f77b4;stroke:#1f77b4;" x="98.972916" xlink:href="#m19e8e00d6f" y="88.553248"/>
     <use style="fill:#1f77b4;stroke:#1f77b4;" x="235.11277" xlink:href="#m19e8e00d6f" y="277.989142"/>
     <use style="fill:#1f77b4;stroke:#1f77b4;" x="134.578724" xlink:href="#m19e8e00d6f" y="138.09802"/>
     <use style="fill:#1f77b4;stroke:#1f77b4;" x="142.956561" xlink:href="#m19e8e00d6f" y="149.755614"/>
     <use style="fill:#1f77b4;stroke:#1f77b4;" x="182.751288" xlink:href="#m19e8e00d6f" y="205.129183"/>
     <use style="fill:#1f77b4;stroke:#1f77b4;" x="222.546015" xlink:href="#m19e8e00d6f" y="260.502752"/>
     <use style="fill:#1f77b4;stroke:#1f77b4;" x="182.751288" xlink:href="#m19e8e00d6f" y="205.129183"/>
     <use style="fill:#1f77b4;stroke:#1f77b4;" x="235.11277" xlink:href="#m19e8e00d6f" y="277.989142"/>
     <use style="fill:#1f77b4;stroke:#1f77b4;" x="134.578724" xlink:href="#m19e8e00d6f" y="138.09802"/>
     <use style="fill:#1f77b4;stroke:#1f77b4;" x="98.972916" xlink:href="#m19e8e00d6f" y="88.553248"/>
     <use style="fill:#1f77b4;stroke:#1f77b4;" x="165.995613" xlink:href="#m19e8e00d6f" y="181.813996"/>
     <use style="fill:#1f77b4;stroke:#1f77b4;" x="224.640474" xlink:href="#m19e8e00d6f" y="263.41715"/>
     <use style="fill:#1f77b4;stroke:#1f77b4;" x="109.445212" xlink:href="#m19e8e00d6f" y="103.12524"/>
     <use style="fill:#1f77b4;stroke:#1f77b4;" x="216.262637" xlink:href="#m19e8e00d6f" y="251.759557"/>
     <use style="fill:#1f77b4;stroke:#1f77b4;" x="172.278991" xlink:href="#m19e8e00d6f" y="190.557191"/>
     <use style="fill:#1f77b4;stroke:#1f77b4;" x="216.262637" xlink:href="#m19e8e00d6f" y="251.759557"/>
     <use style="fill:#1f77b4;stroke:#1f77b4;" x="191.129125" xlink:href="#m19e8e00d6f" y="216.786776"/>
     <use style="fill:#1f77b4;stroke:#1f77b4;" x="174.373451" xlink:href="#m19e8e00d6f" y="193.471589"/>
     <use style="fill:#1f77b4;stroke:#1f77b4;" x="142.956561" xlink:href="#m19e8e00d6f" y="149.755614"/>
     <use style="fill:#1f77b4;stroke:#1f77b4;" x="209.979259" xlink:href="#m19e8e00d6f" y="243.016362"/>
     <use style="fill:#1f77b4;stroke:#1f77b4;" x="224.640474" xlink:href="#m19e8e00d6f" y="263.41715"/>
     <use style="fill:#1f77b4;stroke:#1f77b4;" x="165.995613" xlink:href="#m19e8e00d6f" y="181.813996"/>
     <use style="fill:#1f77b4;stroke:#1f77b4;" x="209.979259" xlink:href="#m19e8e00d6f" y="243.016362"/>
     <use style="fill:#1f77b4;stroke:#1f77b4;" x="105.256294" xlink:href="#m19e8e00d6f" y="97.296443"/>
     <use style="fill:#1f77b4;stroke:#1f77b4;" x="199.506962" xlink:href="#m19e8e00d6f" y="228.44437"/>
     <use style="fill:#1f77b4;stroke:#1f77b4;" x="241.396148" xlink:href="#m19e8e00d6f" y="286.732337"/>
     <use style="fill:#1f77b4;stroke:#1f77b4;" x="140.862102" xlink:href="#m19e8e00d6f" y="146.841216"/>
     <use style="fill:#1f77b4;stroke:#1f77b4;" x="193.223584" xlink:href="#m19e8e00d6f" y="219.701175"/>
     <use style="fill:#1f77b4;stroke:#1f77b4;" x="191.129125" xlink:href="#m19e8e00d6f" y="216.786776"/>
     <use style="fill:#1f77b4;stroke:#1f77b4;" x="174.373451" xlink:href="#m19e8e00d6f" y="193.471589"/>
     <use style="fill:#1f77b4;stroke:#1f77b4;" x="107.350753" xlink:href="#m19e8e00d6f" y="100.210842"/>
     <use style="fill:#1f77b4;stroke:#1f77b4;" x="205.79034" xlink:href="#m19e8e00d6f" y="237.187565"/>
     <use style="fill:#1f77b4;stroke:#1f77b4;" x="205.79034" xlink:href="#m19e8e00d6f" y="237.187565"/>
     <use style="fill:#1f77b4;stroke:#1f77b4;" x="193.223584" xlink:href="#m19e8e00d6f" y="219.701175"/>
     <use style="fill:#1f77b4;stroke:#1f77b4;" x="140.862102" xlink:href="#m19e8e00d6f" y="146.841216"/>
     <use style="fill:#1f77b4;stroke:#1f77b4;" x="241.396148" xlink:href="#m19e8e00d6f" y="286.732337"/>
     <use style="fill:#1f77b4;stroke:#1f77b4;" x="199.506962" xlink:href="#m19e8e00d6f" y="228.44437"/>
    </g>
   </g>
   <g id="matplotlib.axis_1">
    <g id="xtick_1">
     <g id="line2d_1">
      <path clip-path="url(#p244bbeb4a9)" d="M 59.178189 307.584 
L 59.178189 41.472 
" style="fill:none;stroke:#b0b0b0;stroke-linecap:square;stroke-width:0.8;"/>
     </g>
     <g id="line2d_2">
      <defs>
       <path d="M 0 0 
L 0 3.5 
" id="mabde1f711d" style="stroke:#000000;stroke-width:0.8;"/>
      </defs>
      <g>
       <use style="stroke:#000000;stroke-width:0.8;" x="59.178189" xlink:href="#mabde1f711d" y="307.584"/>
      </g>
     </g>
     <g id="text_1">
      <!-- −220 -->
      <defs>
       <path d="M 10.59375 35.5 
L 73.1875 35.5 
L 73.1875 27.203125 
L 10.59375 27.203125 
z
" id="DejaVuSans-8722"/>
       <path d="M 19.1875 8.296875 
L 53.609375 8.296875 
L 53.609375 0 
L 7.328125 0 
L 7.328125 8.296875 
Q 12.9375 14.109375 22.625 23.890625 
Q 32.328125 33.6875 34.8125 36.53125 
Q 39.546875 41.84375 41.421875 45.53125 
Q 43.3125 49.21875 43.3125 52.78125 
Q 43.3125 58.59375 39.234375 62.25 
Q 35.15625 65.921875 28.609375 65.921875 
Q 23.96875 65.921875 18.8125 64.3125 
Q 13.671875 62.703125 7.8125 59.421875 
L 7.8125 69.390625 
Q 13.765625 71.78125 18.9375 73 
Q 24.125 74.21875 28.421875 74.21875 
Q 39.75 74.21875 46.484375 68.546875 
Q 53.21875 62.890625 53.21875 53.421875 
Q 53.21875 48.921875 51.53125 44.890625 
Q 49.859375 40.875 45.40625 35.40625 
Q 44.1875 33.984375 37.640625 27.21875 
Q 31.109375 20.453125 19.1875 8.296875 
z
" id="DejaVuSans-50"/>
       <path d="M 31.78125 66.40625 
Q 24.171875 66.40625 20.328125 58.90625 
Q 16.5 51.421875 16.5 36.375 
Q 16.5 21.390625 20.328125 13.890625 
Q 24.171875 6.390625 31.78125 6.390625 
Q 39.453125 6.390625 43.28125 13.890625 
Q 47.125 21.390625 47.125 36.375 
Q 47.125 51.421875 43.28125 58.90625 
Q 39.453125 66.40625 31.78125 66.40625 
z
M 31.78125 74.21875 
Q 44.046875 74.21875 50.515625 64.515625 
Q 56.984375 54.828125 56.984375 36.375 
Q 56.984375 17.96875 50.515625 8.265625 
Q 44.046875 -1.421875 31.78125 -1.421875 
Q 19.53125 -1.421875 13.0625 8.265625 
Q 6.59375 17.96875 6.59375 36.375 
Q 6.59375 54.828125 13.0625 64.515625 
Q 19.53125 74.21875 31.78125 74.21875 
z
" id="DejaVuSans-48"/>
      </defs>
      <g transform="translate(45.444595 322.182437)scale(0.1 -0.1)">
       <use xlink:href="#DejaVuSans-8722"/>
       <use x="83.789062" xlink:href="#DejaVuSans-50"/>
       <use x="147.412109" xlink:href="#DejaVuSans-50"/>
       <use x="211.035156" xlink:href="#DejaVuSans-48"/>
      </g>
     </g>
    </g>
    <g id="xtick_2">
     <g id="line2d_3">
      <path clip-path="url(#p244bbeb4a9)" d="M 101.067375 307.584 
L 101.067375 41.472 
" style="fill:none;stroke:#b0b0b0;stroke-linecap:square;stroke-width:0.8;"/>
     </g>
     <g id="line2d_4">
      <g>
       <use style="stroke:#000000;stroke-width:0.8;" x="101.067375" xlink:href="#mabde1f711d" y="307.584"/>
      </g>
     </g>
     <g id="text_2">
      <!-- −200 -->
      <g transform="translate(87.333781 322.182437)scale(0.1 -0.1)">
       <use xlink:href="#DejaVuSans-8722"/>
       <use x="83.789062" xlink:href="#DejaVuSans-50"/>
       <use x="147.412109" xlink:href="#DejaVuSans-48"/>
       <use x="211.035156" xlink:href="#DejaVuSans-48"/>
      </g>
     </g>
    </g>
    <g id="xtick_3">
     <g id="line2d_5">
      <path clip-path="url(#p244bbeb4a9)" d="M 142.956561 307.584 
L 142.956561 41.472 
" style="fill:none;stroke:#b0b0b0;stroke-linecap:square;stroke-width:0.8;"/>
     </g>
     <g id="line2d_6">
      <g>
       <use style="stroke:#000000;stroke-width:0.8;" x="142.956561" xlink:href="#mabde1f711d" y="307.584"/>
      </g>
     </g>
     <g id="text_3">
      <!-- −180 -->
      <defs>
       <path d="M 12.40625 8.296875 
L 28.515625 8.296875 
L 28.515625 63.921875 
L 10.984375 60.40625 
L 10.984375 69.390625 
L 28.421875 72.90625 
L 38.28125 72.90625 
L 38.28125 8.296875 
L 54.390625 8.296875 
L 54.390625 0 
L 12.40625 0 
z
" id="DejaVuSans-49"/>
       <path d="M 31.78125 34.625 
Q 24.75 34.625 20.71875 30.859375 
Q 16.703125 27.09375 16.703125 20.515625 
Q 16.703125 13.921875 20.71875 10.15625 
Q 24.75 6.390625 31.78125 6.390625 
Q 38.8125 6.390625 42.859375 10.171875 
Q 46.921875 13.96875 46.921875 20.515625 
Q 46.921875 27.09375 42.890625 30.859375 
Q 38.875 34.625 31.78125 34.625 
z
M 21.921875 38.8125 
Q 15.578125 40.375 12.03125 44.71875 
Q 8.5 49.078125 8.5 55.328125 
Q 8.5 64.0625 14.71875 69.140625 
Q 20.953125 74.21875 31.78125 74.21875 
Q 42.671875 74.21875 48.875 69.140625 
Q 55.078125 64.0625 55.078125 55.328125 
Q 55.078125 49.078125 51.53125 44.71875 
Q 48 40.375 41.703125 38.8125 
Q 48.828125 37.15625 52.796875 32.3125 
Q 56.78125 27.484375 56.78125 20.515625 
Q 56.78125 9.90625 50.3125 4.234375 
Q 43.84375 -1.421875 31.78125 -1.421875 
Q 19.734375 -1.421875 13.25 4.234375 
Q 6.78125 9.90625 6.78125 20.515625 
Q 6.78125 27.484375 10.78125 32.3125 
Q 14.796875 37.15625 21.921875 38.8125 
z
M 18.3125 54.390625 
Q 18.3125 48.734375 21.84375 45.5625 
Q 25.390625 42.390625 31.78125 42.390625 
Q 38.140625 42.390625 41.71875 45.5625 
Q 45.3125 48.734375 45.3125 54.390625 
Q 45.3125 60.0625 41.71875 63.234375 
Q 38.140625 66.40625 31.78125 66.40625 
Q 25.390625 66.40625 21.84375 63.234375 
Q 18.3125 60.0625 18.3125 54.390625 
z
" id="DejaVuSans-56"/>
      </defs>
      <g transform="translate(129.222967 322.182437)scale(0.1 -0.1)">
       <use xlink:href="#DejaVuSans-8722"/>
       <use x="83.789062" xlink:href="#DejaVuSans-49"/>
       <use x="147.412109" xlink:href="#DejaVuSans-56"/>
       <use x="211.035156" xlink:href="#DejaVuSans-48"/>
      </g>
     </g>
    </g>
    <g id="xtick_4">
     <g id="line2d_7">
      <path clip-path="url(#p244bbeb4a9)" d="M 184.845747 307.584 
L 184.845747 41.472 
" style="fill:none;stroke:#b0b0b0;stroke-linecap:square;stroke-width:0.8;"/>
     </g>
     <g id="line2d_8">
      <g>
       <use style="stroke:#000000;stroke-width:0.8;" x="184.845747" xlink:href="#mabde1f711d" y="307.584"/>
      </g>
     </g>
     <g id="text_4">
      <!-- −160 -->
      <defs>
       <path d="M 33.015625 40.375 
Q 26.375 40.375 22.484375 35.828125 
Q 18.609375 31.296875 18.609375 23.390625 
Q 18.609375 15.53125 22.484375 10.953125 
Q 26.375 6.390625 33.015625 6.390625 
Q 39.65625 6.390625 43.53125 10.953125 
Q 47.40625 15.53125 47.40625 23.390625 
Q 47.40625 31.296875 43.53125 35.828125 
Q 39.65625 40.375 33.015625 40.375 
z
M 52.59375 71.296875 
L 52.59375 62.3125 
Q 48.875 64.0625 45.09375 64.984375 
Q 41.3125 65.921875 37.59375 65.921875 
Q 27.828125 65.921875 22.671875 59.328125 
Q 17.53125 52.734375 16.796875 39.40625 
Q 19.671875 43.65625 24.015625 45.921875 
Q 28.375 48.1875 33.59375 48.1875 
Q 44.578125 48.1875 50.953125 41.515625 
Q 57.328125 34.859375 57.328125 23.390625 
Q 57.328125 12.15625 50.6875 5.359375 
Q 44.046875 -1.421875 33.015625 -1.421875 
Q 20.359375 -1.421875 13.671875 8.265625 
Q 6.984375 17.96875 6.984375 36.375 
Q 6.984375 53.65625 15.1875 63.9375 
Q 23.390625 74.21875 37.203125 74.21875 
Q 40.921875 74.21875 44.703125 73.484375 
Q 48.484375 72.75 52.59375 71.296875 
z
" id="DejaVuSans-54"/>
      </defs>
      <g transform="translate(171.112153 322.182437)scale(0.1 -0.1)">
       <use xlink:href="#DejaVuSans-8722"/>
       <use x="83.789062" xlink:href="#DejaVuSans-49"/>
       <use x="147.412109" xlink:href="#DejaVuSans-54"/>
       <use x="211.035156" xlink:href="#DejaVuSans-48"/>
      </g>
     </g>
    </g>
    <g id="xtick_5">
     <g id="line2d_9">
      <path clip-path="url(#p244bbeb4a9)" d="M 226.734933 307.584 
L 226.734933 41.472 
" style="fill:none;stroke:#b0b0b0;stroke-linecap:square;stroke-width:0.8;"/>
     </g>
     <g id="line2d_10">
      <g>
       <use style="stroke:#000000;stroke-width:0.8;" x="226.734933" xlink:href="#mabde1f711d" y="307.584"/>
      </g>
     </g>
     <g id="text_5">
      <!-- −140 -->
      <defs>
       <path d="M 37.796875 64.3125 
L 12.890625 25.390625 
L 37.796875 25.390625 
z
M 35.203125 72.90625 
L 47.609375 72.90625 
L 47.609375 25.390625 
L 58.015625 25.390625 
L 58.015625 17.1875 
L 47.609375 17.1875 
L 47.609375 0 
L 37.796875 0 
L 37.796875 17.1875 
L 4.890625 17.1875 
L 4.890625 26.703125 
z
" id="DejaVuSans-52"/>
      </defs>
      <g transform="translate(213.001339 322.182437)scale(0.1 -0.1)">
       <use xlink:href="#DejaVuSans-8722"/>
       <use x="83.789062" xlink:href="#DejaVuSans-49"/>
       <use x="147.412109" xlink:href="#DejaVuSans-52"/>
       <use x="211.035156" xlink:href="#DejaVuSans-48"/>
      </g>
     </g>
    </g>
    <g id="xtick_6">
     <g id="line2d_11">
      <path clip-path="url(#p244bbeb4a9)" d="M 268.624119 307.584 
L 268.624119 41.472 
" style="fill:none;stroke:#b0b0b0;stroke-linecap:square;stroke-width:0.8;"/>
     </g>
     <g id="line2d_12">
      <g>
       <use style="stroke:#000000;stroke-width:0.8;" x="268.624119" xlink:href="#mabde1f711d" y="307.584"/>
      </g>
     </g>
     <g id="text_6">
      <!-- −120 -->
      <g transform="translate(254.890525 322.182437)scale(0.1 -0.1)">
       <use xlink:href="#DejaVuSans-8722"/>
       <use x="83.789062" xlink:href="#DejaVuSans-49"/>
       <use x="147.412109" xlink:href="#DejaVuSans-50"/>
       <use x="211.035156" xlink:href="#DejaVuSans-48"/>
      </g>
     </g>
    </g>
    <g id="xtick_7">
     <g id="line2d_13">
      <path clip-path="url(#p244bbeb4a9)" d="M 310.513305 307.584 
L 310.513305 41.472 
" style="fill:none;stroke:#b0b0b0;stroke-linecap:square;stroke-width:0.8;"/>
     </g>
     <g id="line2d_14">
      <g>
       <use style="stroke:#000000;stroke-width:0.8;" x="310.513305" xlink:href="#mabde1f711d" y="307.584"/>
      </g>
     </g>
     <g id="text_7">
      <!-- −100 -->
      <g transform="translate(296.779712 322.182437)scale(0.1 -0.1)">
       <use xlink:href="#DejaVuSans-8722"/>
       <use x="83.789062" xlink:href="#DejaVuSans-49"/>
       <use x="147.412109" xlink:href="#DejaVuSans-48"/>
       <use x="211.035156" xlink:href="#DejaVuSans-48"/>
      </g>
     </g>
    </g>
    <g id="xtick_8">
     <g id="line2d_15">
      <path clip-path="url(#p244bbeb4a9)" d="M 352.402491 307.584 
L 352.402491 41.472 
" style="fill:none;stroke:#b0b0b0;stroke-linecap:square;stroke-width:0.8;"/>
     </g>
     <g id="line2d_16">
      <g>
       <use style="stroke:#000000;stroke-width:0.8;" x="352.402491" xlink:href="#mabde1f711d" y="307.584"/>
      </g>
     </g>
     <g id="text_8">
      <!-- −80 -->
      <g transform="translate(341.850148 322.182437)scale(0.1 -0.1)">
       <use xlink:href="#DejaVuSans-8722"/>
       <use x="83.789062" xlink:href="#DejaVuSans-56"/>
       <use x="147.412109" xlink:href="#DejaVuSans-48"/>
      </g>
     </g>
    </g>
    <g id="xtick_9">
     <g id="line2d_17">
      <path clip-path="url(#p244bbeb4a9)" d="M 394.291677 307.584 
L 394.291677 41.472 
" style="fill:none;stroke:#b0b0b0;stroke-linecap:square;stroke-width:0.8;"/>
     </g>
     <g id="line2d_18">
      <g>
       <use style="stroke:#000000;stroke-width:0.8;" x="394.291677" xlink:href="#mabde1f711d" y="307.584"/>
      </g>
     </g>
     <g id="text_9">
      <!-- −60 -->
      <g transform="translate(383.739334 322.182437)scale(0.1 -0.1)">
       <use xlink:href="#DejaVuSans-8722"/>
       <use x="83.789062" xlink:href="#DejaVuSans-54"/>
       <use x="147.412109" xlink:href="#DejaVuSans-48"/>
      </g>
     </g>
    </g>
    <g id="text_10">
     <!-- f1 -->
     <defs>
      <path d="M 37.109375 75.984375 
L 37.109375 68.5 
L 28.515625 68.5 
Q 23.6875 68.5 21.796875 66.546875 
Q 19.921875 64.59375 19.921875 59.515625 
L 19.921875 54.6875 
L 34.71875 54.6875 
L 34.71875 47.703125 
L 19.921875 47.703125 
L 19.921875 0 
L 10.890625 0 
L 10.890625 47.703125 
L 2.296875 47.703125 
L 2.296875 54.6875 
L 10.890625 54.6875 
L 10.890625 58.5 
Q 10.890625 67.625 15.140625 71.796875 
Q 19.390625 75.984375 28.609375 75.984375 
z
" id="DejaVuSans-102"/>
     </defs>
     <g transform="translate(231.218594 335.860562)scale(0.1 -0.1)">
      <use xlink:href="#DejaVuSans-102"/>
      <use x="35.205078" xlink:href="#DejaVuSans-49"/>
     </g>
    </g>
   </g>
   <g id="matplotlib.axis_2">
    <g id="ytick_1">
     <g id="line2d_19">
      <path clip-path="url(#p244bbeb4a9)" d="M 57.6 286.732337 
L 414.72 286.732337 
" style="fill:none;stroke:#b0b0b0;stroke-linecap:square;stroke-width:0.8;"/>
     </g>
     <g id="line2d_20">
      <defs>
       <path d="M 0 0 
L -3.5 0 
" id="m1578dd3b31" style="stroke:#000000;stroke-width:0.8;"/>
      </defs>
      <g>
       <use style="stroke:#000000;stroke-width:0.8;" x="57.6" xlink:href="#m1578dd3b31" y="286.732337"/>
      </g>
     </g>
     <g id="text_11">
      <!-- 20 -->
      <g transform="translate(37.875 290.531556)scale(0.1 -0.1)">
       <use xlink:href="#DejaVuSans-50"/>
       <use x="63.623047" xlink:href="#DejaVuSans-48"/>
      </g>
     </g>
    </g>
    <g id="ytick_2">
     <g id="line2d_21">
      <path clip-path="url(#p244bbeb4a9)" d="M 57.6 228.44437 
L 414.72 228.44437 
" style="fill:none;stroke:#b0b0b0;stroke-linecap:square;stroke-width:0.8;"/>
     </g>
     <g id="line2d_22">
      <g>
       <use style="stroke:#000000;stroke-width:0.8;" x="57.6" xlink:href="#m1578dd3b31" y="228.44437"/>
      </g>
     </g>
     <g id="text_12">
      <!-- 40 -->
      <g transform="translate(37.875 232.243589)scale(0.1 -0.1)">
       <use xlink:href="#DejaVuSans-52"/>
       <use x="63.623047" xlink:href="#DejaVuSans-48"/>
      </g>
     </g>
    </g>
    <g id="ytick_3">
     <g id="line2d_23">
      <path clip-path="url(#p244bbeb4a9)" d="M 57.6 170.156402 
L 414.72 170.156402 
" style="fill:none;stroke:#b0b0b0;stroke-linecap:square;stroke-width:0.8;"/>
     </g>
     <g id="line2d_24">
      <g>
       <use style="stroke:#000000;stroke-width:0.8;" x="57.6" xlink:href="#m1578dd3b31" y="170.156402"/>
      </g>
     </g>
     <g id="text_13">
      <!-- 60 -->
      <g transform="translate(37.875 173.955621)scale(0.1 -0.1)">
       <use xlink:href="#DejaVuSans-54"/>
       <use x="63.623047" xlink:href="#DejaVuSans-48"/>
      </g>
     </g>
    </g>
    <g id="ytick_4">
     <g id="line2d_25">
      <path clip-path="url(#p244bbeb4a9)" d="M 57.6 111.868435 
L 414.72 111.868435 
" style="fill:none;stroke:#b0b0b0;stroke-linecap:square;stroke-width:0.8;"/>
     </g>
     <g id="line2d_26">
      <g>
       <use style="stroke:#000000;stroke-width:0.8;" x="57.6" xlink:href="#m1578dd3b31" y="111.868435"/>
      </g>
     </g>
     <g id="text_14">
      <!-- 80 -->
      <g transform="translate(37.875 115.667654)scale(0.1 -0.1)">
       <use xlink:href="#DejaVuSans-56"/>
       <use x="63.623047" xlink:href="#DejaVuSans-48"/>
      </g>
     </g>
    </g>
    <g id="ytick_5">
     <g id="line2d_27">
      <path clip-path="url(#p244bbeb4a9)" d="M 57.6 53.580468 
L 414.72 53.580468 
" style="fill:none;stroke:#b0b0b0;stroke-linecap:square;stroke-width:0.8;"/>
     </g>
     <g id="line2d_28">
      <g>
       <use style="stroke:#000000;stroke-width:0.8;" x="57.6" xlink:href="#m1578dd3b31" y="53.580468"/>
      </g>
     </g>
     <g id="text_15">
      <!-- 100 -->
      <g transform="translate(31.5125 57.379686)scale(0.1 -0.1)">
       <use xlink:href="#DejaVuSans-49"/>
       <use x="63.623047" xlink:href="#DejaVuSans-48"/>
       <use x="127.246094" xlink:href="#DejaVuSans-48"/>
      </g>
     </g>
    </g>
    <g id="text_16">
     <!-- f2 -->
     <g transform="translate(25.432812 179.469406)rotate(-90)scale(0.1 -0.1)">
      <use xlink:href="#DejaVuSans-102"/>
      <use x="35.205078" xlink:href="#DejaVuSans-50"/>
     </g>
    </g>
   </g>
   <g id="patch_3">
    <path d="M 57.6 307.584 
L 57.6 41.472 
" style="fill:none;stroke:#000000;stroke-linecap:square;stroke-linejoin:miter;stroke-width:0.8;"/>
   </g>
   <g id="patch_4">
    <path d="M 414.72 307.584 
L 414.72 41.472 
" style="fill:none;stroke:#000000;stroke-linecap:square;stroke-linejoin:miter;stroke-width:0.8;"/>
   </g>
   <g id="patch_5">
    <path d="M 57.6 307.584 
L 414.72 307.584 
" style="fill:none;stroke:#000000;stroke-linecap:square;stroke-linejoin:miter;stroke-width:0.8;"/>
   </g>
   <g id="patch_6">
    <path d="M 57.6 41.472 
L 414.72 41.472 
" style="fill:none;stroke:#000000;stroke-linecap:square;stroke-linejoin:miter;stroke-width:0.8;"/>
   </g>
  </g>
 </g>
 <defs>
  <clipPath id="p244bbeb4a9">
   <rect height="266.112" width="357.12" x="57.6" y="41.472"/>
  </clipPath>
 </defs>
</svg>
